<?xml version="1.0" encoding="utf-8" standalone="no"?>
<!DOCTYPE svg PUBLIC "-//W3C//DTD SVG 1.1//EN"
  "http://www.w3.org/Graphics/SVG/1.1/DTD/svg11.dtd">
<!-- Created with matplotlib (https://matplotlib.org/) -->
<svg height="178.638636pt" version="1.1" viewBox="0 0 289.314288 178.638636" width="289.314288pt" xmlns="http://www.w3.org/2000/svg" xmlns:xlink="http://www.w3.org/1999/xlink">
 <defs>
  <style type="text/css">
*{stroke-linecap:butt;stroke-linejoin:round;}
  </style>
 </defs>
 <g id="figure_1">
  <g id="patch_1">
   <path d="M 0 178.638636 
L 289.314288 178.638636 
L 289.314288 0 
L 0 0 
z
" style="fill:#ffffff;"/>
  </g>
  <g id="axes_1">
   <g id="patch_2">
    <path d="M 46.365625 124.107386 
L 276.765625 124.107386 
L 276.765625 8.907386 
L 46.365625 8.907386 
z
" style="fill:#ffffff;"/>
   </g>
   <g id="matplotlib.axis_1">
    <g id="xtick_1">
     <g id="line2d_1">
      <defs>
       <path d="M 0 0 
L 0 3.5 
" id="m297cfd419c" style="stroke:#000000;stroke-width:0.8;"/>
      </defs>
      <g>
       <use style="stroke:#000000;stroke-width:0.8;" x="56.838352" xlink:href="#m297cfd419c" y="124.107386"/>
      </g>
     </g>
     <g id="text_1">
      <!-- 0 -->
      <defs>
       <path d="M 3.609375 32.71875 
Q 3.609375 44.046875 7.03125 52.21875 
Q 10.453125 60.40625 16.109375 64.40625 
Q 20.515625 67.578125 25.203125 67.578125 
Q 32.8125 67.578125 38.875 59.8125 
Q 46.4375 50.203125 46.4375 33.734375 
Q 46.4375 22.21875 43.109375 14.15625 
Q 39.796875 6.109375 34.640625 2.46875 
Q 29.5 -1.171875 24.703125 -1.171875 
Q 15.234375 -1.171875 8.9375 10.015625 
Q 3.609375 19.4375 3.609375 32.71875 
z
M 13.1875 31.5 
Q 13.1875 17.828125 16.546875 9.1875 
Q 19.34375 1.90625 24.859375 1.90625 
Q 27.484375 1.90625 30.3125 4.265625 
Q 33.15625 6.640625 34.625 12.203125 
Q 36.859375 20.609375 36.859375 35.890625 
Q 36.859375 47.21875 34.515625 54.78125 
Q 32.765625 60.40625 29.984375 62.75 
Q 27.984375 64.359375 25.140625 64.359375 
Q 21.828125 64.359375 19.234375 61.375 
Q 15.71875 57.328125 14.453125 48.625 
Q 13.1875 39.9375 13.1875 31.5 
z
" id="TimesNewRomanPSMT-48"/>
      </defs>
      <g transform="translate(51.838352 144.994886)scale(0.2 -0.2)">
       <use xlink:href="#TimesNewRomanPSMT-48"/>
      </g>
     </g>
    </g>
    <g id="xtick_2">
     <g id="line2d_2">
      <g>
       <use style="stroke:#000000;stroke-width:0.8;" x="109.407336" xlink:href="#m297cfd419c" y="124.107386"/>
      </g>
     </g>
     <g id="text_2">
      <!-- 64 -->
      <defs>
       <path d="M 44.828125 67.578125 
L 44.828125 65.765625 
Q 38.375 65.140625 34.296875 63.203125 
Q 30.21875 61.28125 26.234375 57.328125 
Q 22.265625 53.375 19.65625 48.515625 
Q 17.046875 43.65625 15.28125 36.96875 
Q 22.3125 41.796875 29.390625 41.796875 
Q 36.1875 41.796875 41.15625 36.328125 
Q 46.140625 30.859375 46.140625 22.265625 
Q 46.140625 13.96875 41.109375 7.125 
Q 35.0625 -1.171875 25.09375 -1.171875 
Q 18.3125 -1.171875 13.578125 3.328125 
Q 4.296875 12.0625 4.296875 25.984375 
Q 4.296875 34.859375 7.859375 42.859375 
Q 11.421875 50.875 18.03125 57.078125 
Q 24.65625 63.28125 30.703125 65.421875 
Q 36.765625 67.578125 42 67.578125 
z
M 14.453125 33.40625 
Q 13.578125 26.8125 13.578125 22.75 
Q 13.578125 18.0625 15.3125 12.5625 
Q 17.046875 7.078125 20.453125 3.859375 
Q 22.953125 1.5625 26.515625 1.5625 
Q 30.765625 1.5625 34.109375 5.5625 
Q 37.453125 9.578125 37.453125 17 
Q 37.453125 25.34375 34.125 31.4375 
Q 30.8125 37.546875 24.703125 37.546875 
Q 22.859375 37.546875 20.734375 36.765625 
Q 18.609375 35.984375 14.453125 33.40625 
z
" id="TimesNewRomanPSMT-54"/>
       <path d="M 46.53125 24.421875 
L 46.53125 17.484375 
L 37.640625 17.484375 
L 37.640625 0 
L 29.59375 0 
L 29.59375 17.484375 
L 1.5625 17.484375 
L 1.5625 23.734375 
L 32.28125 67.578125 
L 37.640625 67.578125 
L 37.640625 24.421875 
z
M 29.59375 24.421875 
L 29.59375 57.28125 
L 6.34375 24.421875 
z
" id="TimesNewRomanPSMT-52"/>
      </defs>
      <g transform="translate(99.407336 144.994886)scale(0.2 -0.2)">
       <use xlink:href="#TimesNewRomanPSMT-54"/>
       <use x="50" xlink:href="#TimesNewRomanPSMT-52"/>
      </g>
     </g>
    </g>
    <g id="xtick_3">
     <g id="line2d_3">
      <g>
       <use style="stroke:#000000;stroke-width:0.8;" x="161.97632" xlink:href="#m297cfd419c" y="124.107386"/>
      </g>
     </g>
     <g id="text_3">
      <!-- 128 -->
      <defs>
       <path d="M 11.71875 59.71875 
L 27.828125 67.578125 
L 29.4375 67.578125 
L 29.4375 11.671875 
Q 29.4375 6.109375 29.90625 4.734375 
Q 30.375 3.375 31.828125 2.640625 
Q 33.296875 1.90625 37.796875 1.8125 
L 37.796875 0 
L 12.890625 0 
L 12.890625 1.8125 
Q 17.578125 1.90625 18.9375 2.609375 
Q 20.3125 3.328125 20.84375 4.515625 
Q 21.390625 5.71875 21.390625 11.671875 
L 21.390625 47.40625 
Q 21.390625 54.640625 20.90625 56.6875 
Q 20.5625 58.25 19.65625 58.984375 
Q 18.75 59.71875 17.484375 59.71875 
Q 15.671875 59.71875 12.453125 58.203125 
z
" id="TimesNewRomanPSMT-49"/>
       <path d="M 45.84375 12.75 
L 41.21875 0 
L 2.15625 0 
L 2.15625 1.8125 
Q 19.390625 17.53125 26.421875 27.484375 
Q 33.453125 37.453125 33.453125 45.703125 
Q 33.453125 52 29.59375 56.046875 
Q 25.734375 60.109375 20.359375 60.109375 
Q 15.484375 60.109375 11.59375 57.25 
Q 7.71875 54.390625 5.859375 48.875 
L 4.046875 48.875 
Q 5.28125 57.90625 10.328125 62.734375 
Q 15.375 67.578125 22.953125 67.578125 
Q 31 67.578125 36.390625 62.40625 
Q 41.796875 57.234375 41.796875 50.203125 
Q 41.796875 45.171875 39.453125 40.140625 
Q 35.84375 32.234375 27.734375 23.390625 
Q 15.578125 10.109375 12.546875 7.375 
L 29.828125 7.375 
Q 35.109375 7.375 37.234375 7.765625 
Q 39.359375 8.15625 41.0625 9.34375 
Q 42.78125 10.546875 44.046875 12.75 
z
" id="TimesNewRomanPSMT-50"/>
       <path d="M 19.1875 33.34375 
Q 11.328125 39.796875 9.046875 43.703125 
Q 6.78125 47.609375 6.78125 51.8125 
Q 6.78125 58.25 11.765625 62.90625 
Q 16.75 67.578125 25 67.578125 
Q 33.015625 67.578125 37.890625 63.234375 
Q 42.78125 58.890625 42.78125 53.328125 
Q 42.78125 49.609375 40.140625 45.75 
Q 37.5 41.890625 29.15625 36.671875 
Q 37.75 30.03125 40.53125 26.21875 
Q 44.234375 21.234375 44.234375 15.71875 
Q 44.234375 8.734375 38.90625 3.78125 
Q 33.59375 -1.171875 24.953125 -1.171875 
Q 15.53125 -1.171875 10.25 4.734375 
Q 6.0625 9.46875 6.0625 15.09375 
Q 6.0625 19.484375 9.015625 23.796875 
Q 11.96875 28.125 19.1875 33.34375 
z
M 26.859375 38.578125 
Q 32.71875 43.84375 34.28125 46.890625 
Q 35.84375 49.953125 35.84375 53.8125 
Q 35.84375 58.9375 32.953125 61.84375 
Q 30.078125 64.75 25.09375 64.75 
Q 20.125 64.75 17 61.859375 
Q 13.875 58.984375 13.875 55.125 
Q 13.875 52.59375 15.15625 50.046875 
Q 16.453125 47.515625 18.84375 45.21875 
z
M 21.484375 31.5 
Q 17.4375 28.078125 15.484375 24.046875 
Q 13.53125 20.015625 13.53125 15.328125 
Q 13.53125 9.03125 16.96875 5.25 
Q 20.40625 1.46875 25.734375 1.46875 
Q 31 1.46875 34.171875 4.4375 
Q 37.359375 7.421875 37.359375 11.671875 
Q 37.359375 15.1875 35.5 17.96875 
Q 32.03125 23.140625 21.484375 31.5 
z
" id="TimesNewRomanPSMT-56"/>
      </defs>
      <g transform="translate(146.97632 144.994886)scale(0.2 -0.2)">
       <use xlink:href="#TimesNewRomanPSMT-49"/>
       <use x="50" xlink:href="#TimesNewRomanPSMT-50"/>
       <use x="100" xlink:href="#TimesNewRomanPSMT-56"/>
      </g>
     </g>
    </g>
    <g id="xtick_4">
     <g id="line2d_4">
      <g>
       <use style="stroke:#000000;stroke-width:0.8;" x="214.545304" xlink:href="#m297cfd419c" y="124.107386"/>
      </g>
     </g>
     <g id="text_4">
      <!-- 192 -->
      <defs>
       <path d="M 5.28125 -1.375 
L 5.28125 0.4375 
Q 11.625 0.53125 17.09375 3.390625 
Q 22.5625 6.25 27.65625 13.375 
Q 32.765625 20.515625 34.765625 29.046875 
Q 27.09375 24.125 20.90625 24.125 
Q 13.921875 24.125 8.9375 29.515625 
Q 3.953125 34.90625 3.953125 43.84375 
Q 3.953125 52.546875 8.9375 59.328125 
Q 14.9375 67.578125 24.609375 67.578125 
Q 32.765625 67.578125 38.578125 60.84375 
Q 45.703125 52.484375 45.703125 40.234375 
Q 45.703125 29.203125 40.28125 19.65625 
Q 34.859375 10.109375 25.203125 3.8125 
Q 17.328125 -1.375 8.0625 -1.375 
z
M 35.546875 32.671875 
Q 36.421875 39.015625 36.421875 42.828125 
Q 36.421875 47.5625 34.8125 53.046875 
Q 33.203125 58.546875 30.25 61.46875 
Q 27.296875 64.40625 23.53125 64.40625 
Q 19.1875 64.40625 15.90625 60.5 
Q 12.640625 56.59375 12.640625 48.875 
Q 12.640625 38.578125 17 32.765625 
Q 20.171875 28.5625 24.8125 28.5625 
Q 27.046875 28.5625 30.125 29.640625 
Q 33.203125 30.71875 35.546875 32.671875 
z
" id="TimesNewRomanPSMT-57"/>
      </defs>
      <g transform="translate(199.545304 144.994886)scale(0.2 -0.2)">
       <use xlink:href="#TimesNewRomanPSMT-49"/>
       <use x="50" xlink:href="#TimesNewRomanPSMT-57"/>
       <use x="100" xlink:href="#TimesNewRomanPSMT-50"/>
      </g>
     </g>
    </g>
    <g id="xtick_5">
     <g id="line2d_5">
      <g>
       <use style="stroke:#000000;stroke-width:0.8;" x="267.114288" xlink:href="#m297cfd419c" y="124.107386"/>
      </g>
     </g>
     <g id="text_5">
      <!-- 256 -->
      <defs>
       <path d="M 43.40625 66.21875 
L 39.59375 57.90625 
L 19.671875 57.90625 
L 15.328125 49.03125 
Q 28.265625 47.125 35.84375 39.40625 
Q 42.328125 32.765625 42.328125 23.78125 
Q 42.328125 18.5625 40.203125 14.109375 
Q 38.09375 9.671875 34.859375 6.546875 
Q 31.640625 3.421875 27.6875 1.515625 
Q 22.078125 -1.171875 16.15625 -1.171875 
Q 10.203125 -1.171875 7.484375 0.84375 
Q 4.78125 2.875 4.78125 5.328125 
Q 4.78125 6.6875 5.90625 7.734375 
Q 7.03125 8.796875 8.734375 8.796875 
Q 10.015625 8.796875 10.96875 8.40625 
Q 11.921875 8.015625 14.203125 6.390625 
Q 17.875 3.859375 21.625 3.859375 
Q 27.34375 3.859375 31.65625 8.171875 
Q 35.984375 12.5 35.984375 18.703125 
Q 35.984375 24.703125 32.125 29.90625 
Q 28.265625 35.109375 21.484375 37.9375 
Q 16.15625 40.140625 6.984375 40.484375 
L 19.671875 66.21875 
z
" id="TimesNewRomanPSMT-53"/>
      </defs>
      <g transform="translate(252.114288 144.994886)scale(0.2 -0.2)">
       <use xlink:href="#TimesNewRomanPSMT-50"/>
       <use x="50" xlink:href="#TimesNewRomanPSMT-53"/>
       <use x="100" xlink:href="#TimesNewRomanPSMT-54"/>
      </g>
     </g>
    </g>
    <g id="text_6">
     <!-- Index -->
     <defs>
      <path d="M 30.859375 1.8125 
L 30.859375 0 
L 2.484375 0 
L 2.484375 1.8125 
L 4.828125 1.8125 
Q 8.9375 1.8125 10.796875 4.203125 
Q 11.96875 5.765625 11.96875 11.71875 
L 11.96875 54.5 
Q 11.96875 59.515625 11.328125 61.140625 
Q 10.84375 62.359375 9.328125 63.234375 
Q 7.171875 64.40625 4.828125 64.40625 
L 2.484375 64.40625 
L 2.484375 66.21875 
L 30.859375 66.21875 
L 30.859375 64.40625 
L 28.46875 64.40625 
Q 24.421875 64.40625 22.5625 62.015625 
Q 21.34375 60.453125 21.34375 54.5 
L 21.34375 11.71875 
Q 21.34375 6.6875 21.96875 5.078125 
Q 22.46875 3.859375 24.03125 2.984375 
Q 26.125 1.8125 28.46875 1.8125 
z
" id="TimesNewRomanPSMT-73"/>
      <path d="M 16.15625 36.578125 
Q 24.03125 46.046875 31.15625 46.046875 
Q 34.8125 46.046875 37.453125 44.21875 
Q 40.09375 42.390625 41.65625 38.1875 
Q 42.71875 35.25 42.71875 29.203125 
L 42.71875 10.109375 
Q 42.71875 5.859375 43.40625 4.34375 
Q 43.953125 3.125 45.140625 2.4375 
Q 46.34375 1.765625 49.5625 1.765625 
L 49.5625 0 
L 27.4375 0 
L 27.4375 1.765625 
L 28.375 1.765625 
Q 31.5 1.765625 32.734375 2.703125 
Q 33.984375 3.65625 34.46875 5.515625 
Q 34.671875 6.25 34.671875 10.109375 
L 34.671875 28.421875 
Q 34.671875 34.515625 33.078125 37.28125 
Q 31.5 40.046875 27.734375 40.046875 
Q 21.921875 40.046875 16.15625 33.6875 
L 16.15625 10.109375 
Q 16.15625 5.5625 16.703125 4.5 
Q 17.390625 3.078125 18.578125 2.421875 
Q 19.78125 1.765625 23.4375 1.765625 
L 23.4375 0 
L 1.3125 0 
L 1.3125 1.765625 
L 2.296875 1.765625 
Q 5.71875 1.765625 6.90625 3.484375 
Q 8.109375 5.21875 8.109375 10.109375 
L 8.109375 26.703125 
Q 8.109375 34.765625 7.734375 36.515625 
Q 7.375 38.28125 6.609375 38.90625 
Q 5.859375 39.546875 4.59375 39.546875 
Q 3.21875 39.546875 1.3125 38.8125 
L 0.59375 40.578125 
L 14.0625 46.046875 
L 16.15625 46.046875 
z
" id="TimesNewRomanPSMT-110"/>
      <path d="M 34.71875 5.03125 
Q 31.453125 1.609375 28.328125 0.109375 
Q 25.203125 -1.375 21.578125 -1.375 
Q 14.265625 -1.375 8.796875 4.75 
Q 3.328125 10.890625 3.328125 20.515625 
Q 3.328125 30.125 9.375 38.109375 
Q 15.4375 46.09375 24.953125 46.09375 
Q 30.859375 46.09375 34.71875 42.328125 
L 34.71875 50.59375 
Q 34.71875 58.25 34.34375 60 
Q 33.984375 61.765625 33.203125 62.390625 
Q 32.421875 63.03125 31.25 63.03125 
Q 29.984375 63.03125 27.875 62.25 
L 27.25 63.96875 
L 40.578125 69.4375 
L 42.78125 69.4375 
L 42.78125 17.71875 
Q 42.78125 9.859375 43.140625 8.125 
Q 43.5 6.390625 44.3125 5.703125 
Q 45.125 5.03125 46.1875 5.03125 
Q 47.515625 5.03125 49.703125 5.859375 
L 50.25 4.15625 
L 36.96875 -1.375 
L 34.71875 -1.375 
z
M 34.71875 8.453125 
L 34.71875 31.5 
Q 34.421875 34.8125 32.953125 37.546875 
Q 31.5 40.28125 29.078125 41.671875 
Q 26.65625 43.0625 24.359375 43.0625 
Q 20.0625 43.0625 16.703125 39.203125 
Q 12.25 34.125 12.25 24.359375 
Q 12.25 14.5 16.546875 9.25 
Q 20.84375 4 26.125 4 
Q 30.5625 4 34.71875 8.453125 
z
" id="TimesNewRomanPSMT-100"/>
      <path d="M 10.640625 27.875 
Q 10.59375 17.921875 15.484375 12.25 
Q 20.359375 6.59375 26.953125 6.59375 
Q 31.34375 6.59375 34.59375 9 
Q 37.84375 11.421875 40.046875 17.28125 
L 41.546875 16.3125 
Q 40.53125 9.625 35.59375 4.125 
Q 30.671875 -1.375 23.25 -1.375 
Q 15.1875 -1.375 9.453125 4.90625 
Q 3.71875 11.1875 3.71875 21.78125 
Q 3.71875 33.25 9.59375 39.671875 
Q 15.484375 46.09375 24.359375 46.09375 
Q 31.890625 46.09375 36.71875 41.140625 
Q 41.546875 36.1875 41.546875 27.875 
z
M 10.640625 30.71875 
L 31.34375 30.71875 
Q 31.109375 35.015625 30.328125 36.765625 
Q 29.109375 39.5 26.6875 41.0625 
Q 24.265625 42.625 21.625 42.625 
Q 17.578125 42.625 14.375 39.46875 
Q 11.1875 36.328125 10.640625 30.71875 
z
" id="TimesNewRomanPSMT-101"/>
      <path d="M 1.3125 44.734375 
L 22.359375 44.734375 
L 22.359375 42.921875 
Q 20.359375 42.921875 19.546875 42.234375 
Q 18.75 41.546875 18.75 40.4375 
Q 18.75 39.265625 20.453125 36.8125 
Q 21 36.03125 22.078125 34.375 
L 25.25 29.296875 
L 28.90625 34.375 
Q 32.421875 39.203125 32.421875 40.484375 
Q 32.421875 41.5 31.59375 42.203125 
Q 30.765625 42.921875 28.90625 42.921875 
L 28.90625 44.734375 
L 44.046875 44.734375 
L 44.046875 42.921875 
Q 41.65625 42.78125 39.890625 41.609375 
Q 37.5 39.9375 33.34375 34.375 
L 27.25 26.21875 
L 38.375 10.203125 
Q 42.484375 4.296875 44.234375 3.09375 
Q 46 1.90625 48.78125 1.765625 
L 48.78125 0 
L 27.6875 0 
L 27.6875 1.765625 
Q 29.890625 1.765625 31.109375 2.734375 
Q 32.03125 3.421875 32.03125 4.546875 
Q 32.03125 5.671875 28.90625 10.203125 
L 22.359375 19.78125 
L 15.1875 10.203125 
Q 11.859375 5.765625 11.859375 4.9375 
Q 11.859375 3.765625 12.953125 2.8125 
Q 14.0625 1.859375 16.265625 1.765625 
L 16.265625 0 
L 1.65625 0 
L 1.65625 1.765625 
Q 3.421875 2 4.734375 2.984375 
Q 6.59375 4.390625 10.984375 10.203125 
L 20.359375 22.65625 
L 11.859375 34.96875 
Q 8.25 40.234375 6.265625 41.578125 
Q 4.296875 42.921875 1.3125 42.921875 
z
" id="TimesNewRomanPSMT-120"/>
     </defs>
     <g transform="translate(138.796875 167.160511)scale(0.2 -0.2)">
      <use xlink:href="#TimesNewRomanPSMT-73"/>
      <use x="33.300781" xlink:href="#TimesNewRomanPSMT-110"/>
      <use x="83.300781" xlink:href="#TimesNewRomanPSMT-100"/>
      <use x="133.300781" xlink:href="#TimesNewRomanPSMT-101"/>
      <use x="177.685547" xlink:href="#TimesNewRomanPSMT-120"/>
     </g>
    </g>
   </g>
   <g id="matplotlib.axis_2">
    <g id="ytick_1">
     <g id="line2d_6">
      <defs>
       <path d="M 0 0 
L -3.5 0 
" id="m19edf6db62" style="stroke:#000000;stroke-width:0.8;"/>
      </defs>
      <g>
       <use style="stroke:#000000;stroke-width:0.8;" x="46.365625" xlink:href="#m19edf6db62" y="118.871023"/>
      </g>
     </g>
     <g id="text_7">
      <!-- 0 -->
      <g transform="translate(29.365625 125.814773)scale(0.2 -0.2)">
       <use xlink:href="#TimesNewRomanPSMT-48"/>
      </g>
     </g>
    </g>
    <g id="ytick_2">
     <g id="line2d_7">
      <g>
       <use style="stroke:#000000;stroke-width:0.8;" x="46.365625" xlink:href="#m19edf6db62" y="14.14375"/>
      </g>
     </g>
     <g id="text_8">
      <!-- 1 -->
      <g transform="translate(29.365625 21.0875)scale(0.2 -0.2)">
       <use xlink:href="#TimesNewRomanPSMT-49"/>
      </g>
     </g>
    </g>
    <g id="text_9">
     <!-- Chip value -->
     <defs>
      <path d="M 60.203125 67.71875 
L 61.71875 45.21875 
L 60.203125 45.21875 
Q 57.171875 55.328125 51.5625 59.765625 
Q 45.953125 64.203125 38.09375 64.203125 
Q 31.5 64.203125 26.171875 60.859375 
Q 20.84375 57.515625 17.796875 50.1875 
Q 14.75 42.875 14.75 31.984375 
Q 14.75 23 17.625 16.40625 
Q 20.515625 9.8125 26.296875 6.296875 
Q 32.078125 2.78125 39.5 2.78125 
Q 45.953125 2.78125 50.875 5.53125 
Q 55.8125 8.296875 61.71875 16.5 
L 63.234375 15.53125 
Q 58.25 6.6875 51.609375 2.578125 
Q 44.96875 -1.515625 35.84375 -1.515625 
Q 19.390625 -1.515625 10.359375 10.6875 
Q 3.609375 19.78125 3.609375 32.078125 
Q 3.609375 42 8.046875 50.296875 
Q 12.5 58.59375 20.28125 63.15625 
Q 28.078125 67.71875 37.3125 67.71875 
Q 44.484375 67.71875 51.46875 64.203125 
Q 53.515625 63.140625 54.390625 63.140625 
Q 55.71875 63.140625 56.6875 64.0625 
Q 57.953125 65.375 58.5 67.71875 
z
" id="TimesNewRomanPSMT-67"/>
      <path d="M 16.265625 69.4375 
L 16.265625 36.71875 
Q 21.6875 42.671875 24.859375 44.359375 
Q 28.03125 46.046875 31.203125 46.046875 
Q 35.015625 46.046875 37.75 43.9375 
Q 40.484375 41.84375 41.796875 37.359375 
Q 42.71875 34.234375 42.71875 25.921875 
L 42.71875 10.109375 
Q 42.71875 5.859375 43.40625 4.296875 
Q 43.890625 3.125 45.0625 2.4375 
Q 46.234375 1.765625 49.359375 1.765625 
L 49.359375 0 
L 27.390625 0 
L 27.390625 1.765625 
L 28.421875 1.765625 
Q 31.546875 1.765625 32.765625 2.703125 
Q 33.984375 3.65625 34.46875 5.515625 
Q 34.625 6.296875 34.625 10.109375 
L 34.625 25.921875 
Q 34.625 33.25 33.859375 35.546875 
Q 33.109375 37.84375 31.4375 38.984375 
Q 29.78125 40.140625 27.4375 40.140625 
Q 25.046875 40.140625 22.453125 38.859375 
Q 19.875 37.59375 16.265625 33.734375 
L 16.265625 10.109375 
Q 16.265625 5.515625 16.765625 4.390625 
Q 17.28125 3.265625 18.671875 2.515625 
Q 20.0625 1.765625 23.484375 1.765625 
L 23.484375 0 
L 1.3125 0 
L 1.3125 1.765625 
Q 4.296875 1.765625 6 2.6875 
Q 6.984375 3.171875 7.5625 4.53125 
Q 8.15625 5.90625 8.15625 10.109375 
L 8.15625 50.59375 
Q 8.15625 58.25 7.78125 60 
Q 7.421875 61.765625 6.65625 62.390625 
Q 5.90625 63.03125 4.640625 63.03125 
Q 3.609375 63.03125 1.3125 62.25 
L 0.640625 63.96875 
L 14.015625 69.4375 
z
" id="TimesNewRomanPSMT-104"/>
      <path d="M 14.5 69.4375 
Q 16.546875 69.4375 17.984375 67.984375 
Q 19.4375 66.546875 19.4375 64.5 
Q 19.4375 62.453125 17.984375 60.984375 
Q 16.546875 59.515625 14.5 59.515625 
Q 12.453125 59.515625 10.984375 60.984375 
Q 9.515625 62.453125 9.515625 64.5 
Q 9.515625 66.546875 10.953125 67.984375 
Q 12.40625 69.4375 14.5 69.4375 
z
M 18.5625 46.046875 
L 18.5625 10.109375 
Q 18.5625 5.90625 19.171875 4.515625 
Q 19.78125 3.125 20.96875 2.4375 
Q 22.171875 1.765625 25.34375 1.765625 
L 25.34375 0 
L 3.609375 0 
L 3.609375 1.765625 
Q 6.890625 1.765625 8 2.390625 
Q 9.125 3.03125 9.78125 4.484375 
Q 10.453125 5.953125 10.453125 10.109375 
L 10.453125 27.34375 
Q 10.453125 34.625 10.015625 36.765625 
Q 9.671875 38.328125 8.9375 38.9375 
Q 8.203125 39.546875 6.9375 39.546875 
Q 5.5625 39.546875 3.609375 38.8125 
L 2.9375 40.578125 
L 16.40625 46.046875 
z
" id="TimesNewRomanPSMT-105"/>
      <path d="M -0.09375 40.28125 
L 13.671875 45.84375 
L 15.53125 45.84375 
L 15.53125 35.40625 
Q 19 41.3125 22.484375 43.671875 
Q 25.984375 46.046875 29.828125 46.046875 
Q 36.578125 46.046875 41.0625 40.765625 
Q 46.578125 34.328125 46.578125 23.96875 
Q 46.578125 12.40625 39.9375 4.828125 
Q 34.46875 -1.375 26.171875 -1.375 
Q 22.5625 -1.375 19.921875 -0.34375 
Q 17.96875 0.390625 15.53125 2.59375 
L 15.53125 -11.03125 
Q 15.53125 -15.625 16.09375 -16.859375 
Q 16.65625 -18.109375 18.046875 -18.84375 
Q 19.4375 -19.578125 23.09375 -19.578125 
L 23.09375 -21.390625 
L -0.34375 -21.390625 
L -0.34375 -19.578125 
L 0.875 -19.578125 
Q 3.5625 -19.625 5.46875 -18.5625 
Q 6.390625 -18.015625 6.90625 -16.8125 
Q 7.421875 -15.625 7.421875 -10.75 
L 7.421875 31.546875 
Q 7.421875 35.890625 7.03125 37.0625 
Q 6.640625 38.234375 5.78125 38.8125 
Q 4.9375 39.40625 3.46875 39.40625 
Q 2.296875 39.40625 0.484375 38.71875 
z
M 15.53125 32.515625 
L 15.53125 15.828125 
Q 15.53125 10.40625 15.96875 8.6875 
Q 16.65625 5.859375 19.3125 3.703125 
Q 21.96875 1.5625 26.03125 1.5625 
Q 30.90625 1.5625 33.9375 5.375 
Q 37.890625 10.359375 37.890625 19.390625 
Q 37.890625 29.640625 33.40625 35.15625 
Q 30.28125 38.96875 25.984375 38.96875 
Q 23.640625 38.96875 21.34375 37.796875 
Q 19.578125 36.921875 15.53125 32.515625 
z
" id="TimesNewRomanPSMT-112"/>
      <path id="TimesNewRomanPSMT-32"/>
      <path d="M 0.828125 44.734375 
L 21.875 44.734375 
L 21.875 42.921875 
L 20.515625 42.921875 
Q 18.609375 42.921875 17.609375 41.984375 
Q 16.609375 41.0625 16.609375 39.5 
Q 16.609375 37.796875 17.625 35.453125 
L 28.03125 10.75 
L 38.484375 36.375 
Q 39.59375 39.109375 39.59375 40.53125 
Q 39.59375 41.21875 39.203125 41.65625 
Q 38.671875 42.390625 37.84375 42.65625 
Q 37.015625 42.921875 34.46875 42.921875 
L 34.46875 44.734375 
L 49.078125 44.734375 
L 49.078125 42.921875 
Q 46.53125 42.71875 45.5625 41.890625 
Q 43.84375 40.4375 42.484375 37.015625 
L 26.609375 -1.375 
L 24.609375 -1.375 
L 8.640625 36.375 
Q 7.5625 39.015625 6.578125 40.15625 
Q 5.609375 41.3125 4.109375 42.09375 
Q 3.265625 42.53125 0.828125 42.921875 
z
" id="TimesNewRomanPSMT-118"/>
      <path d="M 28.46875 6.453125 
Q 21.578125 1.125 19.828125 0.296875 
Q 17.1875 -0.921875 14.203125 -0.921875 
Q 9.578125 -0.921875 6.5625 2.25 
Q 3.5625 5.421875 3.5625 10.59375 
Q 3.5625 13.875 5.03125 16.265625 
Q 7.03125 19.578125 11.984375 22.5 
Q 16.9375 25.4375 28.46875 29.640625 
L 28.46875 31.390625 
Q 28.46875 38.09375 26.34375 40.578125 
Q 24.21875 43.0625 20.171875 43.0625 
Q 17.09375 43.0625 15.28125 41.40625 
Q 13.421875 39.75 13.421875 37.59375 
L 13.53125 34.765625 
Q 13.53125 32.515625 12.375 31.296875 
Q 11.234375 30.078125 9.375 30.078125 
Q 7.5625 30.078125 6.421875 31.34375 
Q 5.28125 32.625 5.28125 34.8125 
Q 5.28125 39.015625 9.578125 42.53125 
Q 13.875 46.046875 21.625 46.046875 
Q 27.59375 46.046875 31.390625 44.046875 
Q 34.28125 42.53125 35.640625 39.3125 
Q 36.53125 37.203125 36.53125 30.71875 
L 36.53125 15.53125 
Q 36.53125 9.125 36.765625 7.6875 
Q 37.015625 6.25 37.578125 5.765625 
Q 38.140625 5.28125 38.875 5.28125 
Q 39.65625 5.28125 40.234375 5.609375 
Q 41.265625 6.25 44.1875 9.1875 
L 44.1875 6.453125 
Q 38.71875 -0.875 33.734375 -0.875 
Q 31.34375 -0.875 29.921875 0.78125 
Q 28.515625 2.4375 28.46875 6.453125 
z
M 28.46875 9.625 
L 28.46875 26.65625 
Q 21.09375 23.734375 18.953125 22.515625 
Q 15.09375 20.359375 13.421875 18.015625 
Q 11.765625 15.671875 11.765625 12.890625 
Q 11.765625 9.375 13.859375 7.046875 
Q 15.96875 4.734375 18.703125 4.734375 
Q 22.40625 4.734375 28.46875 9.625 
z
" id="TimesNewRomanPSMT-97"/>
      <path d="M 18.5 69.4375 
L 18.5 10.109375 
Q 18.5 5.90625 19.109375 4.53125 
Q 19.734375 3.171875 21 2.46875 
Q 22.265625 1.765625 25.734375 1.765625 
L 25.734375 0 
L 3.8125 0 
L 3.8125 1.765625 
Q 6.890625 1.765625 8 2.390625 
Q 9.125 3.03125 9.765625 4.484375 
Q 10.40625 5.953125 10.40625 10.109375 
L 10.40625 50.734375 
Q 10.40625 58.296875 10.0625 60.03125 
Q 9.71875 61.765625 8.953125 62.390625 
Q 8.203125 63.03125 7.03125 63.03125 
Q 5.765625 63.03125 3.8125 62.25 
L 2.984375 63.96875 
L 16.3125 69.4375 
z
" id="TimesNewRomanPSMT-108"/>
      <path d="M 42.328125 44.734375 
L 42.328125 17.625 
Q 42.328125 9.859375 42.6875 8.125 
Q 43.0625 6.390625 43.859375 5.703125 
Q 44.671875 5.03125 45.75 5.03125 
Q 47.265625 5.03125 49.171875 5.859375 
L 49.859375 4.15625 
L 36.46875 -1.375 
L 34.28125 -1.375 
L 34.28125 8.109375 
Q 28.515625 1.859375 25.484375 0.234375 
Q 22.46875 -1.375 19.09375 -1.375 
Q 15.328125 -1.375 12.5625 0.796875 
Q 9.8125 2.984375 8.734375 6.390625 
Q 7.671875 9.8125 7.671875 16.0625 
L 7.671875 36.03125 
Q 7.671875 39.203125 6.984375 40.421875 
Q 6.296875 41.65625 4.953125 42.3125 
Q 3.609375 42.96875 0.09375 42.921875 
L 0.09375 44.734375 
L 15.765625 44.734375 
L 15.765625 14.796875 
Q 15.765625 8.546875 17.9375 6.59375 
Q 20.125 4.640625 23.1875 4.640625 
Q 25.296875 4.640625 27.953125 5.953125 
Q 30.609375 7.28125 34.28125 10.984375 
L 34.28125 36.328125 
Q 34.28125 40.140625 32.890625 41.484375 
Q 31.5 42.828125 27.09375 42.921875 
L 27.09375 44.734375 
z
" id="TimesNewRomanPSMT-117"/>
     </defs>
     <g transform="translate(21.0875 110.112074)rotate(-90)scale(0.2 -0.2)">
      <use xlink:href="#TimesNewRomanPSMT-67"/>
      <use x="66.699219" xlink:href="#TimesNewRomanPSMT-104"/>
      <use x="116.699219" xlink:href="#TimesNewRomanPSMT-105"/>
      <use x="144.482422" xlink:href="#TimesNewRomanPSMT-112"/>
      <use x="194.482422" xlink:href="#TimesNewRomanPSMT-32"/>
      <use x="219.482422" xlink:href="#TimesNewRomanPSMT-118"/>
      <use x="269.482422" xlink:href="#TimesNewRomanPSMT-97"/>
      <use x="313.867188" xlink:href="#TimesNewRomanPSMT-108"/>
      <use x="341.650391" xlink:href="#TimesNewRomanPSMT-117"/>
      <use x="391.650391" xlink:href="#TimesNewRomanPSMT-101"/>
     </g>
    </g>
   </g>
   <g id="line2d_8">
    <defs>
     <path d="M 0 1.5 
C 0.397805 1.5 0.77937 1.341951 1.06066 1.06066 
C 1.341951 0.77937 1.5 0.397805 1.5 0 
C 1.5 -0.397805 1.341951 -0.77937 1.06066 -1.06066 
C 0.77937 -1.341951 0.397805 -1.5 0 -1.5 
C -0.397805 -1.5 -0.77937 -1.341951 -1.06066 -1.06066 
C -1.341951 -0.77937 -1.5 -0.397805 -1.5 0 
C -1.5 0.397805 -1.341951 0.77937 -1.06066 1.06066 
C -0.77937 1.341951 -0.397805 1.5 0 1.5 
z
" id="mf0d1f7c857" style="stroke:#000000;"/>
    </defs>
    <g clip-path="url(#p5f2b9b554c)">
     <use style="stroke:#000000;" x="56.838352" xlink:href="#mf0d1f7c857" y="14.14375"/>
     <use style="stroke:#000000;" x="57.659743" xlink:href="#mf0d1f7c857" y="14.14375"/>
     <use style="stroke:#000000;" x="58.481133" xlink:href="#mf0d1f7c857" y="14.14375"/>
     <use style="stroke:#000000;" x="59.302523" xlink:href="#mf0d1f7c857" y="14.14375"/>
     <use style="stroke:#000000;" x="60.123914" xlink:href="#mf0d1f7c857" y="14.14375"/>
     <use style="stroke:#000000;" x="60.945304" xlink:href="#mf0d1f7c857" y="14.14375"/>
     <use style="stroke:#000000;" x="61.766695" xlink:href="#mf0d1f7c857" y="14.14375"/>
     <use style="stroke:#000000;" x="62.588085" xlink:href="#mf0d1f7c857" y="14.14375"/>
     <use style="stroke:#000000;" x="63.409475" xlink:href="#mf0d1f7c857" y="118.871023"/>
     <use style="stroke:#000000;" x="64.230866" xlink:href="#mf0d1f7c857" y="118.871023"/>
     <use style="stroke:#000000;" x="65.052256" xlink:href="#mf0d1f7c857" y="118.871023"/>
     <use style="stroke:#000000;" x="65.873646" xlink:href="#mf0d1f7c857" y="118.871023"/>
     <use style="stroke:#000000;" x="66.695037" xlink:href="#mf0d1f7c857" y="118.871023"/>
     <use style="stroke:#000000;" x="67.516427" xlink:href="#mf0d1f7c857" y="118.871023"/>
     <use style="stroke:#000000;" x="68.337818" xlink:href="#mf0d1f7c857" y="118.871023"/>
     <use style="stroke:#000000;" x="69.159208" xlink:href="#mf0d1f7c857" y="118.871023"/>
     <use style="stroke:#000000;" x="69.980598" xlink:href="#mf0d1f7c857" y="118.871023"/>
     <use style="stroke:#000000;" x="70.801989" xlink:href="#mf0d1f7c857" y="118.871023"/>
     <use style="stroke:#000000;" x="71.623379" xlink:href="#mf0d1f7c857" y="118.871023"/>
     <use style="stroke:#000000;" x="72.444769" xlink:href="#mf0d1f7c857" y="118.871023"/>
     <use style="stroke:#000000;" x="73.26616" xlink:href="#mf0d1f7c857" y="118.871023"/>
     <use style="stroke:#000000;" x="74.08755" xlink:href="#mf0d1f7c857" y="118.871023"/>
     <use style="stroke:#000000;" x="74.908941" xlink:href="#mf0d1f7c857" y="118.871023"/>
     <use style="stroke:#000000;" x="75.730331" xlink:href="#mf0d1f7c857" y="118.871023"/>
     <use style="stroke:#000000;" x="76.551721" xlink:href="#mf0d1f7c857" y="118.871023"/>
     <use style="stroke:#000000;" x="77.373112" xlink:href="#mf0d1f7c857" y="118.871023"/>
     <use style="stroke:#000000;" x="78.194502" xlink:href="#mf0d1f7c857" y="118.871023"/>
     <use style="stroke:#000000;" x="79.015892" xlink:href="#mf0d1f7c857" y="118.871023"/>
     <use style="stroke:#000000;" x="79.837283" xlink:href="#mf0d1f7c857" y="118.871023"/>
     <use style="stroke:#000000;" x="80.658673" xlink:href="#mf0d1f7c857" y="118.871023"/>
     <use style="stroke:#000000;" x="81.480064" xlink:href="#mf0d1f7c857" y="118.871023"/>
     <use style="stroke:#000000;" x="82.301454" xlink:href="#mf0d1f7c857" y="118.871023"/>
     <use style="stroke:#000000;" x="83.122844" xlink:href="#mf0d1f7c857" y="118.871023"/>
     <use style="stroke:#000000;" x="83.944235" xlink:href="#mf0d1f7c857" y="118.871023"/>
     <use style="stroke:#000000;" x="84.765625" xlink:href="#mf0d1f7c857" y="118.871023"/>
     <use style="stroke:#000000;" x="85.587015" xlink:href="#mf0d1f7c857" y="118.871023"/>
     <use style="stroke:#000000;" x="86.408406" xlink:href="#mf0d1f7c857" y="118.871023"/>
     <use style="stroke:#000000;" x="87.229796" xlink:href="#mf0d1f7c857" y="118.871023"/>
     <use style="stroke:#000000;" x="88.051186" xlink:href="#mf0d1f7c857" y="118.871023"/>
     <use style="stroke:#000000;" x="88.872577" xlink:href="#mf0d1f7c857" y="118.871023"/>
     <use style="stroke:#000000;" x="89.693967" xlink:href="#mf0d1f7c857" y="118.871023"/>
     <use style="stroke:#000000;" x="90.515358" xlink:href="#mf0d1f7c857" y="118.871023"/>
     <use style="stroke:#000000;" x="91.336748" xlink:href="#mf0d1f7c857" y="118.871023"/>
     <use style="stroke:#000000;" x="92.158138" xlink:href="#mf0d1f7c857" y="118.871023"/>
     <use style="stroke:#000000;" x="92.979529" xlink:href="#mf0d1f7c857" y="118.871023"/>
     <use style="stroke:#000000;" x="93.800919" xlink:href="#mf0d1f7c857" y="118.871023"/>
     <use style="stroke:#000000;" x="94.622309" xlink:href="#mf0d1f7c857" y="118.871023"/>
     <use style="stroke:#000000;" x="95.4437" xlink:href="#mf0d1f7c857" y="118.871023"/>
     <use style="stroke:#000000;" x="96.26509" xlink:href="#mf0d1f7c857" y="118.871023"/>
     <use style="stroke:#000000;" x="97.086481" xlink:href="#mf0d1f7c857" y="118.871023"/>
     <use style="stroke:#000000;" x="97.907871" xlink:href="#mf0d1f7c857" y="118.871023"/>
     <use style="stroke:#000000;" x="98.729261" xlink:href="#mf0d1f7c857" y="118.871023"/>
     <use style="stroke:#000000;" x="99.550652" xlink:href="#mf0d1f7c857" y="118.871023"/>
     <use style="stroke:#000000;" x="100.372042" xlink:href="#mf0d1f7c857" y="118.871023"/>
     <use style="stroke:#000000;" x="101.193432" xlink:href="#mf0d1f7c857" y="118.871023"/>
     <use style="stroke:#000000;" x="102.014823" xlink:href="#mf0d1f7c857" y="118.871023"/>
     <use style="stroke:#000000;" x="102.836213" xlink:href="#mf0d1f7c857" y="118.871023"/>
     <use style="stroke:#000000;" x="103.657604" xlink:href="#mf0d1f7c857" y="118.871023"/>
     <use style="stroke:#000000;" x="104.478994" xlink:href="#mf0d1f7c857" y="118.871023"/>
     <use style="stroke:#000000;" x="105.300384" xlink:href="#mf0d1f7c857" y="118.871023"/>
     <use style="stroke:#000000;" x="106.121775" xlink:href="#mf0d1f7c857" y="118.871023"/>
     <use style="stroke:#000000;" x="106.943165" xlink:href="#mf0d1f7c857" y="118.871023"/>
     <use style="stroke:#000000;" x="107.764555" xlink:href="#mf0d1f7c857" y="118.871023"/>
     <use style="stroke:#000000;" x="108.585946" xlink:href="#mf0d1f7c857" y="118.871023"/>
     <use style="stroke:#000000;" x="109.407336" xlink:href="#mf0d1f7c857" y="118.871023"/>
     <use style="stroke:#000000;" x="110.228727" xlink:href="#mf0d1f7c857" y="118.871023"/>
     <use style="stroke:#000000;" x="111.050117" xlink:href="#mf0d1f7c857" y="118.871023"/>
     <use style="stroke:#000000;" x="111.871507" xlink:href="#mf0d1f7c857" y="118.871023"/>
     <use style="stroke:#000000;" x="112.692898" xlink:href="#mf0d1f7c857" y="118.871023"/>
     <use style="stroke:#000000;" x="113.514288" xlink:href="#mf0d1f7c857" y="118.871023"/>
     <use style="stroke:#000000;" x="114.335678" xlink:href="#mf0d1f7c857" y="118.871023"/>
     <use style="stroke:#000000;" x="115.157069" xlink:href="#mf0d1f7c857" y="118.871023"/>
     <use style="stroke:#000000;" x="115.978459" xlink:href="#mf0d1f7c857" y="118.871023"/>
     <use style="stroke:#000000;" x="116.79985" xlink:href="#mf0d1f7c857" y="118.871023"/>
     <use style="stroke:#000000;" x="117.62124" xlink:href="#mf0d1f7c857" y="118.871023"/>
     <use style="stroke:#000000;" x="118.44263" xlink:href="#mf0d1f7c857" y="118.871023"/>
     <use style="stroke:#000000;" x="119.264021" xlink:href="#mf0d1f7c857" y="118.871023"/>
     <use style="stroke:#000000;" x="120.085411" xlink:href="#mf0d1f7c857" y="118.871023"/>
     <use style="stroke:#000000;" x="120.906801" xlink:href="#mf0d1f7c857" y="118.871023"/>
     <use style="stroke:#000000;" x="121.728192" xlink:href="#mf0d1f7c857" y="118.871023"/>
     <use style="stroke:#000000;" x="122.549582" xlink:href="#mf0d1f7c857" y="118.871023"/>
     <use style="stroke:#000000;" x="123.370973" xlink:href="#mf0d1f7c857" y="118.871023"/>
     <use style="stroke:#000000;" x="124.192363" xlink:href="#mf0d1f7c857" y="118.871023"/>
     <use style="stroke:#000000;" x="125.013753" xlink:href="#mf0d1f7c857" y="118.871023"/>
     <use style="stroke:#000000;" x="125.835144" xlink:href="#mf0d1f7c857" y="118.871023"/>
     <use style="stroke:#000000;" x="126.656534" xlink:href="#mf0d1f7c857" y="118.871023"/>
     <use style="stroke:#000000;" x="127.477924" xlink:href="#mf0d1f7c857" y="118.871023"/>
     <use style="stroke:#000000;" x="128.299315" xlink:href="#mf0d1f7c857" y="118.871023"/>
     <use style="stroke:#000000;" x="129.120705" xlink:href="#mf0d1f7c857" y="118.871023"/>
     <use style="stroke:#000000;" x="129.942096" xlink:href="#mf0d1f7c857" y="118.871023"/>
     <use style="stroke:#000000;" x="130.763486" xlink:href="#mf0d1f7c857" y="118.871023"/>
     <use style="stroke:#000000;" x="131.584876" xlink:href="#mf0d1f7c857" y="118.871023"/>
     <use style="stroke:#000000;" x="132.406267" xlink:href="#mf0d1f7c857" y="118.871023"/>
     <use style="stroke:#000000;" x="133.227657" xlink:href="#mf0d1f7c857" y="118.871023"/>
     <use style="stroke:#000000;" x="134.049047" xlink:href="#mf0d1f7c857" y="118.871023"/>
     <use style="stroke:#000000;" x="134.870438" xlink:href="#mf0d1f7c857" y="118.871023"/>
     <use style="stroke:#000000;" x="135.691828" xlink:href="#mf0d1f7c857" y="118.871023"/>
     <use style="stroke:#000000;" x="136.513219" xlink:href="#mf0d1f7c857" y="118.871023"/>
     <use style="stroke:#000000;" x="137.334609" xlink:href="#mf0d1f7c857" y="118.871023"/>
     <use style="stroke:#000000;" x="138.155999" xlink:href="#mf0d1f7c857" y="118.871023"/>
     <use style="stroke:#000000;" x="138.97739" xlink:href="#mf0d1f7c857" y="118.871023"/>
     <use style="stroke:#000000;" x="139.79878" xlink:href="#mf0d1f7c857" y="118.871023"/>
     <use style="stroke:#000000;" x="140.62017" xlink:href="#mf0d1f7c857" y="118.871023"/>
     <use style="stroke:#000000;" x="141.441561" xlink:href="#mf0d1f7c857" y="118.871023"/>
     <use style="stroke:#000000;" x="142.262951" xlink:href="#mf0d1f7c857" y="118.871023"/>
     <use style="stroke:#000000;" x="143.084342" xlink:href="#mf0d1f7c857" y="118.871023"/>
     <use style="stroke:#000000;" x="143.905732" xlink:href="#mf0d1f7c857" y="118.871023"/>
     <use style="stroke:#000000;" x="144.727122" xlink:href="#mf0d1f7c857" y="118.871023"/>
     <use style="stroke:#000000;" x="145.548513" xlink:href="#mf0d1f7c857" y="118.871023"/>
     <use style="stroke:#000000;" x="146.369903" xlink:href="#mf0d1f7c857" y="118.871023"/>
     <use style="stroke:#000000;" x="147.191293" xlink:href="#mf0d1f7c857" y="118.871023"/>
     <use style="stroke:#000000;" x="148.012684" xlink:href="#mf0d1f7c857" y="118.871023"/>
     <use style="stroke:#000000;" x="148.834074" xlink:href="#mf0d1f7c857" y="118.871023"/>
     <use style="stroke:#000000;" x="149.655465" xlink:href="#mf0d1f7c857" y="118.871023"/>
     <use style="stroke:#000000;" x="150.476855" xlink:href="#mf0d1f7c857" y="14.14375"/>
     <use style="stroke:#000000;" x="151.298245" xlink:href="#mf0d1f7c857" y="118.871023"/>
     <use style="stroke:#000000;" x="152.119636" xlink:href="#mf0d1f7c857" y="118.871023"/>
     <use style="stroke:#000000;" x="152.941026" xlink:href="#mf0d1f7c857" y="118.871023"/>
     <use style="stroke:#000000;" x="153.762416" xlink:href="#mf0d1f7c857" y="118.871023"/>
     <use style="stroke:#000000;" x="154.583807" xlink:href="#mf0d1f7c857" y="118.871023"/>
     <use style="stroke:#000000;" x="155.405197" xlink:href="#mf0d1f7c857" y="118.871023"/>
     <use style="stroke:#000000;" x="156.226588" xlink:href="#mf0d1f7c857" y="118.871023"/>
     <use style="stroke:#000000;" x="157.047978" xlink:href="#mf0d1f7c857" y="118.871023"/>
     <use style="stroke:#000000;" x="157.869368" xlink:href="#mf0d1f7c857" y="118.871023"/>
     <use style="stroke:#000000;" x="158.690759" xlink:href="#mf0d1f7c857" y="118.871023"/>
     <use style="stroke:#000000;" x="159.512149" xlink:href="#mf0d1f7c857" y="118.871023"/>
     <use style="stroke:#000000;" x="160.333539" xlink:href="#mf0d1f7c857" y="118.871023"/>
     <use style="stroke:#000000;" x="161.15493" xlink:href="#mf0d1f7c857" y="118.871023"/>
     <use style="stroke:#000000;" x="161.97632" xlink:href="#mf0d1f7c857" y="14.14375"/>
     <use style="stroke:#000000;" x="162.797711" xlink:href="#mf0d1f7c857" y="118.871023"/>
     <use style="stroke:#000000;" x="163.619101" xlink:href="#mf0d1f7c857" y="14.14375"/>
     <use style="stroke:#000000;" x="164.440491" xlink:href="#mf0d1f7c857" y="118.871023"/>
     <use style="stroke:#000000;" x="165.261882" xlink:href="#mf0d1f7c857" y="118.871023"/>
     <use style="stroke:#000000;" x="166.083272" xlink:href="#mf0d1f7c857" y="14.14375"/>
     <use style="stroke:#000000;" x="166.904662" xlink:href="#mf0d1f7c857" y="14.14375"/>
     <use style="stroke:#000000;" x="167.726053" xlink:href="#mf0d1f7c857" y="118.871023"/>
     <use style="stroke:#000000;" x="168.547443" xlink:href="#mf0d1f7c857" y="14.14375"/>
     <use style="stroke:#000000;" x="169.368834" xlink:href="#mf0d1f7c857" y="118.871023"/>
     <use style="stroke:#000000;" x="170.190224" xlink:href="#mf0d1f7c857" y="14.14375"/>
     <use style="stroke:#000000;" x="171.011614" xlink:href="#mf0d1f7c857" y="118.871023"/>
     <use style="stroke:#000000;" x="171.833005" xlink:href="#mf0d1f7c857" y="14.14375"/>
     <use style="stroke:#000000;" x="172.654395" xlink:href="#mf0d1f7c857" y="118.871023"/>
     <use style="stroke:#000000;" x="173.475785" xlink:href="#mf0d1f7c857" y="14.14375"/>
     <use style="stroke:#000000;" x="174.297176" xlink:href="#mf0d1f7c857" y="14.14375"/>
     <use style="stroke:#000000;" x="175.118566" xlink:href="#mf0d1f7c857" y="14.14375"/>
     <use style="stroke:#000000;" x="175.939957" xlink:href="#mf0d1f7c857" y="14.14375"/>
     <use style="stroke:#000000;" x="176.761347" xlink:href="#mf0d1f7c857" y="14.14375"/>
     <use style="stroke:#000000;" x="177.582737" xlink:href="#mf0d1f7c857" y="118.871023"/>
     <use style="stroke:#000000;" x="178.404128" xlink:href="#mf0d1f7c857" y="14.14375"/>
     <use style="stroke:#000000;" x="179.225518" xlink:href="#mf0d1f7c857" y="14.14375"/>
     <use style="stroke:#000000;" x="180.046908" xlink:href="#mf0d1f7c857" y="14.14375"/>
     <use style="stroke:#000000;" x="180.868299" xlink:href="#mf0d1f7c857" y="14.14375"/>
     <use style="stroke:#000000;" x="181.689689" xlink:href="#mf0d1f7c857" y="14.14375"/>
     <use style="stroke:#000000;" x="182.51108" xlink:href="#mf0d1f7c857" y="14.14375"/>
     <use style="stroke:#000000;" x="183.33247" xlink:href="#mf0d1f7c857" y="14.14375"/>
     <use style="stroke:#000000;" x="184.15386" xlink:href="#mf0d1f7c857" y="14.14375"/>
     <use style="stroke:#000000;" x="184.975251" xlink:href="#mf0d1f7c857" y="14.14375"/>
     <use style="stroke:#000000;" x="185.796641" xlink:href="#mf0d1f7c857" y="14.14375"/>
     <use style="stroke:#000000;" x="186.618031" xlink:href="#mf0d1f7c857" y="14.14375"/>
     <use style="stroke:#000000;" x="187.439422" xlink:href="#mf0d1f7c857" y="14.14375"/>
     <use style="stroke:#000000;" x="188.260812" xlink:href="#mf0d1f7c857" y="14.14375"/>
     <use style="stroke:#000000;" x="189.082203" xlink:href="#mf0d1f7c857" y="14.14375"/>
     <use style="stroke:#000000;" x="189.903593" xlink:href="#mf0d1f7c857" y="14.14375"/>
     <use style="stroke:#000000;" x="190.724983" xlink:href="#mf0d1f7c857" y="14.14375"/>
     <use style="stroke:#000000;" x="191.546374" xlink:href="#mf0d1f7c857" y="14.14375"/>
     <use style="stroke:#000000;" x="192.367764" xlink:href="#mf0d1f7c857" y="14.14375"/>
     <use style="stroke:#000000;" x="193.189154" xlink:href="#mf0d1f7c857" y="14.14375"/>
     <use style="stroke:#000000;" x="194.010545" xlink:href="#mf0d1f7c857" y="14.14375"/>
     <use style="stroke:#000000;" x="194.831935" xlink:href="#mf0d1f7c857" y="14.14375"/>
     <use style="stroke:#000000;" x="195.653326" xlink:href="#mf0d1f7c857" y="14.14375"/>
     <use style="stroke:#000000;" x="196.474716" xlink:href="#mf0d1f7c857" y="14.14375"/>
     <use style="stroke:#000000;" x="197.296106" xlink:href="#mf0d1f7c857" y="14.14375"/>
     <use style="stroke:#000000;" x="198.117497" xlink:href="#mf0d1f7c857" y="14.14375"/>
     <use style="stroke:#000000;" x="198.938887" xlink:href="#mf0d1f7c857" y="14.14375"/>
     <use style="stroke:#000000;" x="199.760277" xlink:href="#mf0d1f7c857" y="14.14375"/>
     <use style="stroke:#000000;" x="200.581668" xlink:href="#mf0d1f7c857" y="14.14375"/>
     <use style="stroke:#000000;" x="201.403058" xlink:href="#mf0d1f7c857" y="14.14375"/>
     <use style="stroke:#000000;" x="202.224449" xlink:href="#mf0d1f7c857" y="14.14375"/>
     <use style="stroke:#000000;" x="203.045839" xlink:href="#mf0d1f7c857" y="14.14375"/>
     <use style="stroke:#000000;" x="203.867229" xlink:href="#mf0d1f7c857" y="14.14375"/>
     <use style="stroke:#000000;" x="204.68862" xlink:href="#mf0d1f7c857" y="14.14375"/>
     <use style="stroke:#000000;" x="205.51001" xlink:href="#mf0d1f7c857" y="14.14375"/>
     <use style="stroke:#000000;" x="206.3314" xlink:href="#mf0d1f7c857" y="14.14375"/>
     <use style="stroke:#000000;" x="207.152791" xlink:href="#mf0d1f7c857" y="14.14375"/>
     <use style="stroke:#000000;" x="207.974181" xlink:href="#mf0d1f7c857" y="14.14375"/>
     <use style="stroke:#000000;" x="208.795572" xlink:href="#mf0d1f7c857" y="14.14375"/>
     <use style="stroke:#000000;" x="209.616962" xlink:href="#mf0d1f7c857" y="14.14375"/>
     <use style="stroke:#000000;" x="210.438352" xlink:href="#mf0d1f7c857" y="14.14375"/>
     <use style="stroke:#000000;" x="211.259743" xlink:href="#mf0d1f7c857" y="14.14375"/>
     <use style="stroke:#000000;" x="212.081133" xlink:href="#mf0d1f7c857" y="14.14375"/>
     <use style="stroke:#000000;" x="212.902523" xlink:href="#mf0d1f7c857" y="14.14375"/>
     <use style="stroke:#000000;" x="213.723914" xlink:href="#mf0d1f7c857" y="14.14375"/>
     <use style="stroke:#000000;" x="214.545304" xlink:href="#mf0d1f7c857" y="14.14375"/>
     <use style="stroke:#000000;" x="215.366695" xlink:href="#mf0d1f7c857" y="14.14375"/>
     <use style="stroke:#000000;" x="216.188085" xlink:href="#mf0d1f7c857" y="14.14375"/>
     <use style="stroke:#000000;" x="217.009475" xlink:href="#mf0d1f7c857" y="14.14375"/>
     <use style="stroke:#000000;" x="217.830866" xlink:href="#mf0d1f7c857" y="14.14375"/>
     <use style="stroke:#000000;" x="218.652256" xlink:href="#mf0d1f7c857" y="14.14375"/>
     <use style="stroke:#000000;" x="219.473646" xlink:href="#mf0d1f7c857" y="14.14375"/>
     <use style="stroke:#000000;" x="220.295037" xlink:href="#mf0d1f7c857" y="14.14375"/>
     <use style="stroke:#000000;" x="221.116427" xlink:href="#mf0d1f7c857" y="14.14375"/>
     <use style="stroke:#000000;" x="221.937818" xlink:href="#mf0d1f7c857" y="14.14375"/>
     <use style="stroke:#000000;" x="222.759208" xlink:href="#mf0d1f7c857" y="14.14375"/>
     <use style="stroke:#000000;" x="223.580598" xlink:href="#mf0d1f7c857" y="14.14375"/>
     <use style="stroke:#000000;" x="224.401989" xlink:href="#mf0d1f7c857" y="14.14375"/>
     <use style="stroke:#000000;" x="225.223379" xlink:href="#mf0d1f7c857" y="14.14375"/>
     <use style="stroke:#000000;" x="226.044769" xlink:href="#mf0d1f7c857" y="14.14375"/>
     <use style="stroke:#000000;" x="226.86616" xlink:href="#mf0d1f7c857" y="14.14375"/>
     <use style="stroke:#000000;" x="227.68755" xlink:href="#mf0d1f7c857" y="14.14375"/>
     <use style="stroke:#000000;" x="228.508941" xlink:href="#mf0d1f7c857" y="14.14375"/>
     <use style="stroke:#000000;" x="229.330331" xlink:href="#mf0d1f7c857" y="14.14375"/>
     <use style="stroke:#000000;" x="230.151721" xlink:href="#mf0d1f7c857" y="14.14375"/>
     <use style="stroke:#000000;" x="230.973112" xlink:href="#mf0d1f7c857" y="14.14375"/>
     <use style="stroke:#000000;" x="231.794502" xlink:href="#mf0d1f7c857" y="14.14375"/>
     <use style="stroke:#000000;" x="232.615892" xlink:href="#mf0d1f7c857" y="14.14375"/>
     <use style="stroke:#000000;" x="233.437283" xlink:href="#mf0d1f7c857" y="14.14375"/>
     <use style="stroke:#000000;" x="234.258673" xlink:href="#mf0d1f7c857" y="14.14375"/>
     <use style="stroke:#000000;" x="235.080064" xlink:href="#mf0d1f7c857" y="14.14375"/>
     <use style="stroke:#000000;" x="235.901454" xlink:href="#mf0d1f7c857" y="14.14375"/>
     <use style="stroke:#000000;" x="236.722844" xlink:href="#mf0d1f7c857" y="14.14375"/>
     <use style="stroke:#000000;" x="237.544235" xlink:href="#mf0d1f7c857" y="14.14375"/>
     <use style="stroke:#000000;" x="238.365625" xlink:href="#mf0d1f7c857" y="14.14375"/>
     <use style="stroke:#000000;" x="239.187015" xlink:href="#mf0d1f7c857" y="14.14375"/>
     <use style="stroke:#000000;" x="240.008406" xlink:href="#mf0d1f7c857" y="14.14375"/>
     <use style="stroke:#000000;" x="240.829796" xlink:href="#mf0d1f7c857" y="14.14375"/>
     <use style="stroke:#000000;" x="241.651186" xlink:href="#mf0d1f7c857" y="14.14375"/>
     <use style="stroke:#000000;" x="242.472577" xlink:href="#mf0d1f7c857" y="14.14375"/>
     <use style="stroke:#000000;" x="243.293967" xlink:href="#mf0d1f7c857" y="14.14375"/>
     <use style="stroke:#000000;" x="244.115358" xlink:href="#mf0d1f7c857" y="14.14375"/>
     <use style="stroke:#000000;" x="244.936748" xlink:href="#mf0d1f7c857" y="14.14375"/>
     <use style="stroke:#000000;" x="245.758138" xlink:href="#mf0d1f7c857" y="14.14375"/>
     <use style="stroke:#000000;" x="246.579529" xlink:href="#mf0d1f7c857" y="14.14375"/>
     <use style="stroke:#000000;" x="247.400919" xlink:href="#mf0d1f7c857" y="14.14375"/>
     <use style="stroke:#000000;" x="248.222309" xlink:href="#mf0d1f7c857" y="14.14375"/>
     <use style="stroke:#000000;" x="249.0437" xlink:href="#mf0d1f7c857" y="14.14375"/>
     <use style="stroke:#000000;" x="249.86509" xlink:href="#mf0d1f7c857" y="14.14375"/>
     <use style="stroke:#000000;" x="250.686481" xlink:href="#mf0d1f7c857" y="14.14375"/>
     <use style="stroke:#000000;" x="251.507871" xlink:href="#mf0d1f7c857" y="14.14375"/>
     <use style="stroke:#000000;" x="252.329261" xlink:href="#mf0d1f7c857" y="14.14375"/>
     <use style="stroke:#000000;" x="253.150652" xlink:href="#mf0d1f7c857" y="14.14375"/>
     <use style="stroke:#000000;" x="253.972042" xlink:href="#mf0d1f7c857" y="14.14375"/>
     <use style="stroke:#000000;" x="254.793432" xlink:href="#mf0d1f7c857" y="14.14375"/>
     <use style="stroke:#000000;" x="255.614823" xlink:href="#mf0d1f7c857" y="14.14375"/>
     <use style="stroke:#000000;" x="256.436213" xlink:href="#mf0d1f7c857" y="14.14375"/>
     <use style="stroke:#000000;" x="257.257604" xlink:href="#mf0d1f7c857" y="14.14375"/>
     <use style="stroke:#000000;" x="258.078994" xlink:href="#mf0d1f7c857" y="14.14375"/>
     <use style="stroke:#000000;" x="258.900384" xlink:href="#mf0d1f7c857" y="14.14375"/>
     <use style="stroke:#000000;" x="259.721775" xlink:href="#mf0d1f7c857" y="14.14375"/>
     <use style="stroke:#000000;" x="260.543165" xlink:href="#mf0d1f7c857" y="14.14375"/>
     <use style="stroke:#000000;" x="261.364555" xlink:href="#mf0d1f7c857" y="14.14375"/>
     <use style="stroke:#000000;" x="262.185946" xlink:href="#mf0d1f7c857" y="14.14375"/>
     <use style="stroke:#000000;" x="263.007336" xlink:href="#mf0d1f7c857" y="14.14375"/>
     <use style="stroke:#000000;" x="263.828727" xlink:href="#mf0d1f7c857" y="14.14375"/>
     <use style="stroke:#000000;" x="264.650117" xlink:href="#mf0d1f7c857" y="14.14375"/>
     <use style="stroke:#000000;" x="265.471507" xlink:href="#mf0d1f7c857" y="14.14375"/>
     <use style="stroke:#000000;" x="266.292898" xlink:href="#mf0d1f7c857" y="14.14375"/>
    </g>
   </g>
   <g id="patch_3">
    <path d="M 46.365625 124.107386 
L 46.365625 8.907386 
" style="fill:none;stroke:#000000;stroke-linecap:square;stroke-linejoin:miter;stroke-width:0.8;"/>
   </g>
   <g id="patch_4">
    <path d="M 276.765625 124.107386 
L 276.765625 8.907386 
" style="fill:none;stroke:#000000;stroke-linecap:square;stroke-linejoin:miter;stroke-width:0.8;"/>
   </g>
   <g id="patch_5">
    <path d="M 46.365625 124.107386 
L 276.765625 124.107386 
" style="fill:none;stroke:#000000;stroke-linecap:square;stroke-linejoin:miter;stroke-width:0.8;"/>
   </g>
   <g id="patch_6">
    <path d="M 46.365625 8.907386 
L 276.765625 8.907386 
" style="fill:none;stroke:#000000;stroke-linecap:square;stroke-linejoin:miter;stroke-width:0.8;"/>
   </g>
  </g>
 </g>
 <defs>
  <clipPath id="p5f2b9b554c">
   <rect height="115.2" width="230.4" x="46.365625" y="8.907386"/>
  </clipPath>
 </defs>
</svg>
