<?xml version="1.0" encoding="utf-8" standalone="no"?>
<!DOCTYPE svg PUBLIC "-//W3C//DTD SVG 1.1//EN"
  "http://www.w3.org/Graphics/SVG/1.1/DTD/svg11.dtd">
<!-- Created with matplotlib (https://matplotlib.org/) -->
<svg height="176.93125pt" version="1.1" viewBox="0 0 302.407771 176.93125" width="302.407771pt" xmlns="http://www.w3.org/2000/svg" xmlns:xlink="http://www.w3.org/1999/xlink">
 <defs>
  <style type="text/css">
*{stroke-linecap:butt;stroke-linejoin:round;}
  </style>
 </defs>
 <g id="figure_1">
  <g id="patch_1">
   <path d="M 0 176.93125 
L 302.407771 176.93125 
L 302.407771 0 
L 0 0 
z
" style="fill:#ffffff;"/>
  </g>
  <g id="axes_1">
   <g id="patch_2">
    <path d="M 58.63125 122.4 
L 289.03125 122.4 
L 289.03125 7.2 
L 58.63125 7.2 
z
" style="fill:#ffffff;"/>
   </g>
   <g id="matplotlib.axis_1">
    <g id="xtick_1">
     <g id="line2d_1">
      <defs>
       <path d="M 0 0 
L 0 3.5 
" id="m460d0373aa" style="stroke:#000000;stroke-width:0.8;"/>
      </defs>
      <g>
       <use style="stroke:#000000;stroke-width:0.8;" x="69.103977" xlink:href="#m460d0373aa" y="122.4"/>
      </g>
     </g>
     <g id="text_1">
      <!-- 0 -->
      <defs>
       <path d="M 3.609375 32.71875 
Q 3.609375 44.046875 7.03125 52.21875 
Q 10.453125 60.40625 16.109375 64.40625 
Q 20.515625 67.578125 25.203125 67.578125 
Q 32.8125 67.578125 38.875 59.8125 
Q 46.4375 50.203125 46.4375 33.734375 
Q 46.4375 22.21875 43.109375 14.15625 
Q 39.796875 6.109375 34.640625 2.46875 
Q 29.5 -1.171875 24.703125 -1.171875 
Q 15.234375 -1.171875 8.9375 10.015625 
Q 3.609375 19.4375 3.609375 32.71875 
z
M 13.1875 31.5 
Q 13.1875 17.828125 16.546875 9.1875 
Q 19.34375 1.90625 24.859375 1.90625 
Q 27.484375 1.90625 30.3125 4.265625 
Q 33.15625 6.640625 34.625 12.203125 
Q 36.859375 20.609375 36.859375 35.890625 
Q 36.859375 47.21875 34.515625 54.78125 
Q 32.765625 60.40625 29.984375 62.75 
Q 27.984375 64.359375 25.140625 64.359375 
Q 21.828125 64.359375 19.234375 61.375 
Q 15.71875 57.328125 14.453125 48.625 
Q 13.1875 39.9375 13.1875 31.5 
z
" id="TimesNewRomanPSMT-48"/>
      </defs>
      <g transform="translate(64.103977 143.2875)scale(0.2 -0.2)">
       <use xlink:href="#TimesNewRomanPSMT-48"/>
      </g>
     </g>
    </g>
    <g id="xtick_2">
     <g id="line2d_2">
      <g>
       <use style="stroke:#000000;stroke-width:0.8;" x="121.879926" xlink:href="#m460d0373aa" y="122.4"/>
      </g>
     </g>
     <g id="text_2">
      <!-- 32 -->
      <defs>
       <path d="M 5.078125 53.609375 
Q 7.90625 60.296875 12.21875 63.9375 
Q 16.546875 67.578125 23 67.578125 
Q 30.953125 67.578125 35.203125 62.40625 
Q 38.421875 58.546875 38.421875 54.15625 
Q 38.421875 46.921875 29.34375 39.203125 
Q 35.453125 36.8125 38.578125 32.375 
Q 41.703125 27.9375 41.703125 21.921875 
Q 41.703125 13.328125 36.234375 7.03125 
Q 29.109375 -1.171875 15.578125 -1.171875 
Q 8.890625 -1.171875 6.46875 0.484375 
Q 4.046875 2.15625 4.046875 4.046875 
Q 4.046875 5.46875 5.1875 6.546875 
Q 6.34375 7.625 7.953125 7.625 
Q 9.1875 7.625 10.453125 7.234375 
Q 11.28125 6.984375 14.203125 5.4375 
Q 17.140625 3.90625 18.265625 3.609375 
Q 20.0625 3.078125 22.125 3.078125 
Q 27.09375 3.078125 30.78125 6.9375 
Q 34.46875 10.796875 34.46875 16.0625 
Q 34.46875 19.921875 32.765625 23.578125 
Q 31.5 26.3125 29.984375 27.734375 
Q 27.875 29.6875 24.21875 31.265625 
Q 20.5625 32.859375 16.75 32.859375 
L 15.1875 32.859375 
L 15.1875 34.328125 
Q 19.046875 34.8125 22.921875 37.109375 
Q 26.8125 39.40625 28.5625 42.625 
Q 30.328125 45.84375 30.328125 49.703125 
Q 30.328125 54.734375 27.171875 57.828125 
Q 24.03125 60.9375 19.34375 60.9375 
Q 11.765625 60.9375 6.6875 52.828125 
z
" id="TimesNewRomanPSMT-51"/>
       <path d="M 45.84375 12.75 
L 41.21875 0 
L 2.15625 0 
L 2.15625 1.8125 
Q 19.390625 17.53125 26.421875 27.484375 
Q 33.453125 37.453125 33.453125 45.703125 
Q 33.453125 52 29.59375 56.046875 
Q 25.734375 60.109375 20.359375 60.109375 
Q 15.484375 60.109375 11.59375 57.25 
Q 7.71875 54.390625 5.859375 48.875 
L 4.046875 48.875 
Q 5.28125 57.90625 10.328125 62.734375 
Q 15.375 67.578125 22.953125 67.578125 
Q 31 67.578125 36.390625 62.40625 
Q 41.796875 57.234375 41.796875 50.203125 
Q 41.796875 45.171875 39.453125 40.140625 
Q 35.84375 32.234375 27.734375 23.390625 
Q 15.578125 10.109375 12.546875 7.375 
L 29.828125 7.375 
Q 35.109375 7.375 37.234375 7.765625 
Q 39.359375 8.15625 41.0625 9.34375 
Q 42.78125 10.546875 44.046875 12.75 
z
" id="TimesNewRomanPSMT-50"/>
      </defs>
      <g transform="translate(111.879926 143.2875)scale(0.2 -0.2)">
       <use xlink:href="#TimesNewRomanPSMT-51"/>
       <use x="50" xlink:href="#TimesNewRomanPSMT-50"/>
      </g>
     </g>
    </g>
    <g id="xtick_3">
     <g id="line2d_3">
      <g>
       <use style="stroke:#000000;stroke-width:0.8;" x="174.655874" xlink:href="#m460d0373aa" y="122.4"/>
      </g>
     </g>
     <g id="text_3">
      <!-- 64 -->
      <defs>
       <path d="M 44.828125 67.578125 
L 44.828125 65.765625 
Q 38.375 65.140625 34.296875 63.203125 
Q 30.21875 61.28125 26.234375 57.328125 
Q 22.265625 53.375 19.65625 48.515625 
Q 17.046875 43.65625 15.28125 36.96875 
Q 22.3125 41.796875 29.390625 41.796875 
Q 36.1875 41.796875 41.15625 36.328125 
Q 46.140625 30.859375 46.140625 22.265625 
Q 46.140625 13.96875 41.109375 7.125 
Q 35.0625 -1.171875 25.09375 -1.171875 
Q 18.3125 -1.171875 13.578125 3.328125 
Q 4.296875 12.0625 4.296875 25.984375 
Q 4.296875 34.859375 7.859375 42.859375 
Q 11.421875 50.875 18.03125 57.078125 
Q 24.65625 63.28125 30.703125 65.421875 
Q 36.765625 67.578125 42 67.578125 
z
M 14.453125 33.40625 
Q 13.578125 26.8125 13.578125 22.75 
Q 13.578125 18.0625 15.3125 12.5625 
Q 17.046875 7.078125 20.453125 3.859375 
Q 22.953125 1.5625 26.515625 1.5625 
Q 30.765625 1.5625 34.109375 5.5625 
Q 37.453125 9.578125 37.453125 17 
Q 37.453125 25.34375 34.125 31.4375 
Q 30.8125 37.546875 24.703125 37.546875 
Q 22.859375 37.546875 20.734375 36.765625 
Q 18.609375 35.984375 14.453125 33.40625 
z
" id="TimesNewRomanPSMT-54"/>
       <path d="M 46.53125 24.421875 
L 46.53125 17.484375 
L 37.640625 17.484375 
L 37.640625 0 
L 29.59375 0 
L 29.59375 17.484375 
L 1.5625 17.484375 
L 1.5625 23.734375 
L 32.28125 67.578125 
L 37.640625 67.578125 
L 37.640625 24.421875 
z
M 29.59375 24.421875 
L 29.59375 57.28125 
L 6.34375 24.421875 
z
" id="TimesNewRomanPSMT-52"/>
      </defs>
      <g transform="translate(164.655874 143.2875)scale(0.2 -0.2)">
       <use xlink:href="#TimesNewRomanPSMT-54"/>
       <use x="50" xlink:href="#TimesNewRomanPSMT-52"/>
      </g>
     </g>
    </g>
    <g id="xtick_4">
     <g id="line2d_4">
      <g>
       <use style="stroke:#000000;stroke-width:0.8;" x="227.431823" xlink:href="#m460d0373aa" y="122.4"/>
      </g>
     </g>
     <g id="text_4">
      <!-- 96 -->
      <defs>
       <path d="M 5.28125 -1.375 
L 5.28125 0.4375 
Q 11.625 0.53125 17.09375 3.390625 
Q 22.5625 6.25 27.65625 13.375 
Q 32.765625 20.515625 34.765625 29.046875 
Q 27.09375 24.125 20.90625 24.125 
Q 13.921875 24.125 8.9375 29.515625 
Q 3.953125 34.90625 3.953125 43.84375 
Q 3.953125 52.546875 8.9375 59.328125 
Q 14.9375 67.578125 24.609375 67.578125 
Q 32.765625 67.578125 38.578125 60.84375 
Q 45.703125 52.484375 45.703125 40.234375 
Q 45.703125 29.203125 40.28125 19.65625 
Q 34.859375 10.109375 25.203125 3.8125 
Q 17.328125 -1.375 8.0625 -1.375 
z
M 35.546875 32.671875 
Q 36.421875 39.015625 36.421875 42.828125 
Q 36.421875 47.5625 34.8125 53.046875 
Q 33.203125 58.546875 30.25 61.46875 
Q 27.296875 64.40625 23.53125 64.40625 
Q 19.1875 64.40625 15.90625 60.5 
Q 12.640625 56.59375 12.640625 48.875 
Q 12.640625 38.578125 17 32.765625 
Q 20.171875 28.5625 24.8125 28.5625 
Q 27.046875 28.5625 30.125 29.640625 
Q 33.203125 30.71875 35.546875 32.671875 
z
" id="TimesNewRomanPSMT-57"/>
      </defs>
      <g transform="translate(217.431823 143.2875)scale(0.2 -0.2)">
       <use xlink:href="#TimesNewRomanPSMT-57"/>
       <use x="50" xlink:href="#TimesNewRomanPSMT-54"/>
      </g>
     </g>
    </g>
    <g id="xtick_5">
     <g id="line2d_5">
      <g>
       <use style="stroke:#000000;stroke-width:0.8;" x="280.207771" xlink:href="#m460d0373aa" y="122.4"/>
      </g>
     </g>
     <g id="text_5">
      <!-- 128 -->
      <defs>
       <path d="M 11.71875 59.71875 
L 27.828125 67.578125 
L 29.4375 67.578125 
L 29.4375 11.671875 
Q 29.4375 6.109375 29.90625 4.734375 
Q 30.375 3.375 31.828125 2.640625 
Q 33.296875 1.90625 37.796875 1.8125 
L 37.796875 0 
L 12.890625 0 
L 12.890625 1.8125 
Q 17.578125 1.90625 18.9375 2.609375 
Q 20.3125 3.328125 20.84375 4.515625 
Q 21.390625 5.71875 21.390625 11.671875 
L 21.390625 47.40625 
Q 21.390625 54.640625 20.90625 56.6875 
Q 20.5625 58.25 19.65625 58.984375 
Q 18.75 59.71875 17.484375 59.71875 
Q 15.671875 59.71875 12.453125 58.203125 
z
" id="TimesNewRomanPSMT-49"/>
       <path d="M 19.1875 33.34375 
Q 11.328125 39.796875 9.046875 43.703125 
Q 6.78125 47.609375 6.78125 51.8125 
Q 6.78125 58.25 11.765625 62.90625 
Q 16.75 67.578125 25 67.578125 
Q 33.015625 67.578125 37.890625 63.234375 
Q 42.78125 58.890625 42.78125 53.328125 
Q 42.78125 49.609375 40.140625 45.75 
Q 37.5 41.890625 29.15625 36.671875 
Q 37.75 30.03125 40.53125 26.21875 
Q 44.234375 21.234375 44.234375 15.71875 
Q 44.234375 8.734375 38.90625 3.78125 
Q 33.59375 -1.171875 24.953125 -1.171875 
Q 15.53125 -1.171875 10.25 4.734375 
Q 6.0625 9.46875 6.0625 15.09375 
Q 6.0625 19.484375 9.015625 23.796875 
Q 11.96875 28.125 19.1875 33.34375 
z
M 26.859375 38.578125 
Q 32.71875 43.84375 34.28125 46.890625 
Q 35.84375 49.953125 35.84375 53.8125 
Q 35.84375 58.9375 32.953125 61.84375 
Q 30.078125 64.75 25.09375 64.75 
Q 20.125 64.75 17 61.859375 
Q 13.875 58.984375 13.875 55.125 
Q 13.875 52.59375 15.15625 50.046875 
Q 16.453125 47.515625 18.84375 45.21875 
z
M 21.484375 31.5 
Q 17.4375 28.078125 15.484375 24.046875 
Q 13.53125 20.015625 13.53125 15.328125 
Q 13.53125 9.03125 16.96875 5.25 
Q 20.40625 1.46875 25.734375 1.46875 
Q 31 1.46875 34.171875 4.4375 
Q 37.359375 7.421875 37.359375 11.671875 
Q 37.359375 15.1875 35.5 17.96875 
Q 32.03125 23.140625 21.484375 31.5 
z
" id="TimesNewRomanPSMT-56"/>
      </defs>
      <g transform="translate(265.207771 143.2875)scale(0.2 -0.2)">
       <use xlink:href="#TimesNewRomanPSMT-49"/>
       <use x="50" xlink:href="#TimesNewRomanPSMT-50"/>
       <use x="100" xlink:href="#TimesNewRomanPSMT-56"/>
      </g>
     </g>
    </g>
    <g id="text_6">
     <!-- Index -->
     <defs>
      <path d="M 30.859375 1.8125 
L 30.859375 0 
L 2.484375 0 
L 2.484375 1.8125 
L 4.828125 1.8125 
Q 8.9375 1.8125 10.796875 4.203125 
Q 11.96875 5.765625 11.96875 11.71875 
L 11.96875 54.5 
Q 11.96875 59.515625 11.328125 61.140625 
Q 10.84375 62.359375 9.328125 63.234375 
Q 7.171875 64.40625 4.828125 64.40625 
L 2.484375 64.40625 
L 2.484375 66.21875 
L 30.859375 66.21875 
L 30.859375 64.40625 
L 28.46875 64.40625 
Q 24.421875 64.40625 22.5625 62.015625 
Q 21.34375 60.453125 21.34375 54.5 
L 21.34375 11.71875 
Q 21.34375 6.6875 21.96875 5.078125 
Q 22.46875 3.859375 24.03125 2.984375 
Q 26.125 1.8125 28.46875 1.8125 
z
" id="TimesNewRomanPSMT-73"/>
      <path d="M 16.15625 36.578125 
Q 24.03125 46.046875 31.15625 46.046875 
Q 34.8125 46.046875 37.453125 44.21875 
Q 40.09375 42.390625 41.65625 38.1875 
Q 42.71875 35.25 42.71875 29.203125 
L 42.71875 10.109375 
Q 42.71875 5.859375 43.40625 4.34375 
Q 43.953125 3.125 45.140625 2.4375 
Q 46.34375 1.765625 49.5625 1.765625 
L 49.5625 0 
L 27.4375 0 
L 27.4375 1.765625 
L 28.375 1.765625 
Q 31.5 1.765625 32.734375 2.703125 
Q 33.984375 3.65625 34.46875 5.515625 
Q 34.671875 6.25 34.671875 10.109375 
L 34.671875 28.421875 
Q 34.671875 34.515625 33.078125 37.28125 
Q 31.5 40.046875 27.734375 40.046875 
Q 21.921875 40.046875 16.15625 33.6875 
L 16.15625 10.109375 
Q 16.15625 5.5625 16.703125 4.5 
Q 17.390625 3.078125 18.578125 2.421875 
Q 19.78125 1.765625 23.4375 1.765625 
L 23.4375 0 
L 1.3125 0 
L 1.3125 1.765625 
L 2.296875 1.765625 
Q 5.71875 1.765625 6.90625 3.484375 
Q 8.109375 5.21875 8.109375 10.109375 
L 8.109375 26.703125 
Q 8.109375 34.765625 7.734375 36.515625 
Q 7.375 38.28125 6.609375 38.90625 
Q 5.859375 39.546875 4.59375 39.546875 
Q 3.21875 39.546875 1.3125 38.8125 
L 0.59375 40.578125 
L 14.0625 46.046875 
L 16.15625 46.046875 
z
" id="TimesNewRomanPSMT-110"/>
      <path d="M 34.71875 5.03125 
Q 31.453125 1.609375 28.328125 0.109375 
Q 25.203125 -1.375 21.578125 -1.375 
Q 14.265625 -1.375 8.796875 4.75 
Q 3.328125 10.890625 3.328125 20.515625 
Q 3.328125 30.125 9.375 38.109375 
Q 15.4375 46.09375 24.953125 46.09375 
Q 30.859375 46.09375 34.71875 42.328125 
L 34.71875 50.59375 
Q 34.71875 58.25 34.34375 60 
Q 33.984375 61.765625 33.203125 62.390625 
Q 32.421875 63.03125 31.25 63.03125 
Q 29.984375 63.03125 27.875 62.25 
L 27.25 63.96875 
L 40.578125 69.4375 
L 42.78125 69.4375 
L 42.78125 17.71875 
Q 42.78125 9.859375 43.140625 8.125 
Q 43.5 6.390625 44.3125 5.703125 
Q 45.125 5.03125 46.1875 5.03125 
Q 47.515625 5.03125 49.703125 5.859375 
L 50.25 4.15625 
L 36.96875 -1.375 
L 34.71875 -1.375 
z
M 34.71875 8.453125 
L 34.71875 31.5 
Q 34.421875 34.8125 32.953125 37.546875 
Q 31.5 40.28125 29.078125 41.671875 
Q 26.65625 43.0625 24.359375 43.0625 
Q 20.0625 43.0625 16.703125 39.203125 
Q 12.25 34.125 12.25 24.359375 
Q 12.25 14.5 16.546875 9.25 
Q 20.84375 4 26.125 4 
Q 30.5625 4 34.71875 8.453125 
z
" id="TimesNewRomanPSMT-100"/>
      <path d="M 10.640625 27.875 
Q 10.59375 17.921875 15.484375 12.25 
Q 20.359375 6.59375 26.953125 6.59375 
Q 31.34375 6.59375 34.59375 9 
Q 37.84375 11.421875 40.046875 17.28125 
L 41.546875 16.3125 
Q 40.53125 9.625 35.59375 4.125 
Q 30.671875 -1.375 23.25 -1.375 
Q 15.1875 -1.375 9.453125 4.90625 
Q 3.71875 11.1875 3.71875 21.78125 
Q 3.71875 33.25 9.59375 39.671875 
Q 15.484375 46.09375 24.359375 46.09375 
Q 31.890625 46.09375 36.71875 41.140625 
Q 41.546875 36.1875 41.546875 27.875 
z
M 10.640625 30.71875 
L 31.34375 30.71875 
Q 31.109375 35.015625 30.328125 36.765625 
Q 29.109375 39.5 26.6875 41.0625 
Q 24.265625 42.625 21.625 42.625 
Q 17.578125 42.625 14.375 39.46875 
Q 11.1875 36.328125 10.640625 30.71875 
z
" id="TimesNewRomanPSMT-101"/>
      <path d="M 1.3125 44.734375 
L 22.359375 44.734375 
L 22.359375 42.921875 
Q 20.359375 42.921875 19.546875 42.234375 
Q 18.75 41.546875 18.75 40.4375 
Q 18.75 39.265625 20.453125 36.8125 
Q 21 36.03125 22.078125 34.375 
L 25.25 29.296875 
L 28.90625 34.375 
Q 32.421875 39.203125 32.421875 40.484375 
Q 32.421875 41.5 31.59375 42.203125 
Q 30.765625 42.921875 28.90625 42.921875 
L 28.90625 44.734375 
L 44.046875 44.734375 
L 44.046875 42.921875 
Q 41.65625 42.78125 39.890625 41.609375 
Q 37.5 39.9375 33.34375 34.375 
L 27.25 26.21875 
L 38.375 10.203125 
Q 42.484375 4.296875 44.234375 3.09375 
Q 46 1.90625 48.78125 1.765625 
L 48.78125 0 
L 27.6875 0 
L 27.6875 1.765625 
Q 29.890625 1.765625 31.109375 2.734375 
Q 32.03125 3.421875 32.03125 4.546875 
Q 32.03125 5.671875 28.90625 10.203125 
L 22.359375 19.78125 
L 15.1875 10.203125 
Q 11.859375 5.765625 11.859375 4.9375 
Q 11.859375 3.765625 12.953125 2.8125 
Q 14.0625 1.859375 16.265625 1.765625 
L 16.265625 0 
L 1.65625 0 
L 1.65625 1.765625 
Q 3.421875 2 4.734375 2.984375 
Q 6.59375 4.390625 10.984375 10.203125 
L 20.359375 22.65625 
L 11.859375 34.96875 
Q 8.25 40.234375 6.265625 41.578125 
Q 4.296875 42.921875 1.3125 42.921875 
z
" id="TimesNewRomanPSMT-120"/>
     </defs>
     <g transform="translate(151.0625 165.453125)scale(0.2 -0.2)">
      <use xlink:href="#TimesNewRomanPSMT-73"/>
      <use x="33.300781" xlink:href="#TimesNewRomanPSMT-110"/>
      <use x="83.300781" xlink:href="#TimesNewRomanPSMT-100"/>
      <use x="133.300781" xlink:href="#TimesNewRomanPSMT-101"/>
      <use x="177.685547" xlink:href="#TimesNewRomanPSMT-120"/>
     </g>
    </g>
   </g>
   <g id="matplotlib.axis_2">
    <g id="ytick_1">
     <g id="line2d_6">
      <defs>
       <path d="M 0 0 
L -3.5 0 
" id="m8fb7a8be10" style="stroke:#000000;stroke-width:0.8;"/>
      </defs>
      <g>
       <use style="stroke:#000000;stroke-width:0.8;" x="58.63125" xlink:href="#m8fb7a8be10" y="117.163636"/>
      </g>
     </g>
     <g id="text_7">
      <!-- 0.00 -->
      <defs>
       <path d="M 31.78125 66.40625 
Q 24.171875 66.40625 20.328125 58.90625 
Q 16.5 51.421875 16.5 36.375 
Q 16.5 21.390625 20.328125 13.890625 
Q 24.171875 6.390625 31.78125 6.390625 
Q 39.453125 6.390625 43.28125 13.890625 
Q 47.125 21.390625 47.125 36.375 
Q 47.125 51.421875 43.28125 58.90625 
Q 39.453125 66.40625 31.78125 66.40625 
z
M 31.78125 74.21875 
Q 44.046875 74.21875 50.515625 64.515625 
Q 56.984375 54.828125 56.984375 36.375 
Q 56.984375 17.96875 50.515625 8.265625 
Q 44.046875 -1.421875 31.78125 -1.421875 
Q 19.53125 -1.421875 13.0625 8.265625 
Q 6.59375 17.96875 6.59375 36.375 
Q 6.59375 54.828125 13.0625 64.515625 
Q 19.53125 74.21875 31.78125 74.21875 
z
" id="DejaVuSans-48"/>
       <path d="M 10.6875 12.40625 
L 21 12.40625 
L 21 0 
L 10.6875 0 
z
" id="DejaVuSans-46"/>
      </defs>
      <g transform="translate(29.365625 120.962855)scale(0.1 -0.1)">
       <use xlink:href="#DejaVuSans-48"/>
       <use x="63.623047" xlink:href="#DejaVuSans-46"/>
       <use x="95.410156" xlink:href="#DejaVuSans-48"/>
       <use x="159.033203" xlink:href="#DejaVuSans-48"/>
      </g>
     </g>
    </g>
    <g id="ytick_2">
     <g id="line2d_7">
      <g>
       <use style="stroke:#000000;stroke-width:0.8;" x="58.63125" xlink:href="#m8fb7a8be10" y="90.981818"/>
      </g>
     </g>
     <g id="text_8">
      <!-- 0.25 -->
      <defs>
       <path d="M 19.1875 8.296875 
L 53.609375 8.296875 
L 53.609375 0 
L 7.328125 0 
L 7.328125 8.296875 
Q 12.9375 14.109375 22.625 23.890625 
Q 32.328125 33.6875 34.8125 36.53125 
Q 39.546875 41.84375 41.421875 45.53125 
Q 43.3125 49.21875 43.3125 52.78125 
Q 43.3125 58.59375 39.234375 62.25 
Q 35.15625 65.921875 28.609375 65.921875 
Q 23.96875 65.921875 18.8125 64.3125 
Q 13.671875 62.703125 7.8125 59.421875 
L 7.8125 69.390625 
Q 13.765625 71.78125 18.9375 73 
Q 24.125 74.21875 28.421875 74.21875 
Q 39.75 74.21875 46.484375 68.546875 
Q 53.21875 62.890625 53.21875 53.421875 
Q 53.21875 48.921875 51.53125 44.890625 
Q 49.859375 40.875 45.40625 35.40625 
Q 44.1875 33.984375 37.640625 27.21875 
Q 31.109375 20.453125 19.1875 8.296875 
z
" id="DejaVuSans-50"/>
       <path d="M 10.796875 72.90625 
L 49.515625 72.90625 
L 49.515625 64.59375 
L 19.828125 64.59375 
L 19.828125 46.734375 
Q 21.96875 47.46875 24.109375 47.828125 
Q 26.265625 48.1875 28.421875 48.1875 
Q 40.625 48.1875 47.75 41.5 
Q 54.890625 34.8125 54.890625 23.390625 
Q 54.890625 11.625 47.5625 5.09375 
Q 40.234375 -1.421875 26.90625 -1.421875 
Q 22.3125 -1.421875 17.546875 -0.640625 
Q 12.796875 0.140625 7.71875 1.703125 
L 7.71875 11.625 
Q 12.109375 9.234375 16.796875 8.0625 
Q 21.484375 6.890625 26.703125 6.890625 
Q 35.15625 6.890625 40.078125 11.328125 
Q 45.015625 15.765625 45.015625 23.390625 
Q 45.015625 31 40.078125 35.4375 
Q 35.15625 39.890625 26.703125 39.890625 
Q 22.75 39.890625 18.8125 39.015625 
Q 14.890625 38.140625 10.796875 36.28125 
z
" id="DejaVuSans-53"/>
      </defs>
      <g transform="translate(29.365625 94.781037)scale(0.1 -0.1)">
       <use xlink:href="#DejaVuSans-48"/>
       <use x="63.623047" xlink:href="#DejaVuSans-46"/>
       <use x="95.410156" xlink:href="#DejaVuSans-50"/>
       <use x="159.033203" xlink:href="#DejaVuSans-53"/>
      </g>
     </g>
    </g>
    <g id="ytick_3">
     <g id="line2d_8">
      <g>
       <use style="stroke:#000000;stroke-width:0.8;" x="58.63125" xlink:href="#m8fb7a8be10" y="64.8"/>
      </g>
     </g>
     <g id="text_9">
      <!-- 0.50 -->
      <g transform="translate(29.365625 68.599219)scale(0.1 -0.1)">
       <use xlink:href="#DejaVuSans-48"/>
       <use x="63.623047" xlink:href="#DejaVuSans-46"/>
       <use x="95.410156" xlink:href="#DejaVuSans-53"/>
       <use x="159.033203" xlink:href="#DejaVuSans-48"/>
      </g>
     </g>
    </g>
    <g id="ytick_4">
     <g id="line2d_9">
      <g>
       <use style="stroke:#000000;stroke-width:0.8;" x="58.63125" xlink:href="#m8fb7a8be10" y="38.618182"/>
      </g>
     </g>
     <g id="text_10">
      <!-- 0.75 -->
      <defs>
       <path d="M 8.203125 72.90625 
L 55.078125 72.90625 
L 55.078125 68.703125 
L 28.609375 0 
L 18.3125 0 
L 43.21875 64.59375 
L 8.203125 64.59375 
z
" id="DejaVuSans-55"/>
      </defs>
      <g transform="translate(29.365625 42.417401)scale(0.1 -0.1)">
       <use xlink:href="#DejaVuSans-48"/>
       <use x="63.623047" xlink:href="#DejaVuSans-46"/>
       <use x="95.410156" xlink:href="#DejaVuSans-55"/>
       <use x="159.033203" xlink:href="#DejaVuSans-53"/>
      </g>
     </g>
    </g>
    <g id="ytick_5">
     <g id="line2d_10">
      <g>
       <use style="stroke:#000000;stroke-width:0.8;" x="58.63125" xlink:href="#m8fb7a8be10" y="12.436364"/>
      </g>
     </g>
     <g id="text_11">
      <!-- 1.00 -->
      <defs>
       <path d="M 12.40625 8.296875 
L 28.515625 8.296875 
L 28.515625 63.921875 
L 10.984375 60.40625 
L 10.984375 69.390625 
L 28.421875 72.90625 
L 38.28125 72.90625 
L 38.28125 8.296875 
L 54.390625 8.296875 
L 54.390625 0 
L 12.40625 0 
z
" id="DejaVuSans-49"/>
      </defs>
      <g transform="translate(29.365625 16.235582)scale(0.1 -0.1)">
       <use xlink:href="#DejaVuSans-49"/>
       <use x="63.623047" xlink:href="#DejaVuSans-46"/>
       <use x="95.410156" xlink:href="#DejaVuSans-48"/>
       <use x="159.033203" xlink:href="#DejaVuSans-48"/>
      </g>
     </g>
    </g>
    <g id="text_12">
     <!-- Chip value -->
     <defs>
      <path d="M 60.203125 67.71875 
L 61.71875 45.21875 
L 60.203125 45.21875 
Q 57.171875 55.328125 51.5625 59.765625 
Q 45.953125 64.203125 38.09375 64.203125 
Q 31.5 64.203125 26.171875 60.859375 
Q 20.84375 57.515625 17.796875 50.1875 
Q 14.75 42.875 14.75 31.984375 
Q 14.75 23 17.625 16.40625 
Q 20.515625 9.8125 26.296875 6.296875 
Q 32.078125 2.78125 39.5 2.78125 
Q 45.953125 2.78125 50.875 5.53125 
Q 55.8125 8.296875 61.71875 16.5 
L 63.234375 15.53125 
Q 58.25 6.6875 51.609375 2.578125 
Q 44.96875 -1.515625 35.84375 -1.515625 
Q 19.390625 -1.515625 10.359375 10.6875 
Q 3.609375 19.78125 3.609375 32.078125 
Q 3.609375 42 8.046875 50.296875 
Q 12.5 58.59375 20.28125 63.15625 
Q 28.078125 67.71875 37.3125 67.71875 
Q 44.484375 67.71875 51.46875 64.203125 
Q 53.515625 63.140625 54.390625 63.140625 
Q 55.71875 63.140625 56.6875 64.0625 
Q 57.953125 65.375 58.5 67.71875 
z
" id="TimesNewRomanPSMT-67"/>
      <path d="M 16.265625 69.4375 
L 16.265625 36.71875 
Q 21.6875 42.671875 24.859375 44.359375 
Q 28.03125 46.046875 31.203125 46.046875 
Q 35.015625 46.046875 37.75 43.9375 
Q 40.484375 41.84375 41.796875 37.359375 
Q 42.71875 34.234375 42.71875 25.921875 
L 42.71875 10.109375 
Q 42.71875 5.859375 43.40625 4.296875 
Q 43.890625 3.125 45.0625 2.4375 
Q 46.234375 1.765625 49.359375 1.765625 
L 49.359375 0 
L 27.390625 0 
L 27.390625 1.765625 
L 28.421875 1.765625 
Q 31.546875 1.765625 32.765625 2.703125 
Q 33.984375 3.65625 34.46875 5.515625 
Q 34.625 6.296875 34.625 10.109375 
L 34.625 25.921875 
Q 34.625 33.25 33.859375 35.546875 
Q 33.109375 37.84375 31.4375 38.984375 
Q 29.78125 40.140625 27.4375 40.140625 
Q 25.046875 40.140625 22.453125 38.859375 
Q 19.875 37.59375 16.265625 33.734375 
L 16.265625 10.109375 
Q 16.265625 5.515625 16.765625 4.390625 
Q 17.28125 3.265625 18.671875 2.515625 
Q 20.0625 1.765625 23.484375 1.765625 
L 23.484375 0 
L 1.3125 0 
L 1.3125 1.765625 
Q 4.296875 1.765625 6 2.6875 
Q 6.984375 3.171875 7.5625 4.53125 
Q 8.15625 5.90625 8.15625 10.109375 
L 8.15625 50.59375 
Q 8.15625 58.25 7.78125 60 
Q 7.421875 61.765625 6.65625 62.390625 
Q 5.90625 63.03125 4.640625 63.03125 
Q 3.609375 63.03125 1.3125 62.25 
L 0.640625 63.96875 
L 14.015625 69.4375 
z
" id="TimesNewRomanPSMT-104"/>
      <path d="M 14.5 69.4375 
Q 16.546875 69.4375 17.984375 67.984375 
Q 19.4375 66.546875 19.4375 64.5 
Q 19.4375 62.453125 17.984375 60.984375 
Q 16.546875 59.515625 14.5 59.515625 
Q 12.453125 59.515625 10.984375 60.984375 
Q 9.515625 62.453125 9.515625 64.5 
Q 9.515625 66.546875 10.953125 67.984375 
Q 12.40625 69.4375 14.5 69.4375 
z
M 18.5625 46.046875 
L 18.5625 10.109375 
Q 18.5625 5.90625 19.171875 4.515625 
Q 19.78125 3.125 20.96875 2.4375 
Q 22.171875 1.765625 25.34375 1.765625 
L 25.34375 0 
L 3.609375 0 
L 3.609375 1.765625 
Q 6.890625 1.765625 8 2.390625 
Q 9.125 3.03125 9.78125 4.484375 
Q 10.453125 5.953125 10.453125 10.109375 
L 10.453125 27.34375 
Q 10.453125 34.625 10.015625 36.765625 
Q 9.671875 38.328125 8.9375 38.9375 
Q 8.203125 39.546875 6.9375 39.546875 
Q 5.5625 39.546875 3.609375 38.8125 
L 2.9375 40.578125 
L 16.40625 46.046875 
z
" id="TimesNewRomanPSMT-105"/>
      <path d="M -0.09375 40.28125 
L 13.671875 45.84375 
L 15.53125 45.84375 
L 15.53125 35.40625 
Q 19 41.3125 22.484375 43.671875 
Q 25.984375 46.046875 29.828125 46.046875 
Q 36.578125 46.046875 41.0625 40.765625 
Q 46.578125 34.328125 46.578125 23.96875 
Q 46.578125 12.40625 39.9375 4.828125 
Q 34.46875 -1.375 26.171875 -1.375 
Q 22.5625 -1.375 19.921875 -0.34375 
Q 17.96875 0.390625 15.53125 2.59375 
L 15.53125 -11.03125 
Q 15.53125 -15.625 16.09375 -16.859375 
Q 16.65625 -18.109375 18.046875 -18.84375 
Q 19.4375 -19.578125 23.09375 -19.578125 
L 23.09375 -21.390625 
L -0.34375 -21.390625 
L -0.34375 -19.578125 
L 0.875 -19.578125 
Q 3.5625 -19.625 5.46875 -18.5625 
Q 6.390625 -18.015625 6.90625 -16.8125 
Q 7.421875 -15.625 7.421875 -10.75 
L 7.421875 31.546875 
Q 7.421875 35.890625 7.03125 37.0625 
Q 6.640625 38.234375 5.78125 38.8125 
Q 4.9375 39.40625 3.46875 39.40625 
Q 2.296875 39.40625 0.484375 38.71875 
z
M 15.53125 32.515625 
L 15.53125 15.828125 
Q 15.53125 10.40625 15.96875 8.6875 
Q 16.65625 5.859375 19.3125 3.703125 
Q 21.96875 1.5625 26.03125 1.5625 
Q 30.90625 1.5625 33.9375 5.375 
Q 37.890625 10.359375 37.890625 19.390625 
Q 37.890625 29.640625 33.40625 35.15625 
Q 30.28125 38.96875 25.984375 38.96875 
Q 23.640625 38.96875 21.34375 37.796875 
Q 19.578125 36.921875 15.53125 32.515625 
z
" id="TimesNewRomanPSMT-112"/>
      <path id="TimesNewRomanPSMT-32"/>
      <path d="M 0.828125 44.734375 
L 21.875 44.734375 
L 21.875 42.921875 
L 20.515625 42.921875 
Q 18.609375 42.921875 17.609375 41.984375 
Q 16.609375 41.0625 16.609375 39.5 
Q 16.609375 37.796875 17.625 35.453125 
L 28.03125 10.75 
L 38.484375 36.375 
Q 39.59375 39.109375 39.59375 40.53125 
Q 39.59375 41.21875 39.203125 41.65625 
Q 38.671875 42.390625 37.84375 42.65625 
Q 37.015625 42.921875 34.46875 42.921875 
L 34.46875 44.734375 
L 49.078125 44.734375 
L 49.078125 42.921875 
Q 46.53125 42.71875 45.5625 41.890625 
Q 43.84375 40.4375 42.484375 37.015625 
L 26.609375 -1.375 
L 24.609375 -1.375 
L 8.640625 36.375 
Q 7.5625 39.015625 6.578125 40.15625 
Q 5.609375 41.3125 4.109375 42.09375 
Q 3.265625 42.53125 0.828125 42.921875 
z
" id="TimesNewRomanPSMT-118"/>
      <path d="M 28.46875 6.453125 
Q 21.578125 1.125 19.828125 0.296875 
Q 17.1875 -0.921875 14.203125 -0.921875 
Q 9.578125 -0.921875 6.5625 2.25 
Q 3.5625 5.421875 3.5625 10.59375 
Q 3.5625 13.875 5.03125 16.265625 
Q 7.03125 19.578125 11.984375 22.5 
Q 16.9375 25.4375 28.46875 29.640625 
L 28.46875 31.390625 
Q 28.46875 38.09375 26.34375 40.578125 
Q 24.21875 43.0625 20.171875 43.0625 
Q 17.09375 43.0625 15.28125 41.40625 
Q 13.421875 39.75 13.421875 37.59375 
L 13.53125 34.765625 
Q 13.53125 32.515625 12.375 31.296875 
Q 11.234375 30.078125 9.375 30.078125 
Q 7.5625 30.078125 6.421875 31.34375 
Q 5.28125 32.625 5.28125 34.8125 
Q 5.28125 39.015625 9.578125 42.53125 
Q 13.875 46.046875 21.625 46.046875 
Q 27.59375 46.046875 31.390625 44.046875 
Q 34.28125 42.53125 35.640625 39.3125 
Q 36.53125 37.203125 36.53125 30.71875 
L 36.53125 15.53125 
Q 36.53125 9.125 36.765625 7.6875 
Q 37.015625 6.25 37.578125 5.765625 
Q 38.140625 5.28125 38.875 5.28125 
Q 39.65625 5.28125 40.234375 5.609375 
Q 41.265625 6.25 44.1875 9.1875 
L 44.1875 6.453125 
Q 38.71875 -0.875 33.734375 -0.875 
Q 31.34375 -0.875 29.921875 0.78125 
Q 28.515625 2.4375 28.46875 6.453125 
z
M 28.46875 9.625 
L 28.46875 26.65625 
Q 21.09375 23.734375 18.953125 22.515625 
Q 15.09375 20.359375 13.421875 18.015625 
Q 11.765625 15.671875 11.765625 12.890625 
Q 11.765625 9.375 13.859375 7.046875 
Q 15.96875 4.734375 18.703125 4.734375 
Q 22.40625 4.734375 28.46875 9.625 
z
" id="TimesNewRomanPSMT-97"/>
      <path d="M 18.5 69.4375 
L 18.5 10.109375 
Q 18.5 5.90625 19.109375 4.53125 
Q 19.734375 3.171875 21 2.46875 
Q 22.265625 1.765625 25.734375 1.765625 
L 25.734375 0 
L 3.8125 0 
L 3.8125 1.765625 
Q 6.890625 1.765625 8 2.390625 
Q 9.125 3.03125 9.765625 4.484375 
Q 10.40625 5.953125 10.40625 10.109375 
L 10.40625 50.734375 
Q 10.40625 58.296875 10.0625 60.03125 
Q 9.71875 61.765625 8.953125 62.390625 
Q 8.203125 63.03125 7.03125 63.03125 
Q 5.765625 63.03125 3.8125 62.25 
L 2.984375 63.96875 
L 16.3125 69.4375 
z
" id="TimesNewRomanPSMT-108"/>
      <path d="M 42.328125 44.734375 
L 42.328125 17.625 
Q 42.328125 9.859375 42.6875 8.125 
Q 43.0625 6.390625 43.859375 5.703125 
Q 44.671875 5.03125 45.75 5.03125 
Q 47.265625 5.03125 49.171875 5.859375 
L 49.859375 4.15625 
L 36.46875 -1.375 
L 34.28125 -1.375 
L 34.28125 8.109375 
Q 28.515625 1.859375 25.484375 0.234375 
Q 22.46875 -1.375 19.09375 -1.375 
Q 15.328125 -1.375 12.5625 0.796875 
Q 9.8125 2.984375 8.734375 6.390625 
Q 7.671875 9.8125 7.671875 16.0625 
L 7.671875 36.03125 
Q 7.671875 39.203125 6.984375 40.421875 
Q 6.296875 41.65625 4.953125 42.3125 
Q 3.609375 42.96875 0.09375 42.921875 
L 0.09375 44.734375 
L 15.765625 44.734375 
L 15.765625 14.796875 
Q 15.765625 8.546875 17.9375 6.59375 
Q 20.125 4.640625 23.1875 4.640625 
Q 25.296875 4.640625 27.953125 5.953125 
Q 30.609375 7.28125 34.28125 10.984375 
L 34.28125 36.328125 
Q 34.28125 40.140625 32.890625 41.484375 
Q 31.5 42.828125 27.09375 42.921875 
L 27.09375 44.734375 
z
" id="TimesNewRomanPSMT-117"/>
     </defs>
     <g transform="translate(21.0875 108.404687)rotate(-90)scale(0.2 -0.2)">
      <use xlink:href="#TimesNewRomanPSMT-67"/>
      <use x="66.699219" xlink:href="#TimesNewRomanPSMT-104"/>
      <use x="116.699219" xlink:href="#TimesNewRomanPSMT-105"/>
      <use x="144.482422" xlink:href="#TimesNewRomanPSMT-112"/>
      <use x="194.482422" xlink:href="#TimesNewRomanPSMT-32"/>
      <use x="219.482422" xlink:href="#TimesNewRomanPSMT-118"/>
      <use x="269.482422" xlink:href="#TimesNewRomanPSMT-97"/>
      <use x="313.867188" xlink:href="#TimesNewRomanPSMT-108"/>
      <use x="341.650391" xlink:href="#TimesNewRomanPSMT-117"/>
      <use x="391.650391" xlink:href="#TimesNewRomanPSMT-101"/>
     </g>
    </g>
   </g>
   <g id="line2d_11">
    <defs>
     <path d="M 0 1.5 
C 0.397805 1.5 0.77937 1.341951 1.06066 1.06066 
C 1.341951 0.77937 1.5 0.397805 1.5 0 
C 1.5 -0.397805 1.341951 -0.77937 1.06066 -1.06066 
C 0.77937 -1.341951 0.397805 -1.5 0 -1.5 
C -0.397805 -1.5 -0.77937 -1.341951 -1.06066 -1.06066 
C -1.341951 -0.77937 -1.5 -0.397805 -1.5 0 
C -1.5 0.397805 -1.341951 0.77937 -1.06066 1.06066 
C -0.77937 1.341951 -0.397805 1.5 0 1.5 
z
" id="m4d2bc3f5eb" style="stroke:#000000;"/>
    </defs>
    <g clip-path="url(#p9900f92b59)">
     <use style="stroke:#000000;" x="69.103977" xlink:href="#m4d2bc3f5eb" y="12.436364"/>
     <use style="stroke:#000000;" x="70.753226" xlink:href="#m4d2bc3f5eb" y="12.436364"/>
     <use style="stroke:#000000;" x="72.402474" xlink:href="#m4d2bc3f5eb" y="12.436364"/>
     <use style="stroke:#000000;" x="74.051722" xlink:href="#m4d2bc3f5eb" y="12.436364"/>
     <use style="stroke:#000000;" x="75.700971" xlink:href="#m4d2bc3f5eb" y="12.436364"/>
     <use style="stroke:#000000;" x="77.350219" xlink:href="#m4d2bc3f5eb" y="12.436364"/>
     <use style="stroke:#000000;" x="78.999468" xlink:href="#m4d2bc3f5eb" y="12.436364"/>
     <use style="stroke:#000000;" x="80.648716" xlink:href="#m4d2bc3f5eb" y="12.436364"/>
     <use style="stroke:#000000;" x="82.297964" xlink:href="#m4d2bc3f5eb" y="12.436364"/>
     <use style="stroke:#000000;" x="83.947213" xlink:href="#m4d2bc3f5eb" y="12.436364"/>
     <use style="stroke:#000000;" x="85.596461" xlink:href="#m4d2bc3f5eb" y="12.436364"/>
     <use style="stroke:#000000;" x="87.24571" xlink:href="#m4d2bc3f5eb" y="12.436364"/>
     <use style="stroke:#000000;" x="88.894958" xlink:href="#m4d2bc3f5eb" y="12.436364"/>
     <use style="stroke:#000000;" x="90.544206" xlink:href="#m4d2bc3f5eb" y="12.436364"/>
     <use style="stroke:#000000;" x="92.193455" xlink:href="#m4d2bc3f5eb" y="12.436364"/>
     <use style="stroke:#000000;" x="93.842703" xlink:href="#m4d2bc3f5eb" y="117.163636"/>
     <use style="stroke:#000000;" x="95.491952" xlink:href="#m4d2bc3f5eb" y="117.163636"/>
     <use style="stroke:#000000;" x="97.1412" xlink:href="#m4d2bc3f5eb" y="117.163636"/>
     <use style="stroke:#000000;" x="98.790448" xlink:href="#m4d2bc3f5eb" y="117.163636"/>
     <use style="stroke:#000000;" x="100.439697" xlink:href="#m4d2bc3f5eb" y="117.163636"/>
     <use style="stroke:#000000;" x="102.088945" xlink:href="#m4d2bc3f5eb" y="117.163636"/>
     <use style="stroke:#000000;" x="103.738193" xlink:href="#m4d2bc3f5eb" y="117.163636"/>
     <use style="stroke:#000000;" x="105.387442" xlink:href="#m4d2bc3f5eb" y="117.163636"/>
     <use style="stroke:#000000;" x="107.03669" xlink:href="#m4d2bc3f5eb" y="117.163636"/>
     <use style="stroke:#000000;" x="108.685939" xlink:href="#m4d2bc3f5eb" y="117.163636"/>
     <use style="stroke:#000000;" x="110.335187" xlink:href="#m4d2bc3f5eb" y="117.163636"/>
     <use style="stroke:#000000;" x="111.984435" xlink:href="#m4d2bc3f5eb" y="117.163636"/>
     <use style="stroke:#000000;" x="113.633684" xlink:href="#m4d2bc3f5eb" y="117.163636"/>
     <use style="stroke:#000000;" x="115.282932" xlink:href="#m4d2bc3f5eb" y="117.163636"/>
     <use style="stroke:#000000;" x="116.932181" xlink:href="#m4d2bc3f5eb" y="117.163636"/>
     <use style="stroke:#000000;" x="118.581429" xlink:href="#m4d2bc3f5eb" y="117.163636"/>
     <use style="stroke:#000000;" x="120.230677" xlink:href="#m4d2bc3f5eb" y="117.163636"/>
     <use style="stroke:#000000;" x="121.879926" xlink:href="#m4d2bc3f5eb" y="117.163636"/>
     <use style="stroke:#000000;" x="123.529174" xlink:href="#m4d2bc3f5eb" y="117.163636"/>
     <use style="stroke:#000000;" x="125.178423" xlink:href="#m4d2bc3f5eb" y="117.163636"/>
     <use style="stroke:#000000;" x="126.827671" xlink:href="#m4d2bc3f5eb" y="117.163636"/>
     <use style="stroke:#000000;" x="128.476919" xlink:href="#m4d2bc3f5eb" y="117.163636"/>
     <use style="stroke:#000000;" x="130.126168" xlink:href="#m4d2bc3f5eb" y="117.163636"/>
     <use style="stroke:#000000;" x="131.775416" xlink:href="#m4d2bc3f5eb" y="117.163636"/>
     <use style="stroke:#000000;" x="133.424664" xlink:href="#m4d2bc3f5eb" y="117.163636"/>
     <use style="stroke:#000000;" x="135.073913" xlink:href="#m4d2bc3f5eb" y="117.163636"/>
     <use style="stroke:#000000;" x="136.723161" xlink:href="#m4d2bc3f5eb" y="117.163636"/>
     <use style="stroke:#000000;" x="138.37241" xlink:href="#m4d2bc3f5eb" y="117.163636"/>
     <use style="stroke:#000000;" x="140.021658" xlink:href="#m4d2bc3f5eb" y="117.163636"/>
     <use style="stroke:#000000;" x="141.670906" xlink:href="#m4d2bc3f5eb" y="117.163636"/>
     <use style="stroke:#000000;" x="143.320155" xlink:href="#m4d2bc3f5eb" y="117.163636"/>
     <use style="stroke:#000000;" x="144.969403" xlink:href="#m4d2bc3f5eb" y="117.163636"/>
     <use style="stroke:#000000;" x="146.618652" xlink:href="#m4d2bc3f5eb" y="117.163636"/>
     <use style="stroke:#000000;" x="148.2679" xlink:href="#m4d2bc3f5eb" y="117.163636"/>
     <use style="stroke:#000000;" x="149.917148" xlink:href="#m4d2bc3f5eb" y="117.163636"/>
     <use style="stroke:#000000;" x="151.566397" xlink:href="#m4d2bc3f5eb" y="117.163636"/>
     <use style="stroke:#000000;" x="153.215645" xlink:href="#m4d2bc3f5eb" y="117.163636"/>
     <use style="stroke:#000000;" x="154.864894" xlink:href="#m4d2bc3f5eb" y="117.163636"/>
     <use style="stroke:#000000;" x="156.514142" xlink:href="#m4d2bc3f5eb" y="117.163636"/>
     <use style="stroke:#000000;" x="158.16339" xlink:href="#m4d2bc3f5eb" y="117.163636"/>
     <use style="stroke:#000000;" x="159.812639" xlink:href="#m4d2bc3f5eb" y="117.163636"/>
     <use style="stroke:#000000;" x="161.461887" xlink:href="#m4d2bc3f5eb" y="117.163636"/>
     <use style="stroke:#000000;" x="163.111135" xlink:href="#m4d2bc3f5eb" y="117.163636"/>
     <use style="stroke:#000000;" x="164.760384" xlink:href="#m4d2bc3f5eb" y="117.163636"/>
     <use style="stroke:#000000;" x="166.409632" xlink:href="#m4d2bc3f5eb" y="117.163636"/>
     <use style="stroke:#000000;" x="168.058881" xlink:href="#m4d2bc3f5eb" y="117.163636"/>
     <use style="stroke:#000000;" x="169.708129" xlink:href="#m4d2bc3f5eb" y="117.163636"/>
     <use style="stroke:#000000;" x="171.357377" xlink:href="#m4d2bc3f5eb" y="117.163636"/>
     <use style="stroke:#000000;" x="173.006626" xlink:href="#m4d2bc3f5eb" y="117.163636"/>
     <use style="stroke:#000000;" x="174.655874" xlink:href="#m4d2bc3f5eb" y="117.163636"/>
     <use style="stroke:#000000;" x="176.305123" xlink:href="#m4d2bc3f5eb" y="117.163636"/>
     <use style="stroke:#000000;" x="177.954371" xlink:href="#m4d2bc3f5eb" y="117.163636"/>
     <use style="stroke:#000000;" x="179.603619" xlink:href="#m4d2bc3f5eb" y="117.163636"/>
     <use style="stroke:#000000;" x="181.252868" xlink:href="#m4d2bc3f5eb" y="117.163636"/>
     <use style="stroke:#000000;" x="182.902116" xlink:href="#m4d2bc3f5eb" y="117.163636"/>
     <use style="stroke:#000000;" x="184.551365" xlink:href="#m4d2bc3f5eb" y="117.163636"/>
     <use style="stroke:#000000;" x="186.200613" xlink:href="#m4d2bc3f5eb" y="117.163636"/>
     <use style="stroke:#000000;" x="187.849861" xlink:href="#m4d2bc3f5eb" y="117.163636"/>
     <use style="stroke:#000000;" x="189.49911" xlink:href="#m4d2bc3f5eb" y="117.163636"/>
     <use style="stroke:#000000;" x="191.148358" xlink:href="#m4d2bc3f5eb" y="117.163636"/>
     <use style="stroke:#000000;" x="192.797606" xlink:href="#m4d2bc3f5eb" y="117.163636"/>
     <use style="stroke:#000000;" x="194.446855" xlink:href="#m4d2bc3f5eb" y="117.163636"/>
     <use style="stroke:#000000;" x="196.096103" xlink:href="#m4d2bc3f5eb" y="117.163636"/>
     <use style="stroke:#000000;" x="197.745352" xlink:href="#m4d2bc3f5eb" y="117.163636"/>
     <use style="stroke:#000000;" x="199.3946" xlink:href="#m4d2bc3f5eb" y="117.163636"/>
     <use style="stroke:#000000;" x="201.043848" xlink:href="#m4d2bc3f5eb" y="117.163636"/>
     <use style="stroke:#000000;" x="202.693097" xlink:href="#m4d2bc3f5eb" y="12.436364"/>
     <use style="stroke:#000000;" x="204.342345" xlink:href="#m4d2bc3f5eb" y="12.436364"/>
     <use style="stroke:#000000;" x="205.991594" xlink:href="#m4d2bc3f5eb" y="12.436364"/>
     <use style="stroke:#000000;" x="207.640842" xlink:href="#m4d2bc3f5eb" y="12.436364"/>
     <use style="stroke:#000000;" x="209.29009" xlink:href="#m4d2bc3f5eb" y="12.436364"/>
     <use style="stroke:#000000;" x="210.939339" xlink:href="#m4d2bc3f5eb" y="12.436364"/>
     <use style="stroke:#000000;" x="212.588587" xlink:href="#m4d2bc3f5eb" y="12.436364"/>
     <use style="stroke:#000000;" x="214.237836" xlink:href="#m4d2bc3f5eb" y="12.436364"/>
     <use style="stroke:#000000;" x="215.887084" xlink:href="#m4d2bc3f5eb" y="12.436364"/>
     <use style="stroke:#000000;" x="217.536332" xlink:href="#m4d2bc3f5eb" y="12.436364"/>
     <use style="stroke:#000000;" x="219.185581" xlink:href="#m4d2bc3f5eb" y="12.436364"/>
     <use style="stroke:#000000;" x="220.834829" xlink:href="#m4d2bc3f5eb" y="12.436364"/>
     <use style="stroke:#000000;" x="222.484077" xlink:href="#m4d2bc3f5eb" y="12.436364"/>
     <use style="stroke:#000000;" x="224.133326" xlink:href="#m4d2bc3f5eb" y="12.436364"/>
     <use style="stroke:#000000;" x="225.782574" xlink:href="#m4d2bc3f5eb" y="12.436364"/>
     <use style="stroke:#000000;" x="227.431823" xlink:href="#m4d2bc3f5eb" y="12.436364"/>
     <use style="stroke:#000000;" x="229.081071" xlink:href="#m4d2bc3f5eb" y="12.436364"/>
     <use style="stroke:#000000;" x="230.730319" xlink:href="#m4d2bc3f5eb" y="12.436364"/>
     <use style="stroke:#000000;" x="232.379568" xlink:href="#m4d2bc3f5eb" y="12.436364"/>
     <use style="stroke:#000000;" x="234.028816" xlink:href="#m4d2bc3f5eb" y="12.436364"/>
     <use style="stroke:#000000;" x="235.678065" xlink:href="#m4d2bc3f5eb" y="12.436364"/>
     <use style="stroke:#000000;" x="237.327313" xlink:href="#m4d2bc3f5eb" y="12.436364"/>
     <use style="stroke:#000000;" x="238.976561" xlink:href="#m4d2bc3f5eb" y="12.436364"/>
     <use style="stroke:#000000;" x="240.62581" xlink:href="#m4d2bc3f5eb" y="12.436364"/>
     <use style="stroke:#000000;" x="242.275058" xlink:href="#m4d2bc3f5eb" y="12.436364"/>
     <use style="stroke:#000000;" x="243.924307" xlink:href="#m4d2bc3f5eb" y="12.436364"/>
     <use style="stroke:#000000;" x="245.573555" xlink:href="#m4d2bc3f5eb" y="12.436364"/>
     <use style="stroke:#000000;" x="247.222803" xlink:href="#m4d2bc3f5eb" y="12.436364"/>
     <use style="stroke:#000000;" x="248.872052" xlink:href="#m4d2bc3f5eb" y="12.436364"/>
     <use style="stroke:#000000;" x="250.5213" xlink:href="#m4d2bc3f5eb" y="12.436364"/>
     <use style="stroke:#000000;" x="252.170548" xlink:href="#m4d2bc3f5eb" y="12.436364"/>
     <use style="stroke:#000000;" x="253.819797" xlink:href="#m4d2bc3f5eb" y="12.436364"/>
     <use style="stroke:#000000;" x="255.469045" xlink:href="#m4d2bc3f5eb" y="12.436364"/>
     <use style="stroke:#000000;" x="257.118294" xlink:href="#m4d2bc3f5eb" y="12.436364"/>
     <use style="stroke:#000000;" x="258.767542" xlink:href="#m4d2bc3f5eb" y="12.436364"/>
     <use style="stroke:#000000;" x="260.41679" xlink:href="#m4d2bc3f5eb" y="12.436364"/>
     <use style="stroke:#000000;" x="262.066039" xlink:href="#m4d2bc3f5eb" y="12.436364"/>
     <use style="stroke:#000000;" x="263.715287" xlink:href="#m4d2bc3f5eb" y="12.436364"/>
     <use style="stroke:#000000;" x="265.364536" xlink:href="#m4d2bc3f5eb" y="12.436364"/>
     <use style="stroke:#000000;" x="267.013784" xlink:href="#m4d2bc3f5eb" y="12.436364"/>
     <use style="stroke:#000000;" x="268.663032" xlink:href="#m4d2bc3f5eb" y="12.436364"/>
     <use style="stroke:#000000;" x="270.312281" xlink:href="#m4d2bc3f5eb" y="12.436364"/>
     <use style="stroke:#000000;" x="271.961529" xlink:href="#m4d2bc3f5eb" y="12.436364"/>
     <use style="stroke:#000000;" x="273.610778" xlink:href="#m4d2bc3f5eb" y="12.436364"/>
     <use style="stroke:#000000;" x="275.260026" xlink:href="#m4d2bc3f5eb" y="12.436364"/>
     <use style="stroke:#000000;" x="276.909274" xlink:href="#m4d2bc3f5eb" y="12.436364"/>
     <use style="stroke:#000000;" x="278.558523" xlink:href="#m4d2bc3f5eb" y="117.163636"/>
    </g>
   </g>
   <g id="patch_3">
    <path d="M 58.63125 122.4 
L 58.63125 7.2 
" style="fill:none;stroke:#000000;stroke-linecap:square;stroke-linejoin:miter;stroke-width:0.8;"/>
   </g>
   <g id="patch_4">
    <path d="M 289.03125 122.4 
L 289.03125 7.2 
" style="fill:none;stroke:#000000;stroke-linecap:square;stroke-linejoin:miter;stroke-width:0.8;"/>
   </g>
   <g id="patch_5">
    <path d="M 58.63125 122.4 
L 289.03125 122.4 
" style="fill:none;stroke:#000000;stroke-linecap:square;stroke-linejoin:miter;stroke-width:0.8;"/>
   </g>
   <g id="patch_6">
    <path d="M 58.63125 7.2 
L 289.03125 7.2 
" style="fill:none;stroke:#000000;stroke-linecap:square;stroke-linejoin:miter;stroke-width:0.8;"/>
   </g>
  </g>
 </g>
 <defs>
  <clipPath id="p9900f92b59">
   <rect height="115.2" width="230.4" x="58.63125" y="7.2"/>
  </clipPath>
 </defs>
</svg>
