<?xml version="1.0" encoding="utf-8" standalone="no"?>
<!DOCTYPE svg PUBLIC "-//W3C//DTD SVG 1.1//EN"
  "http://www.w3.org/Graphics/SVG/1.1/DTD/svg11.dtd">
<!-- Created with matplotlib (https://matplotlib.org/) -->
<svg height="168.44375pt" version="1.1" viewBox="0 0 304.610937 168.44375" width="304.610937pt" xmlns="http://www.w3.org/2000/svg" xmlns:xlink="http://www.w3.org/1999/xlink">
 <defs>
  <style type="text/css">
*{stroke-linecap:butt;stroke-linejoin:round;}
  </style>
 </defs>
 <g id="figure_1">
  <g id="patch_1">
   <path d="M 0 168.44375 
L 304.610937 168.44375 
L 304.610937 0 
L 0 0 
z
" style="fill:#ffffff;"/>
  </g>
  <g id="axes_1">
   <g id="patch_2">
    <path d="M 67.010938 122.4 
L 297.410937 122.4 
L 297.410937 7.2 
L 67.010938 7.2 
z
" style="fill:#ffffff;"/>
   </g>
   <g id="matplotlib.axis_1">
    <g id="xtick_1">
     <g id="line2d_1">
      <defs>
       <path d="M 0 0 
L 0 3.5 
" id="mbccf5bc7c3" style="stroke:#000000;stroke-width:0.8;"/>
      </defs>
      <g>
       <use style="stroke:#000000;stroke-width:0.8;" x="77.483665" xlink:href="#mbccf5bc7c3" y="122.4"/>
      </g>
     </g>
     <g id="text_1">
      <!-- 0 -->
      <defs>
       <path d="M 31.78125 66.40625 
Q 24.171875 66.40625 20.328125 58.90625 
Q 16.5 51.421875 16.5 36.375 
Q 16.5 21.390625 20.328125 13.890625 
Q 24.171875 6.390625 31.78125 6.390625 
Q 39.453125 6.390625 43.28125 13.890625 
Q 47.125 21.390625 47.125 36.375 
Q 47.125 51.421875 43.28125 58.90625 
Q 39.453125 66.40625 31.78125 66.40625 
z
M 31.78125 74.21875 
Q 44.046875 74.21875 50.515625 64.515625 
Q 56.984375 54.828125 56.984375 36.375 
Q 56.984375 17.96875 50.515625 8.265625 
Q 44.046875 -1.421875 31.78125 -1.421875 
Q 19.53125 -1.421875 13.0625 8.265625 
Q 6.59375 17.96875 6.59375 36.375 
Q 6.59375 54.828125 13.0625 64.515625 
Q 19.53125 74.21875 31.78125 74.21875 
z
" id="DejaVuSans-48"/>
      </defs>
      <g transform="translate(74.302415 136.998437)scale(0.1 -0.1)">
       <use xlink:href="#DejaVuSans-48"/>
      </g>
     </g>
    </g>
    <g id="xtick_2">
     <g id="line2d_2">
      <g>
       <use style="stroke:#000000;stroke-width:0.8;" x="118.432745" xlink:href="#mbccf5bc7c3" y="122.4"/>
      </g>
     </g>
     <g id="text_2">
      <!-- 200 -->
      <defs>
       <path d="M 19.1875 8.296875 
L 53.609375 8.296875 
L 53.609375 0 
L 7.328125 0 
L 7.328125 8.296875 
Q 12.9375 14.109375 22.625 23.890625 
Q 32.328125 33.6875 34.8125 36.53125 
Q 39.546875 41.84375 41.421875 45.53125 
Q 43.3125 49.21875 43.3125 52.78125 
Q 43.3125 58.59375 39.234375 62.25 
Q 35.15625 65.921875 28.609375 65.921875 
Q 23.96875 65.921875 18.8125 64.3125 
Q 13.671875 62.703125 7.8125 59.421875 
L 7.8125 69.390625 
Q 13.765625 71.78125 18.9375 73 
Q 24.125 74.21875 28.421875 74.21875 
Q 39.75 74.21875 46.484375 68.546875 
Q 53.21875 62.890625 53.21875 53.421875 
Q 53.21875 48.921875 51.53125 44.890625 
Q 49.859375 40.875 45.40625 35.40625 
Q 44.1875 33.984375 37.640625 27.21875 
Q 31.109375 20.453125 19.1875 8.296875 
z
" id="DejaVuSans-50"/>
      </defs>
      <g transform="translate(108.888995 136.998437)scale(0.1 -0.1)">
       <use xlink:href="#DejaVuSans-50"/>
       <use x="63.623047" xlink:href="#DejaVuSans-48"/>
       <use x="127.246094" xlink:href="#DejaVuSans-48"/>
      </g>
     </g>
    </g>
    <g id="xtick_3">
     <g id="line2d_3">
      <g>
       <use style="stroke:#000000;stroke-width:0.8;" x="159.381825" xlink:href="#mbccf5bc7c3" y="122.4"/>
      </g>
     </g>
     <g id="text_3">
      <!-- 400 -->
      <defs>
       <path d="M 37.796875 64.3125 
L 12.890625 25.390625 
L 37.796875 25.390625 
z
M 35.203125 72.90625 
L 47.609375 72.90625 
L 47.609375 25.390625 
L 58.015625 25.390625 
L 58.015625 17.1875 
L 47.609375 17.1875 
L 47.609375 0 
L 37.796875 0 
L 37.796875 17.1875 
L 4.890625 17.1875 
L 4.890625 26.703125 
z
" id="DejaVuSans-52"/>
      </defs>
      <g transform="translate(149.838075 136.998437)scale(0.1 -0.1)">
       <use xlink:href="#DejaVuSans-52"/>
       <use x="63.623047" xlink:href="#DejaVuSans-48"/>
       <use x="127.246094" xlink:href="#DejaVuSans-48"/>
      </g>
     </g>
    </g>
    <g id="xtick_4">
     <g id="line2d_4">
      <g>
       <use style="stroke:#000000;stroke-width:0.8;" x="200.330906" xlink:href="#mbccf5bc7c3" y="122.4"/>
      </g>
     </g>
     <g id="text_4">
      <!-- 600 -->
      <defs>
       <path d="M 33.015625 40.375 
Q 26.375 40.375 22.484375 35.828125 
Q 18.609375 31.296875 18.609375 23.390625 
Q 18.609375 15.53125 22.484375 10.953125 
Q 26.375 6.390625 33.015625 6.390625 
Q 39.65625 6.390625 43.53125 10.953125 
Q 47.40625 15.53125 47.40625 23.390625 
Q 47.40625 31.296875 43.53125 35.828125 
Q 39.65625 40.375 33.015625 40.375 
z
M 52.59375 71.296875 
L 52.59375 62.3125 
Q 48.875 64.0625 45.09375 64.984375 
Q 41.3125 65.921875 37.59375 65.921875 
Q 27.828125 65.921875 22.671875 59.328125 
Q 17.53125 52.734375 16.796875 39.40625 
Q 19.671875 43.65625 24.015625 45.921875 
Q 28.375 48.1875 33.59375 48.1875 
Q 44.578125 48.1875 50.953125 41.515625 
Q 57.328125 34.859375 57.328125 23.390625 
Q 57.328125 12.15625 50.6875 5.359375 
Q 44.046875 -1.421875 33.015625 -1.421875 
Q 20.359375 -1.421875 13.671875 8.265625 
Q 6.984375 17.96875 6.984375 36.375 
Q 6.984375 53.65625 15.1875 63.9375 
Q 23.390625 74.21875 37.203125 74.21875 
Q 40.921875 74.21875 44.703125 73.484375 
Q 48.484375 72.75 52.59375 71.296875 
z
" id="DejaVuSans-54"/>
      </defs>
      <g transform="translate(190.787156 136.998437)scale(0.1 -0.1)">
       <use xlink:href="#DejaVuSans-54"/>
       <use x="63.623047" xlink:href="#DejaVuSans-48"/>
       <use x="127.246094" xlink:href="#DejaVuSans-48"/>
      </g>
     </g>
    </g>
    <g id="xtick_5">
     <g id="line2d_5">
      <g>
       <use style="stroke:#000000;stroke-width:0.8;" x="241.279986" xlink:href="#mbccf5bc7c3" y="122.4"/>
      </g>
     </g>
     <g id="text_5">
      <!-- 800 -->
      <defs>
       <path d="M 31.78125 34.625 
Q 24.75 34.625 20.71875 30.859375 
Q 16.703125 27.09375 16.703125 20.515625 
Q 16.703125 13.921875 20.71875 10.15625 
Q 24.75 6.390625 31.78125 6.390625 
Q 38.8125 6.390625 42.859375 10.171875 
Q 46.921875 13.96875 46.921875 20.515625 
Q 46.921875 27.09375 42.890625 30.859375 
Q 38.875 34.625 31.78125 34.625 
z
M 21.921875 38.8125 
Q 15.578125 40.375 12.03125 44.71875 
Q 8.5 49.078125 8.5 55.328125 
Q 8.5 64.0625 14.71875 69.140625 
Q 20.953125 74.21875 31.78125 74.21875 
Q 42.671875 74.21875 48.875 69.140625 
Q 55.078125 64.0625 55.078125 55.328125 
Q 55.078125 49.078125 51.53125 44.71875 
Q 48 40.375 41.703125 38.8125 
Q 48.828125 37.15625 52.796875 32.3125 
Q 56.78125 27.484375 56.78125 20.515625 
Q 56.78125 9.90625 50.3125 4.234375 
Q 43.84375 -1.421875 31.78125 -1.421875 
Q 19.734375 -1.421875 13.25 4.234375 
Q 6.78125 9.90625 6.78125 20.515625 
Q 6.78125 27.484375 10.78125 32.3125 
Q 14.796875 37.15625 21.921875 38.8125 
z
M 18.3125 54.390625 
Q 18.3125 48.734375 21.84375 45.5625 
Q 25.390625 42.390625 31.78125 42.390625 
Q 38.140625 42.390625 41.71875 45.5625 
Q 45.3125 48.734375 45.3125 54.390625 
Q 45.3125 60.0625 41.71875 63.234375 
Q 38.140625 66.40625 31.78125 66.40625 
Q 25.390625 66.40625 21.84375 63.234375 
Q 18.3125 60.0625 18.3125 54.390625 
z
" id="DejaVuSans-56"/>
      </defs>
      <g transform="translate(231.736236 136.998437)scale(0.1 -0.1)">
       <use xlink:href="#DejaVuSans-56"/>
       <use x="63.623047" xlink:href="#DejaVuSans-48"/>
       <use x="127.246094" xlink:href="#DejaVuSans-48"/>
      </g>
     </g>
    </g>
    <g id="xtick_6">
     <g id="line2d_6">
      <g>
       <use style="stroke:#000000;stroke-width:0.8;" x="282.229066" xlink:href="#mbccf5bc7c3" y="122.4"/>
      </g>
     </g>
     <g id="text_6">
      <!-- 1000 -->
      <defs>
       <path d="M 12.40625 8.296875 
L 28.515625 8.296875 
L 28.515625 63.921875 
L 10.984375 60.40625 
L 10.984375 69.390625 
L 28.421875 72.90625 
L 38.28125 72.90625 
L 38.28125 8.296875 
L 54.390625 8.296875 
L 54.390625 0 
L 12.40625 0 
z
" id="DejaVuSans-49"/>
      </defs>
      <g transform="translate(269.504066 136.998437)scale(0.1 -0.1)">
       <use xlink:href="#DejaVuSans-49"/>
       <use x="63.623047" xlink:href="#DejaVuSans-48"/>
       <use x="127.246094" xlink:href="#DejaVuSans-48"/>
       <use x="190.869141" xlink:href="#DejaVuSans-48"/>
      </g>
     </g>
    </g>
    <g id="text_7">
     <!-- Index -->
     <defs>
      <path d="M 30.859375 1.8125 
L 30.859375 0 
L 2.484375 0 
L 2.484375 1.8125 
L 4.828125 1.8125 
Q 8.9375 1.8125 10.796875 4.203125 
Q 11.96875 5.765625 11.96875 11.71875 
L 11.96875 54.5 
Q 11.96875 59.515625 11.328125 61.140625 
Q 10.84375 62.359375 9.328125 63.234375 
Q 7.171875 64.40625 4.828125 64.40625 
L 2.484375 64.40625 
L 2.484375 66.21875 
L 30.859375 66.21875 
L 30.859375 64.40625 
L 28.46875 64.40625 
Q 24.421875 64.40625 22.5625 62.015625 
Q 21.34375 60.453125 21.34375 54.5 
L 21.34375 11.71875 
Q 21.34375 6.6875 21.96875 5.078125 
Q 22.46875 3.859375 24.03125 2.984375 
Q 26.125 1.8125 28.46875 1.8125 
z
" id="TimesNewRomanPSMT-73"/>
      <path d="M 16.15625 36.578125 
Q 24.03125 46.046875 31.15625 46.046875 
Q 34.8125 46.046875 37.453125 44.21875 
Q 40.09375 42.390625 41.65625 38.1875 
Q 42.71875 35.25 42.71875 29.203125 
L 42.71875 10.109375 
Q 42.71875 5.859375 43.40625 4.34375 
Q 43.953125 3.125 45.140625 2.4375 
Q 46.34375 1.765625 49.5625 1.765625 
L 49.5625 0 
L 27.4375 0 
L 27.4375 1.765625 
L 28.375 1.765625 
Q 31.5 1.765625 32.734375 2.703125 
Q 33.984375 3.65625 34.46875 5.515625 
Q 34.671875 6.25 34.671875 10.109375 
L 34.671875 28.421875 
Q 34.671875 34.515625 33.078125 37.28125 
Q 31.5 40.046875 27.734375 40.046875 
Q 21.921875 40.046875 16.15625 33.6875 
L 16.15625 10.109375 
Q 16.15625 5.5625 16.703125 4.5 
Q 17.390625 3.078125 18.578125 2.421875 
Q 19.78125 1.765625 23.4375 1.765625 
L 23.4375 0 
L 1.3125 0 
L 1.3125 1.765625 
L 2.296875 1.765625 
Q 5.71875 1.765625 6.90625 3.484375 
Q 8.109375 5.21875 8.109375 10.109375 
L 8.109375 26.703125 
Q 8.109375 34.765625 7.734375 36.515625 
Q 7.375 38.28125 6.609375 38.90625 
Q 5.859375 39.546875 4.59375 39.546875 
Q 3.21875 39.546875 1.3125 38.8125 
L 0.59375 40.578125 
L 14.0625 46.046875 
L 16.15625 46.046875 
z
" id="TimesNewRomanPSMT-110"/>
      <path d="M 34.71875 5.03125 
Q 31.453125 1.609375 28.328125 0.109375 
Q 25.203125 -1.375 21.578125 -1.375 
Q 14.265625 -1.375 8.796875 4.75 
Q 3.328125 10.890625 3.328125 20.515625 
Q 3.328125 30.125 9.375 38.109375 
Q 15.4375 46.09375 24.953125 46.09375 
Q 30.859375 46.09375 34.71875 42.328125 
L 34.71875 50.59375 
Q 34.71875 58.25 34.34375 60 
Q 33.984375 61.765625 33.203125 62.390625 
Q 32.421875 63.03125 31.25 63.03125 
Q 29.984375 63.03125 27.875 62.25 
L 27.25 63.96875 
L 40.578125 69.4375 
L 42.78125 69.4375 
L 42.78125 17.71875 
Q 42.78125 9.859375 43.140625 8.125 
Q 43.5 6.390625 44.3125 5.703125 
Q 45.125 5.03125 46.1875 5.03125 
Q 47.515625 5.03125 49.703125 5.859375 
L 50.25 4.15625 
L 36.96875 -1.375 
L 34.71875 -1.375 
z
M 34.71875 8.453125 
L 34.71875 31.5 
Q 34.421875 34.8125 32.953125 37.546875 
Q 31.5 40.28125 29.078125 41.671875 
Q 26.65625 43.0625 24.359375 43.0625 
Q 20.0625 43.0625 16.703125 39.203125 
Q 12.25 34.125 12.25 24.359375 
Q 12.25 14.5 16.546875 9.25 
Q 20.84375 4 26.125 4 
Q 30.5625 4 34.71875 8.453125 
z
" id="TimesNewRomanPSMT-100"/>
      <path d="M 10.640625 27.875 
Q 10.59375 17.921875 15.484375 12.25 
Q 20.359375 6.59375 26.953125 6.59375 
Q 31.34375 6.59375 34.59375 9 
Q 37.84375 11.421875 40.046875 17.28125 
L 41.546875 16.3125 
Q 40.53125 9.625 35.59375 4.125 
Q 30.671875 -1.375 23.25 -1.375 
Q 15.1875 -1.375 9.453125 4.90625 
Q 3.71875 11.1875 3.71875 21.78125 
Q 3.71875 33.25 9.59375 39.671875 
Q 15.484375 46.09375 24.359375 46.09375 
Q 31.890625 46.09375 36.71875 41.140625 
Q 41.546875 36.1875 41.546875 27.875 
z
M 10.640625 30.71875 
L 31.34375 30.71875 
Q 31.109375 35.015625 30.328125 36.765625 
Q 29.109375 39.5 26.6875 41.0625 
Q 24.265625 42.625 21.625 42.625 
Q 17.578125 42.625 14.375 39.46875 
Q 11.1875 36.328125 10.640625 30.71875 
z
" id="TimesNewRomanPSMT-101"/>
      <path d="M 1.3125 44.734375 
L 22.359375 44.734375 
L 22.359375 42.921875 
Q 20.359375 42.921875 19.546875 42.234375 
Q 18.75 41.546875 18.75 40.4375 
Q 18.75 39.265625 20.453125 36.8125 
Q 21 36.03125 22.078125 34.375 
L 25.25 29.296875 
L 28.90625 34.375 
Q 32.421875 39.203125 32.421875 40.484375 
Q 32.421875 41.5 31.59375 42.203125 
Q 30.765625 42.921875 28.90625 42.921875 
L 28.90625 44.734375 
L 44.046875 44.734375 
L 44.046875 42.921875 
Q 41.65625 42.78125 39.890625 41.609375 
Q 37.5 39.9375 33.34375 34.375 
L 27.25 26.21875 
L 38.375 10.203125 
Q 42.484375 4.296875 44.234375 3.09375 
Q 46 1.90625 48.78125 1.765625 
L 48.78125 0 
L 27.6875 0 
L 27.6875 1.765625 
Q 29.890625 1.765625 31.109375 2.734375 
Q 32.03125 3.421875 32.03125 4.546875 
Q 32.03125 5.671875 28.90625 10.203125 
L 22.359375 19.78125 
L 15.1875 10.203125 
Q 11.859375 5.765625 11.859375 4.9375 
Q 11.859375 3.765625 12.953125 2.8125 
Q 14.0625 1.859375 16.265625 1.765625 
L 16.265625 0 
L 1.65625 0 
L 1.65625 1.765625 
Q 3.421875 2 4.734375 2.984375 
Q 6.59375 4.390625 10.984375 10.203125 
L 20.359375 22.65625 
L 11.859375 34.96875 
Q 8.25 40.234375 6.265625 41.578125 
Q 4.296875 42.921875 1.3125 42.921875 
z
" id="TimesNewRomanPSMT-120"/>
     </defs>
     <g transform="translate(159.442187 156.965625)scale(0.2 -0.2)">
      <use xlink:href="#TimesNewRomanPSMT-73"/>
      <use x="33.300781" xlink:href="#TimesNewRomanPSMT-110"/>
      <use x="83.300781" xlink:href="#TimesNewRomanPSMT-100"/>
      <use x="133.300781" xlink:href="#TimesNewRomanPSMT-101"/>
      <use x="177.685547" xlink:href="#TimesNewRomanPSMT-120"/>
     </g>
    </g>
   </g>
   <g id="matplotlib.axis_2">
    <g id="ytick_1">
     <g id="line2d_7">
      <defs>
       <path d="M 0 0 
L -3.5 0 
" id="m9b7c0616ab" style="stroke:#000000;stroke-width:0.8;"/>
      </defs>
      <g>
       <use style="stroke:#000000;stroke-width:0.8;" x="67.010938" xlink:href="#m9b7c0616ab" y="118.006847"/>
      </g>
     </g>
     <g id="text_8">
      <!-- −0.02 -->
      <defs>
       <path d="M 10.59375 35.5 
L 73.1875 35.5 
L 73.1875 27.203125 
L 10.59375 27.203125 
z
" id="DejaVuSans-8722"/>
       <path d="M 10.6875 12.40625 
L 21 12.40625 
L 21 0 
L 10.6875 0 
z
" id="DejaVuSans-46"/>
      </defs>
      <g transform="translate(29.365625 121.806065)scale(0.1 -0.1)">
       <use xlink:href="#DejaVuSans-8722"/>
       <use x="83.789062" xlink:href="#DejaVuSans-48"/>
       <use x="147.412109" xlink:href="#DejaVuSans-46"/>
       <use x="179.199219" xlink:href="#DejaVuSans-48"/>
       <use x="242.822266" xlink:href="#DejaVuSans-50"/>
      </g>
     </g>
    </g>
    <g id="ytick_2">
     <g id="line2d_8">
      <g>
       <use style="stroke:#000000;stroke-width:0.8;" x="67.010938" xlink:href="#m9b7c0616ab" y="91.281077"/>
      </g>
     </g>
     <g id="text_9">
      <!-- −0.01 -->
      <g transform="translate(29.365625 95.080296)scale(0.1 -0.1)">
       <use xlink:href="#DejaVuSans-8722"/>
       <use x="83.789062" xlink:href="#DejaVuSans-48"/>
       <use x="147.412109" xlink:href="#DejaVuSans-46"/>
       <use x="179.199219" xlink:href="#DejaVuSans-48"/>
       <use x="242.822266" xlink:href="#DejaVuSans-49"/>
      </g>
     </g>
    </g>
    <g id="ytick_3">
     <g id="line2d_9">
      <g>
       <use style="stroke:#000000;stroke-width:0.8;" x="67.010938" xlink:href="#m9b7c0616ab" y="64.555308"/>
      </g>
     </g>
     <g id="text_10">
      <!-- 0.00 -->
      <g transform="translate(37.745313 68.354527)scale(0.1 -0.1)">
       <use xlink:href="#DejaVuSans-48"/>
       <use x="63.623047" xlink:href="#DejaVuSans-46"/>
       <use x="95.410156" xlink:href="#DejaVuSans-48"/>
       <use x="159.033203" xlink:href="#DejaVuSans-48"/>
      </g>
     </g>
    </g>
    <g id="ytick_4">
     <g id="line2d_10">
      <g>
       <use style="stroke:#000000;stroke-width:0.8;" x="67.010938" xlink:href="#m9b7c0616ab" y="37.829539"/>
      </g>
     </g>
     <g id="text_11">
      <!-- 0.01 -->
      <g transform="translate(37.745313 41.628758)scale(0.1 -0.1)">
       <use xlink:href="#DejaVuSans-48"/>
       <use x="63.623047" xlink:href="#DejaVuSans-46"/>
       <use x="95.410156" xlink:href="#DejaVuSans-48"/>
       <use x="159.033203" xlink:href="#DejaVuSans-49"/>
      </g>
     </g>
    </g>
    <g id="ytick_5">
     <g id="line2d_11">
      <g>
       <use style="stroke:#000000;stroke-width:0.8;" x="67.010938" xlink:href="#m9b7c0616ab" y="11.10377"/>
      </g>
     </g>
     <g id="text_12">
      <!-- 0.02 -->
      <g transform="translate(37.745313 14.902989)scale(0.1 -0.1)">
       <use xlink:href="#DejaVuSans-48"/>
       <use x="63.623047" xlink:href="#DejaVuSans-46"/>
       <use x="95.410156" xlink:href="#DejaVuSans-48"/>
       <use x="159.033203" xlink:href="#DejaVuSans-50"/>
      </g>
     </g>
    </g>
    <g id="text_13">
     <!-- Amplitude -->
     <defs>
      <path d="M 45.75 22.171875 
L 20.125 22.171875 
L 15.625 11.71875 
Q 13.96875 7.859375 13.96875 5.953125 
Q 13.96875 4.4375 15.40625 3.296875 
Q 16.84375 2.15625 21.625 1.8125 
L 21.625 0 
L 0.78125 0 
L 0.78125 1.8125 
Q 4.9375 2.546875 6.15625 3.71875 
Q 8.640625 6.0625 11.671875 13.234375 
L 34.96875 67.71875 
L 36.671875 67.71875 
L 59.71875 12.640625 
Q 62.5 6 64.765625 4.015625 
Q 67.046875 2.046875 71.09375 1.8125 
L 71.09375 0 
L 44.96875 0 
L 44.96875 1.8125 
Q 48.921875 2 50.3125 3.125 
Q 51.703125 4.25 51.703125 5.859375 
Q 51.703125 8.015625 49.75 12.640625 
z
M 44.390625 25.78125 
L 33.15625 52.546875 
L 21.625 25.78125 
z
" id="TimesNewRomanPSMT-65"/>
      <path d="M 16.40625 36.53125 
Q 21.296875 41.40625 22.171875 42.140625 
Q 24.359375 44 26.890625 45.015625 
Q 29.4375 46.046875 31.9375 46.046875 
Q 36.140625 46.046875 39.15625 43.59375 
Q 42.1875 41.15625 43.21875 36.53125 
Q 48.25 42.390625 51.703125 44.21875 
Q 55.171875 46.046875 58.84375 46.046875 
Q 62.40625 46.046875 65.15625 44.21875 
Q 67.921875 42.390625 69.53125 38.234375 
Q 70.609375 35.40625 70.609375 29.34375 
L 70.609375 10.109375 
Q 70.609375 5.90625 71.234375 4.34375 
Q 71.734375 3.265625 73.046875 2.515625 
Q 74.359375 1.765625 77.34375 1.765625 
L 77.34375 0 
L 55.28125 0 
L 55.28125 1.765625 
L 56.203125 1.765625 
Q 59.078125 1.765625 60.6875 2.875 
Q 61.8125 3.65625 62.3125 5.375 
Q 62.5 6.203125 62.5 10.109375 
L 62.5 29.34375 
Q 62.5 34.8125 61.1875 37.0625 
Q 59.28125 40.1875 55.078125 40.1875 
Q 52.484375 40.1875 49.875 38.890625 
Q 47.265625 37.59375 43.5625 34.078125 
L 43.453125 33.546875 
L 43.5625 31.453125 
L 43.5625 10.109375 
Q 43.5625 5.515625 44.0625 4.390625 
Q 44.578125 3.265625 45.984375 2.515625 
Q 47.40625 1.765625 50.828125 1.765625 
L 50.828125 0 
L 28.21875 0 
L 28.21875 1.765625 
Q 31.9375 1.765625 33.328125 2.640625 
Q 34.71875 3.515625 35.25 5.28125 
Q 35.5 6.109375 35.5 10.109375 
L 35.5 29.34375 
Q 35.5 34.8125 33.890625 37.203125 
Q 31.734375 40.328125 27.875 40.328125 
Q 25.25 40.328125 22.65625 38.921875 
Q 18.609375 36.765625 16.40625 34.078125 
L 16.40625 10.109375 
Q 16.40625 5.71875 17.015625 4.390625 
Q 17.625 3.078125 18.8125 2.421875 
Q 20.015625 1.765625 23.6875 1.765625 
L 23.6875 0 
L 1.5625 0 
L 1.5625 1.765625 
Q 4.640625 1.765625 5.859375 2.421875 
Q 7.078125 3.078125 7.703125 4.515625 
Q 8.34375 5.953125 8.34375 10.109375 
L 8.34375 27.203125 
Q 8.34375 34.578125 7.90625 36.71875 
Q 7.5625 38.328125 6.828125 38.9375 
Q 6.109375 39.546875 4.828125 39.546875 
Q 3.46875 39.546875 1.5625 38.8125 
L 0.828125 40.578125 
L 14.3125 46.046875 
L 16.40625 46.046875 
z
" id="TimesNewRomanPSMT-109"/>
      <path d="M -0.09375 40.28125 
L 13.671875 45.84375 
L 15.53125 45.84375 
L 15.53125 35.40625 
Q 19 41.3125 22.484375 43.671875 
Q 25.984375 46.046875 29.828125 46.046875 
Q 36.578125 46.046875 41.0625 40.765625 
Q 46.578125 34.328125 46.578125 23.96875 
Q 46.578125 12.40625 39.9375 4.828125 
Q 34.46875 -1.375 26.171875 -1.375 
Q 22.5625 -1.375 19.921875 -0.34375 
Q 17.96875 0.390625 15.53125 2.59375 
L 15.53125 -11.03125 
Q 15.53125 -15.625 16.09375 -16.859375 
Q 16.65625 -18.109375 18.046875 -18.84375 
Q 19.4375 -19.578125 23.09375 -19.578125 
L 23.09375 -21.390625 
L -0.34375 -21.390625 
L -0.34375 -19.578125 
L 0.875 -19.578125 
Q 3.5625 -19.625 5.46875 -18.5625 
Q 6.390625 -18.015625 6.90625 -16.8125 
Q 7.421875 -15.625 7.421875 -10.75 
L 7.421875 31.546875 
Q 7.421875 35.890625 7.03125 37.0625 
Q 6.640625 38.234375 5.78125 38.8125 
Q 4.9375 39.40625 3.46875 39.40625 
Q 2.296875 39.40625 0.484375 38.71875 
z
M 15.53125 32.515625 
L 15.53125 15.828125 
Q 15.53125 10.40625 15.96875 8.6875 
Q 16.65625 5.859375 19.3125 3.703125 
Q 21.96875 1.5625 26.03125 1.5625 
Q 30.90625 1.5625 33.9375 5.375 
Q 37.890625 10.359375 37.890625 19.390625 
Q 37.890625 29.640625 33.40625 35.15625 
Q 30.28125 38.96875 25.984375 38.96875 
Q 23.640625 38.96875 21.34375 37.796875 
Q 19.578125 36.921875 15.53125 32.515625 
z
" id="TimesNewRomanPSMT-112"/>
      <path d="M 18.5 69.4375 
L 18.5 10.109375 
Q 18.5 5.90625 19.109375 4.53125 
Q 19.734375 3.171875 21 2.46875 
Q 22.265625 1.765625 25.734375 1.765625 
L 25.734375 0 
L 3.8125 0 
L 3.8125 1.765625 
Q 6.890625 1.765625 8 2.390625 
Q 9.125 3.03125 9.765625 4.484375 
Q 10.40625 5.953125 10.40625 10.109375 
L 10.40625 50.734375 
Q 10.40625 58.296875 10.0625 60.03125 
Q 9.71875 61.765625 8.953125 62.390625 
Q 8.203125 63.03125 7.03125 63.03125 
Q 5.765625 63.03125 3.8125 62.25 
L 2.984375 63.96875 
L 16.3125 69.4375 
z
" id="TimesNewRomanPSMT-108"/>
      <path d="M 14.5 69.4375 
Q 16.546875 69.4375 17.984375 67.984375 
Q 19.4375 66.546875 19.4375 64.5 
Q 19.4375 62.453125 17.984375 60.984375 
Q 16.546875 59.515625 14.5 59.515625 
Q 12.453125 59.515625 10.984375 60.984375 
Q 9.515625 62.453125 9.515625 64.5 
Q 9.515625 66.546875 10.953125 67.984375 
Q 12.40625 69.4375 14.5 69.4375 
z
M 18.5625 46.046875 
L 18.5625 10.109375 
Q 18.5625 5.90625 19.171875 4.515625 
Q 19.78125 3.125 20.96875 2.4375 
Q 22.171875 1.765625 25.34375 1.765625 
L 25.34375 0 
L 3.609375 0 
L 3.609375 1.765625 
Q 6.890625 1.765625 8 2.390625 
Q 9.125 3.03125 9.78125 4.484375 
Q 10.453125 5.953125 10.453125 10.109375 
L 10.453125 27.34375 
Q 10.453125 34.625 10.015625 36.765625 
Q 9.671875 38.328125 8.9375 38.9375 
Q 8.203125 39.546875 6.9375 39.546875 
Q 5.5625 39.546875 3.609375 38.8125 
L 2.9375 40.578125 
L 16.40625 46.046875 
z
" id="TimesNewRomanPSMT-105"/>
      <path d="M 16.109375 59.421875 
L 16.109375 44.734375 
L 26.5625 44.734375 
L 26.5625 41.3125 
L 16.109375 41.3125 
L 16.109375 12.3125 
Q 16.109375 7.953125 17.359375 6.4375 
Q 18.609375 4.9375 20.5625 4.9375 
Q 22.171875 4.9375 23.6875 5.9375 
Q 25.203125 6.9375 26.03125 8.890625 
L 27.9375 8.890625 
Q 26.21875 4.109375 23.09375 1.6875 
Q 19.96875 -0.734375 16.65625 -0.734375 
Q 14.40625 -0.734375 12.25 0.515625 
Q 10.109375 1.765625 9.078125 4.078125 
Q 8.0625 6.390625 8.0625 11.234375 
L 8.0625 41.3125 
L 0.984375 41.3125 
L 0.984375 42.921875 
Q 3.65625 44 6.46875 46.5625 
Q 9.28125 49.125 11.46875 52.640625 
Q 12.59375 54.5 14.59375 59.421875 
z
" id="TimesNewRomanPSMT-116"/>
      <path d="M 42.328125 44.734375 
L 42.328125 17.625 
Q 42.328125 9.859375 42.6875 8.125 
Q 43.0625 6.390625 43.859375 5.703125 
Q 44.671875 5.03125 45.75 5.03125 
Q 47.265625 5.03125 49.171875 5.859375 
L 49.859375 4.15625 
L 36.46875 -1.375 
L 34.28125 -1.375 
L 34.28125 8.109375 
Q 28.515625 1.859375 25.484375 0.234375 
Q 22.46875 -1.375 19.09375 -1.375 
Q 15.328125 -1.375 12.5625 0.796875 
Q 9.8125 2.984375 8.734375 6.390625 
Q 7.671875 9.8125 7.671875 16.0625 
L 7.671875 36.03125 
Q 7.671875 39.203125 6.984375 40.421875 
Q 6.296875 41.65625 4.953125 42.3125 
Q 3.609375 42.96875 0.09375 42.921875 
L 0.09375 44.734375 
L 15.765625 44.734375 
L 15.765625 14.796875 
Q 15.765625 8.546875 17.9375 6.59375 
Q 20.125 4.640625 23.1875 4.640625 
Q 25.296875 4.640625 27.953125 5.953125 
Q 30.609375 7.28125 34.28125 10.984375 
L 34.28125 36.328125 
Q 34.28125 40.140625 32.890625 41.484375 
Q 31.5 42.828125 27.09375 42.921875 
L 27.09375 44.734375 
z
" id="TimesNewRomanPSMT-117"/>
     </defs>
     <g transform="translate(21.0875 107.573437)rotate(-90)scale(0.2 -0.2)">
      <use xlink:href="#TimesNewRomanPSMT-65"/>
      <use x="72.216797" xlink:href="#TimesNewRomanPSMT-109"/>
      <use x="150" xlink:href="#TimesNewRomanPSMT-112"/>
      <use x="200" xlink:href="#TimesNewRomanPSMT-108"/>
      <use x="227.783203" xlink:href="#TimesNewRomanPSMT-105"/>
      <use x="255.566406" xlink:href="#TimesNewRomanPSMT-116"/>
      <use x="283.349609" xlink:href="#TimesNewRomanPSMT-117"/>
      <use x="333.349609" xlink:href="#TimesNewRomanPSMT-100"/>
      <use x="383.349609" xlink:href="#TimesNewRomanPSMT-101"/>
     </g>
    </g>
   </g>
   <g id="line2d_12">
    <path clip-path="url(#pe717993773)" d="M 77.483665 112.351398 
L 77.68841 115.695496 
L 77.893156 113.901104 
L 78.302646 98.404077 
L 79.735864 14.801695 
L 79.94061 13.007303 
L 80.145355 17.411723 
L 80.554846 38.128801 
L 81.578573 107.457604 
L 81.783318 113.656412 
L 81.988064 114.06423 
L 82.192809 111.698894 
L 82.397554 103.624128 
L 83.011791 59.335257 
L 83.626027 21.245199 
L 83.830772 15.046387 
L 84.035518 13.659812 
L 84.445008 27.851825 
L 85.673481 111.291076 
L 85.878226 115.613931 
L 86.082972 113.901104 
L 86.287717 106.805095 
L 86.697208 81.765165 
L 87.311444 32.90875 
L 87.720935 14.393882 
L 87.92568 14.883261 
L 88.130426 19.777059 
L 88.539916 43.675104 
L 89.358898 105.092268 
L 89.563643 113.003908 
L 89.768389 115.369244 
L 89.973134 111.209515 
L 90.382625 87.719286 
L 91.201607 24.915545 
L 91.406352 17.982667 
L 91.611097 15.862022 
L 91.815843 18.798298 
L 92.020588 28.014951 
L 92.634824 78.176379 
L 93.044315 107.783857 
L 93.249061 114.635174 
L 93.453806 115.858622 
L 93.658551 110.067627 
L 94.272788 65.615631 
L 94.682278 31.522173 
L 95.091769 14.475443 
L 95.296515 16.269835 
L 95.50126 22.958026 
L 95.910751 52.157688 
L 96.524987 102.971621 
L 96.729732 112.677655 
L 96.934478 116.184875 
L 97.139223 110.883263 
L 97.343969 101.014102 
L 98.367696 19.369241 
L 98.572441 14.067625 
L 98.777187 16.596087 
L 98.981932 24.426166 
L 99.596168 76.055733 
L 100.005659 106.805095 
L 100.210404 115.369244 
L 100.41515 116.26644 
L 100.619895 107.620731 
L 101.643622 43.185723 
L 101.848368 40.412572 
L 102.053113 40.738826 
L 102.462604 48.976718 
L 102.872095 68.30722 
L 103.691076 110.312319 
L 103.895822 115.777057 
L 104.100567 116.021748 
L 104.305312 111.291076 
L 104.714803 86.985216 
L 105.533785 23.773659 
L 105.73853 14.964826 
L 105.943276 12.925742 
L 106.148021 18.961424 
L 106.557512 44.735427 
L 107.171748 97.670007 
L 107.581239 116.021748 
L 107.785984 113.493286 
L 107.99073 108.599487 
L 108.40022 76.871366 
L 109.014457 25.894307 
L 109.219202 15.780457 
L 109.423947 14.230756 
L 109.628693 18.635171 
L 110.038184 41.717586 
L 110.857165 109.170431 
L 111.061911 115.124552 
L 111.266656 116.837384 
L 111.676147 97.833133 
L 112.699874 19.042989 
L 112.904619 14.393882 
L 113.109365 13.741373 
L 113.518855 33.071876 
L 114.542582 109.822941 
L 114.747328 115.940188 
L 115.156819 108.925745 
L 115.771055 63.984365 
L 116.385291 20.103312 
L 116.590036 13.659812 
L 116.794782 14.393882 
L 116.999527 19.940185 
L 117.409018 47.0192 
L 118.432745 113.003908 
L 118.63749 116.184875 
L 119.046981 102.400679 
L 119.456472 74.99541 
L 120.070708 29.809344 
L 120.480199 13.578247 
L 120.684944 13.007303 
L 120.88969 18.961424 
L 121.299181 42.451656 
L 122.322908 111.535768 
L 122.527653 114.06423 
L 122.732398 114.06423 
L 123.141889 96.691248 
L 124.370362 16.759218 
L 124.575107 13.41512 
L 124.779852 14.964826 
L 125.189343 29.564654 
L 125.803579 74.506031 
L 126.417816 109.333557 
L 126.622561 113.248594 
L 126.827306 113.819538 
L 127.032052 109.822941 
L 127.441543 90.655563 
L 128.46527 22.958026 
L 128.670015 15.780457 
L 128.87476 13.170429 
L 129.079506 15.127952 
L 129.284251 20.184872 
L 129.898487 56.562105 
L 130.512724 97.343755 
L 130.717469 108.191674 
L 130.922214 113.003908 
L 131.12696 114.879861 
L 131.331705 113.003908 
L 131.741196 96.854374 
L 132.355432 55.664909 
L 132.969669 20.348003 
L 133.174414 15.209513 
L 133.379159 13.251994 
L 133.583905 15.209513 
L 133.993396 27.851825 
L 135.221868 103.21631 
L 135.631359 113.737978 
L 135.836104 114.472048 
L 136.04085 111.291076 
L 136.45034 96.364995 
L 137.678813 24.426166 
L 138.088304 13.33356 
L 138.293049 13.41512 
L 138.497794 16.106709 
L 138.907285 32.582495 
L 139.316776 55.746473 
L 139.931012 93.428715 
L 140.340503 109.333557 
L 140.749994 114.635174 
L 140.954739 112.922342 
L 141.36423 100.198469 
L 143.002193 18.064227 
L 143.206939 14.067625 
L 143.411684 13.007303 
L 143.616429 15.535765 
L 143.821175 20.021746 
L 144.02592 27.036192 
L 145.663883 109.65981 
L 145.868629 114.145791 
L 146.073374 114.7983 
L 146.27812 114.390482 
L 146.68761 104.847576 
L 147.301847 75.72948 
L 148.325574 24.344603 
L 148.735064 14.638569 
L 148.93981 12.436364 
L 149.554046 23.855222 
L 149.963537 40.494135 
L 151.396755 106.641969 
L 151.806245 115.53237 
L 152.010991 115.042992 
L 152.215736 113.737978 
L 152.625227 105.41852 
L 153.239463 81.112658 
L 153.853699 49.710788 
L 154.672681 20.429564 
L 154.877426 15.046387 
L 155.286917 14.475443 
L 155.491663 16.269835 
L 155.696408 19.777059 
L 156.310644 40.901953 
L 157.948607 107.702291 
L 158.358098 113.982664 
L 158.562844 115.042992 
L 158.767589 115.287678 
L 159.17708 108.599487 
L 159.791316 89.921493 
L 160.610298 53.544264 
L 161.429279 24.752419 
L 161.83877 17.167031 
L 162.043515 14.230756 
L 162.248261 13.741373 
L 162.453006 14.393882 
L 162.657752 16.025148 
L 163.067242 24.099914 
L 163.681479 45.06168 
L 164.909951 92.123704 
L 165.319442 104.276635 
L 165.728933 112.432964 
L 165.933678 115.53237 
L 166.138424 115.613931 
L 166.75266 111.291076 
L 167.162151 103.461002 
L 167.366896 98.811892 
L 169.209605 35.845028 
L 169.823841 21.571452 
L 170.028586 17.901101 
L 170.438077 14.230756 
L 170.642822 14.14919 
L 171.052313 15.862022 
L 171.461804 20.348003 
L 171.871295 29.809344 
L 172.485531 47.427016 
L 173.304513 73.037891 
L 173.918749 90.574 
L 174.32824 101.666609 
L 174.942476 112.188272 
L 175.147221 113.493286 
L 175.351967 116.103314 
L 175.556712 117.163636 
L 175.761457 115.695496 
L 175.966203 115.777057 
L 176.170948 114.145791 
L 176.785184 106.071027 
L 177.194675 96.201867 
L 177.604166 87.393031 
L 179.65162 35.681902 
L 180.470602 20.755816 
L 181.289583 13.741373 
L 181.494329 14.312317 
L 181.699074 12.925742 
L 181.903819 13.496686 
L 182.108565 14.720134 
L 183.132292 25.568052 
L 183.541783 32.745621 
L 185.793982 76.70824 
L 186.203473 84.619879 
L 186.817709 94.081222 
L 187.431945 103.95038 
L 187.636691 106.397282 
L 187.841436 107.212913 
L 188.250927 112.351398 
L 188.455672 113.982664 
L 188.660418 113.656412 
L 188.865163 115.450805 
L 189.069908 115.369244 
L 189.479399 116.021748 
L 189.88889 115.124552 
L 190.093635 113.493286 
L 190.298381 114.06423 
L 190.503126 113.33016 
L 191.117362 107.946983 
L 191.322108 108.191674 
L 191.731599 103.624128 
L 191.936344 102.808495 
L 192.960071 90.166183 
L 193.164816 89.10586 
L 195.621761 59.172131 
L 196.031252 54.033643 
L 196.235997 54.196769 
L 197.259724 44.164484 
L 197.46447 43.511978 
L 197.669215 40.331009 
L 197.873961 39.433812 
L 198.078706 36.823787 
L 198.488197 35.110958 
L 198.692942 32.827187 
L 198.897688 32.093117 
L 199.102433 30.543414 
L 199.307179 29.890907 
L 199.511924 27.362444 
L 199.716669 27.770262 
L 200.330906 23.52897 
L 200.535651 22.387082 
L 200.740396 22.06083 
L 200.945142 21.000508 
L 201.149887 20.674255 
L 201.354633 19.450807 
L 201.559378 19.450807 
L 201.968869 18.145793 
L 202.173614 18.635171 
L 202.37836 18.635171 
L 202.992596 17.085471 
L 203.197341 17.085471 
L 203.606832 14.883261 
L 203.811577 15.372639 
L 204.016323 15.209513 
L 204.425814 13.41512 
L 204.630559 14.393882 
L 204.835304 13.33356 
L 205.04005 14.14919 
L 205.244795 13.741373 
L 205.654286 14.638569 
L 205.859031 14.557008 
L 206.063777 14.067625 
L 206.268522 14.883261 
L 206.473268 14.883261 
L 206.678013 15.372639 
L 207.087504 13.578247 
L 207.292249 13.251994 
L 207.496995 13.741373 
L 207.70174 14.638569 
L 207.906485 13.822938 
L 208.111231 13.496686 
L 208.315976 13.741373 
L 208.520722 14.312317 
L 208.725467 13.659812 
L 208.930212 14.312317 
L 209.134958 14.557008 
L 209.339703 15.127952 
L 209.749194 14.393882 
L 209.953939 14.557008 
L 210.158685 13.41512 
L 210.36343 14.557008 
L 210.568176 14.964826 
L 210.772921 14.964826 
L 210.977666 15.862022 
L 211.182412 15.535765 
L 211.591903 17.411723 
L 211.796648 17.167031 
L 212.001393 17.411723 
L 212.206139 18.635171 
L 212.410884 18.064227 
L 212.61563 17.982667 
L 212.820375 18.39048 
L 213.229866 20.348003 
L 213.639357 21.082073 
L 213.844102 20.918942 
L 214.048847 21.489886 
L 214.253593 22.631774 
L 214.458338 22.876463 
L 214.867829 25.649615 
L 215.072574 27.688699 
L 215.27732 27.52557 
L 215.686811 31.603736 
L 215.891556 32.17468 
L 216.096301 35.274084 
L 216.301047 34.132198 
L 216.505792 35.763465 
L 216.915283 40.167883 
L 217.120028 40.086319 
L 217.529519 45.143243 
L 217.734265 44.980117 
L 218.553246 54.359896 
L 218.757992 55.746473 
L 218.962737 59.335257 
L 219.372228 60.88496 
L 219.781719 66.675954 
L 220.6007 76.300423 
L 220.805446 80.297024 
L 221.010191 81.357348 
L 221.829173 91.634323 
L 222.033918 93.428715 
L 222.648154 100.68785 
L 223.26239 106.968221 
L 223.467136 106.805095 
L 223.671881 108.028543 
L 223.876627 111.12795 
L 224.081372 112.351398 
L 224.286117 112.269838 
L 224.490863 114.7983 
L 224.695608 114.7983 
L 225.105099 115.613931 
L 225.51459 115.287678 
L 225.924081 112.677655 
L 226.128826 112.514529 
L 226.538317 111.698894 
L 226.947808 105.500083 
L 227.152553 104.847576 
L 227.562044 98.567203 
L 227.766789 97.180628 
L 228.17628 90.492437 
L 228.585771 83.804246 
L 228.790516 80.786404 
L 229.200007 71.080372 
L 229.609498 63.902802 
L 230.018989 54.196769 
L 230.428479 46.856072 
L 231.042716 34.376888 
L 231.861697 20.674255 
L 232.475934 15.372639 
L 232.885424 13.251994 
L 233.09017 13.741373 
L 233.294915 13.578247 
L 233.499661 14.067625 
L 233.704406 15.862022 
L 233.909151 16.514527 
L 234.318642 20.348003 
L 235.956605 56.398978 
L 236.775587 79.644519 
L 236.980332 83.070177 
L 237.389823 93.918096 
L 238.41355 112.759216 
L 238.618296 113.574852 
L 238.823041 115.206118 
L 239.027786 115.613931 
L 239.642023 112.514529 
L 240.051513 108.762613 
L 241.07524 83.477994 
L 241.689477 64.473745 
L 243.122694 23.365844 
L 243.736931 13.904499 
L 243.941676 13.251994 
L 244.146421 13.41512 
L 244.555912 15.535765 
L 244.965403 22.7949 
L 245.170148 25.812741 
L 246.398621 65.044688 
L 246.808112 80.704841 
L 247.217602 94.162785 
L 247.627093 104.847576 
L 248.241329 114.879861 
L 248.446075 117.082071 
L 248.65082 116.103314 
L 248.855566 113.33016 
L 249.060311 112.514529 
L 249.674547 97.670007 
L 250.084038 83.559557 
L 251.517256 28.830584 
L 252.336237 13.578247 
L 252.540983 13.578247 
L 252.745728 14.312317 
L 252.950474 16.840779 
L 253.155219 21.000508 
L 254.178946 56.317415 
L 254.997928 92.531519 
L 255.407418 105.826336 
L 256.021655 115.613931 
L 256.2264 115.124552 
L 256.635891 110.720137 
L 257.250127 93.510278 
L 258.88809 23.936786 
L 259.297581 15.127952 
L 259.502326 14.14919 
L 259.707072 13.904499 
L 260.116563 21.000508 
L 260.526053 35.681902 
L 260.935544 53.21801 
L 261.959271 101.014102 
L 262.368762 112.759216 
L 262.778253 116.184875 
L 263.187744 111.780459 
L 263.597234 97.75157 
L 265.439943 16.922345 
L 265.644688 13.822938 
L 265.849434 13.578247 
L 266.258925 21.000508 
L 266.46367 26.628374 
L 268.101633 107.212913 
L 268.511124 114.961426 
L 268.71587 114.716734 
L 268.920615 113.33016 
L 269.12536 109.170431 
L 269.534851 91.634323 
L 270.763324 26.465248 
L 271.172814 13.741373 
L 271.37756 13.578247 
L 271.582305 15.535765 
L 271.787051 20.266438 
L 272.196541 35.845028 
L 273.425014 102.563806 
L 273.834505 114.145791 
L 274.03925 116.348001 
L 274.243995 113.167034 
L 274.653486 98.730329 
L 275.267722 65.126251 
L 275.881959 29.646217 
L 276.291449 15.291078 
L 276.496195 12.925742 
L 276.70094 15.127952 
L 276.905686 19.12455 
L 277.315176 36.008154 
L 278.338903 98.322514 
L 278.748394 112.677655 
L 278.95314 115.695496 
L 279.157885 115.042992 
L 279.772121 92.28683 
L 280.795848 28.096514 
L 281.205339 13.986064 
L 281.410084 13.741373 
L 281.61483 16.840779 
L 282.229066 46.856072 
L 283.048048 100.850976 
L 283.457538 114.472048 
L 283.662284 115.613931 
L 283.867029 112.59609 
L 284.071775 105.907901 
L 285.095502 55.746473 
L 285.300247 52.076123 
L 285.504992 51.015801 
L 285.709738 53.21801 
L 286.119229 59.987764 
L 286.93821 87.311468 
L 286.93821 87.311468 
" style="fill:none;stroke:#000000;stroke-linecap:square;stroke-width:0.5;"/>
   </g>
   <g id="patch_3">
    <path d="M 67.010938 122.4 
L 67.010938 7.2 
" style="fill:none;stroke:#000000;stroke-linecap:square;stroke-linejoin:miter;stroke-width:0.8;"/>
   </g>
   <g id="patch_4">
    <path d="M 297.410937 122.4 
L 297.410937 7.2 
" style="fill:none;stroke:#000000;stroke-linecap:square;stroke-linejoin:miter;stroke-width:0.8;"/>
   </g>
   <g id="patch_5">
    <path d="M 67.010938 122.4 
L 297.410937 122.4 
" style="fill:none;stroke:#000000;stroke-linecap:square;stroke-linejoin:miter;stroke-width:0.8;"/>
   </g>
   <g id="patch_6">
    <path d="M 67.010938 7.2 
L 297.410937 7.2 
" style="fill:none;stroke:#000000;stroke-linecap:square;stroke-linejoin:miter;stroke-width:0.8;"/>
   </g>
  </g>
 </g>
 <defs>
  <clipPath id="pe717993773">
   <rect height="115.2" width="230.4" x="67.010938" y="7.2"/>
  </clipPath>
 </defs>
</svg>
