<?xml version="1.0" encoding="utf-8" standalone="no"?>
<!DOCTYPE svg PUBLIC "-//W3C//DTD SVG 1.1//EN"
  "http://www.w3.org/Graphics/SVG/1.1/DTD/svg11.dtd">
<!-- Created with matplotlib (https://matplotlib.org/) -->
<svg height="168.44375pt" version="1.1" viewBox="0 0 304.610937 168.44375" width="304.610937pt" xmlns="http://www.w3.org/2000/svg" xmlns:xlink="http://www.w3.org/1999/xlink">
 <defs>
  <style type="text/css">
*{stroke-linecap:butt;stroke-linejoin:round;}
  </style>
 </defs>
 <g id="figure_1">
  <g id="patch_1">
   <path d="M 0 168.44375 
L 304.610937 168.44375 
L 304.610937 0 
L 0 0 
z
" style="fill:#ffffff;"/>
  </g>
  <g id="axes_1">
   <g id="patch_2">
    <path d="M 67.010938 122.4 
L 297.410937 122.4 
L 297.410937 7.2 
L 67.010938 7.2 
z
" style="fill:#ffffff;"/>
   </g>
   <g id="matplotlib.axis_1">
    <g id="xtick_1">
     <g id="line2d_1">
      <defs>
       <path d="M 0 0 
L 0 3.5 
" id="m738db6f226" style="stroke:#000000;stroke-width:0.8;"/>
      </defs>
      <g>
       <use style="stroke:#000000;stroke-width:0.8;" x="77.483665" xlink:href="#m738db6f226" y="122.4"/>
      </g>
     </g>
     <g id="text_1">
      <!-- 0 -->
      <defs>
       <path d="M 31.78125 66.40625 
Q 24.171875 66.40625 20.328125 58.90625 
Q 16.5 51.421875 16.5 36.375 
Q 16.5 21.390625 20.328125 13.890625 
Q 24.171875 6.390625 31.78125 6.390625 
Q 39.453125 6.390625 43.28125 13.890625 
Q 47.125 21.390625 47.125 36.375 
Q 47.125 51.421875 43.28125 58.90625 
Q 39.453125 66.40625 31.78125 66.40625 
z
M 31.78125 74.21875 
Q 44.046875 74.21875 50.515625 64.515625 
Q 56.984375 54.828125 56.984375 36.375 
Q 56.984375 17.96875 50.515625 8.265625 
Q 44.046875 -1.421875 31.78125 -1.421875 
Q 19.53125 -1.421875 13.0625 8.265625 
Q 6.59375 17.96875 6.59375 36.375 
Q 6.59375 54.828125 13.0625 64.515625 
Q 19.53125 74.21875 31.78125 74.21875 
z
" id="DejaVuSans-48"/>
      </defs>
      <g transform="translate(74.302415 136.998437)scale(0.1 -0.1)">
       <use xlink:href="#DejaVuSans-48"/>
      </g>
     </g>
    </g>
    <g id="xtick_2">
     <g id="line2d_2">
      <g>
       <use style="stroke:#000000;stroke-width:0.8;" x="118.432745" xlink:href="#m738db6f226" y="122.4"/>
      </g>
     </g>
     <g id="text_2">
      <!-- 200 -->
      <defs>
       <path d="M 19.1875 8.296875 
L 53.609375 8.296875 
L 53.609375 0 
L 7.328125 0 
L 7.328125 8.296875 
Q 12.9375 14.109375 22.625 23.890625 
Q 32.328125 33.6875 34.8125 36.53125 
Q 39.546875 41.84375 41.421875 45.53125 
Q 43.3125 49.21875 43.3125 52.78125 
Q 43.3125 58.59375 39.234375 62.25 
Q 35.15625 65.921875 28.609375 65.921875 
Q 23.96875 65.921875 18.8125 64.3125 
Q 13.671875 62.703125 7.8125 59.421875 
L 7.8125 69.390625 
Q 13.765625 71.78125 18.9375 73 
Q 24.125 74.21875 28.421875 74.21875 
Q 39.75 74.21875 46.484375 68.546875 
Q 53.21875 62.890625 53.21875 53.421875 
Q 53.21875 48.921875 51.53125 44.890625 
Q 49.859375 40.875 45.40625 35.40625 
Q 44.1875 33.984375 37.640625 27.21875 
Q 31.109375 20.453125 19.1875 8.296875 
z
" id="DejaVuSans-50"/>
      </defs>
      <g transform="translate(108.888995 136.998437)scale(0.1 -0.1)">
       <use xlink:href="#DejaVuSans-50"/>
       <use x="63.623047" xlink:href="#DejaVuSans-48"/>
       <use x="127.246094" xlink:href="#DejaVuSans-48"/>
      </g>
     </g>
    </g>
    <g id="xtick_3">
     <g id="line2d_3">
      <g>
       <use style="stroke:#000000;stroke-width:0.8;" x="159.381825" xlink:href="#m738db6f226" y="122.4"/>
      </g>
     </g>
     <g id="text_3">
      <!-- 400 -->
      <defs>
       <path d="M 37.796875 64.3125 
L 12.890625 25.390625 
L 37.796875 25.390625 
z
M 35.203125 72.90625 
L 47.609375 72.90625 
L 47.609375 25.390625 
L 58.015625 25.390625 
L 58.015625 17.1875 
L 47.609375 17.1875 
L 47.609375 0 
L 37.796875 0 
L 37.796875 17.1875 
L 4.890625 17.1875 
L 4.890625 26.703125 
z
" id="DejaVuSans-52"/>
      </defs>
      <g transform="translate(149.838075 136.998437)scale(0.1 -0.1)">
       <use xlink:href="#DejaVuSans-52"/>
       <use x="63.623047" xlink:href="#DejaVuSans-48"/>
       <use x="127.246094" xlink:href="#DejaVuSans-48"/>
      </g>
     </g>
    </g>
    <g id="xtick_4">
     <g id="line2d_4">
      <g>
       <use style="stroke:#000000;stroke-width:0.8;" x="200.330906" xlink:href="#m738db6f226" y="122.4"/>
      </g>
     </g>
     <g id="text_4">
      <!-- 600 -->
      <defs>
       <path d="M 33.015625 40.375 
Q 26.375 40.375 22.484375 35.828125 
Q 18.609375 31.296875 18.609375 23.390625 
Q 18.609375 15.53125 22.484375 10.953125 
Q 26.375 6.390625 33.015625 6.390625 
Q 39.65625 6.390625 43.53125 10.953125 
Q 47.40625 15.53125 47.40625 23.390625 
Q 47.40625 31.296875 43.53125 35.828125 
Q 39.65625 40.375 33.015625 40.375 
z
M 52.59375 71.296875 
L 52.59375 62.3125 
Q 48.875 64.0625 45.09375 64.984375 
Q 41.3125 65.921875 37.59375 65.921875 
Q 27.828125 65.921875 22.671875 59.328125 
Q 17.53125 52.734375 16.796875 39.40625 
Q 19.671875 43.65625 24.015625 45.921875 
Q 28.375 48.1875 33.59375 48.1875 
Q 44.578125 48.1875 50.953125 41.515625 
Q 57.328125 34.859375 57.328125 23.390625 
Q 57.328125 12.15625 50.6875 5.359375 
Q 44.046875 -1.421875 33.015625 -1.421875 
Q 20.359375 -1.421875 13.671875 8.265625 
Q 6.984375 17.96875 6.984375 36.375 
Q 6.984375 53.65625 15.1875 63.9375 
Q 23.390625 74.21875 37.203125 74.21875 
Q 40.921875 74.21875 44.703125 73.484375 
Q 48.484375 72.75 52.59375 71.296875 
z
" id="DejaVuSans-54"/>
      </defs>
      <g transform="translate(190.787156 136.998437)scale(0.1 -0.1)">
       <use xlink:href="#DejaVuSans-54"/>
       <use x="63.623047" xlink:href="#DejaVuSans-48"/>
       <use x="127.246094" xlink:href="#DejaVuSans-48"/>
      </g>
     </g>
    </g>
    <g id="xtick_5">
     <g id="line2d_5">
      <g>
       <use style="stroke:#000000;stroke-width:0.8;" x="241.279986" xlink:href="#m738db6f226" y="122.4"/>
      </g>
     </g>
     <g id="text_5">
      <!-- 800 -->
      <defs>
       <path d="M 31.78125 34.625 
Q 24.75 34.625 20.71875 30.859375 
Q 16.703125 27.09375 16.703125 20.515625 
Q 16.703125 13.921875 20.71875 10.15625 
Q 24.75 6.390625 31.78125 6.390625 
Q 38.8125 6.390625 42.859375 10.171875 
Q 46.921875 13.96875 46.921875 20.515625 
Q 46.921875 27.09375 42.890625 30.859375 
Q 38.875 34.625 31.78125 34.625 
z
M 21.921875 38.8125 
Q 15.578125 40.375 12.03125 44.71875 
Q 8.5 49.078125 8.5 55.328125 
Q 8.5 64.0625 14.71875 69.140625 
Q 20.953125 74.21875 31.78125 74.21875 
Q 42.671875 74.21875 48.875 69.140625 
Q 55.078125 64.0625 55.078125 55.328125 
Q 55.078125 49.078125 51.53125 44.71875 
Q 48 40.375 41.703125 38.8125 
Q 48.828125 37.15625 52.796875 32.3125 
Q 56.78125 27.484375 56.78125 20.515625 
Q 56.78125 9.90625 50.3125 4.234375 
Q 43.84375 -1.421875 31.78125 -1.421875 
Q 19.734375 -1.421875 13.25 4.234375 
Q 6.78125 9.90625 6.78125 20.515625 
Q 6.78125 27.484375 10.78125 32.3125 
Q 14.796875 37.15625 21.921875 38.8125 
z
M 18.3125 54.390625 
Q 18.3125 48.734375 21.84375 45.5625 
Q 25.390625 42.390625 31.78125 42.390625 
Q 38.140625 42.390625 41.71875 45.5625 
Q 45.3125 48.734375 45.3125 54.390625 
Q 45.3125 60.0625 41.71875 63.234375 
Q 38.140625 66.40625 31.78125 66.40625 
Q 25.390625 66.40625 21.84375 63.234375 
Q 18.3125 60.0625 18.3125 54.390625 
z
" id="DejaVuSans-56"/>
      </defs>
      <g transform="translate(231.736236 136.998437)scale(0.1 -0.1)">
       <use xlink:href="#DejaVuSans-56"/>
       <use x="63.623047" xlink:href="#DejaVuSans-48"/>
       <use x="127.246094" xlink:href="#DejaVuSans-48"/>
      </g>
     </g>
    </g>
    <g id="xtick_6">
     <g id="line2d_6">
      <g>
       <use style="stroke:#000000;stroke-width:0.8;" x="282.229066" xlink:href="#m738db6f226" y="122.4"/>
      </g>
     </g>
     <g id="text_6">
      <!-- 1000 -->
      <defs>
       <path d="M 12.40625 8.296875 
L 28.515625 8.296875 
L 28.515625 63.921875 
L 10.984375 60.40625 
L 10.984375 69.390625 
L 28.421875 72.90625 
L 38.28125 72.90625 
L 38.28125 8.296875 
L 54.390625 8.296875 
L 54.390625 0 
L 12.40625 0 
z
" id="DejaVuSans-49"/>
      </defs>
      <g transform="translate(269.504066 136.998437)scale(0.1 -0.1)">
       <use xlink:href="#DejaVuSans-49"/>
       <use x="63.623047" xlink:href="#DejaVuSans-48"/>
       <use x="127.246094" xlink:href="#DejaVuSans-48"/>
       <use x="190.869141" xlink:href="#DejaVuSans-48"/>
      </g>
     </g>
    </g>
    <g id="text_7">
     <!-- Index -->
     <defs>
      <path d="M 30.859375 1.8125 
L 30.859375 0 
L 2.484375 0 
L 2.484375 1.8125 
L 4.828125 1.8125 
Q 8.9375 1.8125 10.796875 4.203125 
Q 11.96875 5.765625 11.96875 11.71875 
L 11.96875 54.5 
Q 11.96875 59.515625 11.328125 61.140625 
Q 10.84375 62.359375 9.328125 63.234375 
Q 7.171875 64.40625 4.828125 64.40625 
L 2.484375 64.40625 
L 2.484375 66.21875 
L 30.859375 66.21875 
L 30.859375 64.40625 
L 28.46875 64.40625 
Q 24.421875 64.40625 22.5625 62.015625 
Q 21.34375 60.453125 21.34375 54.5 
L 21.34375 11.71875 
Q 21.34375 6.6875 21.96875 5.078125 
Q 22.46875 3.859375 24.03125 2.984375 
Q 26.125 1.8125 28.46875 1.8125 
z
" id="TimesNewRomanPSMT-73"/>
      <path d="M 16.15625 36.578125 
Q 24.03125 46.046875 31.15625 46.046875 
Q 34.8125 46.046875 37.453125 44.21875 
Q 40.09375 42.390625 41.65625 38.1875 
Q 42.71875 35.25 42.71875 29.203125 
L 42.71875 10.109375 
Q 42.71875 5.859375 43.40625 4.34375 
Q 43.953125 3.125 45.140625 2.4375 
Q 46.34375 1.765625 49.5625 1.765625 
L 49.5625 0 
L 27.4375 0 
L 27.4375 1.765625 
L 28.375 1.765625 
Q 31.5 1.765625 32.734375 2.703125 
Q 33.984375 3.65625 34.46875 5.515625 
Q 34.671875 6.25 34.671875 10.109375 
L 34.671875 28.421875 
Q 34.671875 34.515625 33.078125 37.28125 
Q 31.5 40.046875 27.734375 40.046875 
Q 21.921875 40.046875 16.15625 33.6875 
L 16.15625 10.109375 
Q 16.15625 5.5625 16.703125 4.5 
Q 17.390625 3.078125 18.578125 2.421875 
Q 19.78125 1.765625 23.4375 1.765625 
L 23.4375 0 
L 1.3125 0 
L 1.3125 1.765625 
L 2.296875 1.765625 
Q 5.71875 1.765625 6.90625 3.484375 
Q 8.109375 5.21875 8.109375 10.109375 
L 8.109375 26.703125 
Q 8.109375 34.765625 7.734375 36.515625 
Q 7.375 38.28125 6.609375 38.90625 
Q 5.859375 39.546875 4.59375 39.546875 
Q 3.21875 39.546875 1.3125 38.8125 
L 0.59375 40.578125 
L 14.0625 46.046875 
L 16.15625 46.046875 
z
" id="TimesNewRomanPSMT-110"/>
      <path d="M 34.71875 5.03125 
Q 31.453125 1.609375 28.328125 0.109375 
Q 25.203125 -1.375 21.578125 -1.375 
Q 14.265625 -1.375 8.796875 4.75 
Q 3.328125 10.890625 3.328125 20.515625 
Q 3.328125 30.125 9.375 38.109375 
Q 15.4375 46.09375 24.953125 46.09375 
Q 30.859375 46.09375 34.71875 42.328125 
L 34.71875 50.59375 
Q 34.71875 58.25 34.34375 60 
Q 33.984375 61.765625 33.203125 62.390625 
Q 32.421875 63.03125 31.25 63.03125 
Q 29.984375 63.03125 27.875 62.25 
L 27.25 63.96875 
L 40.578125 69.4375 
L 42.78125 69.4375 
L 42.78125 17.71875 
Q 42.78125 9.859375 43.140625 8.125 
Q 43.5 6.390625 44.3125 5.703125 
Q 45.125 5.03125 46.1875 5.03125 
Q 47.515625 5.03125 49.703125 5.859375 
L 50.25 4.15625 
L 36.96875 -1.375 
L 34.71875 -1.375 
z
M 34.71875 8.453125 
L 34.71875 31.5 
Q 34.421875 34.8125 32.953125 37.546875 
Q 31.5 40.28125 29.078125 41.671875 
Q 26.65625 43.0625 24.359375 43.0625 
Q 20.0625 43.0625 16.703125 39.203125 
Q 12.25 34.125 12.25 24.359375 
Q 12.25 14.5 16.546875 9.25 
Q 20.84375 4 26.125 4 
Q 30.5625 4 34.71875 8.453125 
z
" id="TimesNewRomanPSMT-100"/>
      <path d="M 10.640625 27.875 
Q 10.59375 17.921875 15.484375 12.25 
Q 20.359375 6.59375 26.953125 6.59375 
Q 31.34375 6.59375 34.59375 9 
Q 37.84375 11.421875 40.046875 17.28125 
L 41.546875 16.3125 
Q 40.53125 9.625 35.59375 4.125 
Q 30.671875 -1.375 23.25 -1.375 
Q 15.1875 -1.375 9.453125 4.90625 
Q 3.71875 11.1875 3.71875 21.78125 
Q 3.71875 33.25 9.59375 39.671875 
Q 15.484375 46.09375 24.359375 46.09375 
Q 31.890625 46.09375 36.71875 41.140625 
Q 41.546875 36.1875 41.546875 27.875 
z
M 10.640625 30.71875 
L 31.34375 30.71875 
Q 31.109375 35.015625 30.328125 36.765625 
Q 29.109375 39.5 26.6875 41.0625 
Q 24.265625 42.625 21.625 42.625 
Q 17.578125 42.625 14.375 39.46875 
Q 11.1875 36.328125 10.640625 30.71875 
z
" id="TimesNewRomanPSMT-101"/>
      <path d="M 1.3125 44.734375 
L 22.359375 44.734375 
L 22.359375 42.921875 
Q 20.359375 42.921875 19.546875 42.234375 
Q 18.75 41.546875 18.75 40.4375 
Q 18.75 39.265625 20.453125 36.8125 
Q 21 36.03125 22.078125 34.375 
L 25.25 29.296875 
L 28.90625 34.375 
Q 32.421875 39.203125 32.421875 40.484375 
Q 32.421875 41.5 31.59375 42.203125 
Q 30.765625 42.921875 28.90625 42.921875 
L 28.90625 44.734375 
L 44.046875 44.734375 
L 44.046875 42.921875 
Q 41.65625 42.78125 39.890625 41.609375 
Q 37.5 39.9375 33.34375 34.375 
L 27.25 26.21875 
L 38.375 10.203125 
Q 42.484375 4.296875 44.234375 3.09375 
Q 46 1.90625 48.78125 1.765625 
L 48.78125 0 
L 27.6875 0 
L 27.6875 1.765625 
Q 29.890625 1.765625 31.109375 2.734375 
Q 32.03125 3.421875 32.03125 4.546875 
Q 32.03125 5.671875 28.90625 10.203125 
L 22.359375 19.78125 
L 15.1875 10.203125 
Q 11.859375 5.765625 11.859375 4.9375 
Q 11.859375 3.765625 12.953125 2.8125 
Q 14.0625 1.859375 16.265625 1.765625 
L 16.265625 0 
L 1.65625 0 
L 1.65625 1.765625 
Q 3.421875 2 4.734375 2.984375 
Q 6.59375 4.390625 10.984375 10.203125 
L 20.359375 22.65625 
L 11.859375 34.96875 
Q 8.25 40.234375 6.265625 41.578125 
Q 4.296875 42.921875 1.3125 42.921875 
z
" id="TimesNewRomanPSMT-120"/>
     </defs>
     <g transform="translate(159.442187 156.965625)scale(0.2 -0.2)">
      <use xlink:href="#TimesNewRomanPSMT-73"/>
      <use x="33.300781" xlink:href="#TimesNewRomanPSMT-110"/>
      <use x="83.300781" xlink:href="#TimesNewRomanPSMT-100"/>
      <use x="133.300781" xlink:href="#TimesNewRomanPSMT-101"/>
      <use x="177.685547" xlink:href="#TimesNewRomanPSMT-120"/>
     </g>
    </g>
   </g>
   <g id="matplotlib.axis_2">
    <g id="ytick_1">
     <g id="line2d_7">
      <defs>
       <path d="M 0 0 
L -3.5 0 
" id="m29436bce27" style="stroke:#000000;stroke-width:0.8;"/>
      </defs>
      <g>
       <use style="stroke:#000000;stroke-width:0.8;" x="67.010938" xlink:href="#m29436bce27" y="118.244802"/>
      </g>
     </g>
     <g id="text_8">
      <!-- −0.02 -->
      <defs>
       <path d="M 10.59375 35.5 
L 73.1875 35.5 
L 73.1875 27.203125 
L 10.59375 27.203125 
z
" id="DejaVuSans-8722"/>
       <path d="M 10.6875 12.40625 
L 21 12.40625 
L 21 0 
L 10.6875 0 
z
" id="DejaVuSans-46"/>
      </defs>
      <g transform="translate(29.365625 122.044021)scale(0.1 -0.1)">
       <use xlink:href="#DejaVuSans-8722"/>
       <use x="83.789062" xlink:href="#DejaVuSans-48"/>
       <use x="147.412109" xlink:href="#DejaVuSans-46"/>
       <use x="179.199219" xlink:href="#DejaVuSans-48"/>
       <use x="242.822266" xlink:href="#DejaVuSans-50"/>
      </g>
     </g>
    </g>
    <g id="ytick_2">
     <g id="line2d_8">
      <g>
       <use style="stroke:#000000;stroke-width:0.8;" x="67.010938" xlink:href="#m29436bce27" y="91.684517"/>
      </g>
     </g>
     <g id="text_9">
      <!-- −0.01 -->
      <g transform="translate(29.365625 95.483736)scale(0.1 -0.1)">
       <use xlink:href="#DejaVuSans-8722"/>
       <use x="83.789062" xlink:href="#DejaVuSans-48"/>
       <use x="147.412109" xlink:href="#DejaVuSans-46"/>
       <use x="179.199219" xlink:href="#DejaVuSans-48"/>
       <use x="242.822266" xlink:href="#DejaVuSans-49"/>
      </g>
     </g>
    </g>
    <g id="ytick_3">
     <g id="line2d_9">
      <g>
       <use style="stroke:#000000;stroke-width:0.8;" x="67.010938" xlink:href="#m29436bce27" y="65.124232"/>
      </g>
     </g>
     <g id="text_10">
      <!-- 0.00 -->
      <g transform="translate(37.745313 68.923451)scale(0.1 -0.1)">
       <use xlink:href="#DejaVuSans-48"/>
       <use x="63.623047" xlink:href="#DejaVuSans-46"/>
       <use x="95.410156" xlink:href="#DejaVuSans-48"/>
       <use x="159.033203" xlink:href="#DejaVuSans-48"/>
      </g>
     </g>
    </g>
    <g id="ytick_4">
     <g id="line2d_10">
      <g>
       <use style="stroke:#000000;stroke-width:0.8;" x="67.010938" xlink:href="#m29436bce27" y="38.563947"/>
      </g>
     </g>
     <g id="text_11">
      <!-- 0.01 -->
      <g transform="translate(37.745313 42.363166)scale(0.1 -0.1)">
       <use xlink:href="#DejaVuSans-48"/>
       <use x="63.623047" xlink:href="#DejaVuSans-46"/>
       <use x="95.410156" xlink:href="#DejaVuSans-48"/>
       <use x="159.033203" xlink:href="#DejaVuSans-49"/>
      </g>
     </g>
    </g>
    <g id="ytick_5">
     <g id="line2d_11">
      <g>
       <use style="stroke:#000000;stroke-width:0.8;" x="67.010938" xlink:href="#m29436bce27" y="12.003662"/>
      </g>
     </g>
     <g id="text_12">
      <!-- 0.02 -->
      <g transform="translate(37.745313 15.802881)scale(0.1 -0.1)">
       <use xlink:href="#DejaVuSans-48"/>
       <use x="63.623047" xlink:href="#DejaVuSans-46"/>
       <use x="95.410156" xlink:href="#DejaVuSans-48"/>
       <use x="159.033203" xlink:href="#DejaVuSans-50"/>
      </g>
     </g>
    </g>
    <g id="text_13">
     <!-- Amplitude -->
     <defs>
      <path d="M 45.75 22.171875 
L 20.125 22.171875 
L 15.625 11.71875 
Q 13.96875 7.859375 13.96875 5.953125 
Q 13.96875 4.4375 15.40625 3.296875 
Q 16.84375 2.15625 21.625 1.8125 
L 21.625 0 
L 0.78125 0 
L 0.78125 1.8125 
Q 4.9375 2.546875 6.15625 3.71875 
Q 8.640625 6.0625 11.671875 13.234375 
L 34.96875 67.71875 
L 36.671875 67.71875 
L 59.71875 12.640625 
Q 62.5 6 64.765625 4.015625 
Q 67.046875 2.046875 71.09375 1.8125 
L 71.09375 0 
L 44.96875 0 
L 44.96875 1.8125 
Q 48.921875 2 50.3125 3.125 
Q 51.703125 4.25 51.703125 5.859375 
Q 51.703125 8.015625 49.75 12.640625 
z
M 44.390625 25.78125 
L 33.15625 52.546875 
L 21.625 25.78125 
z
" id="TimesNewRomanPSMT-65"/>
      <path d="M 16.40625 36.53125 
Q 21.296875 41.40625 22.171875 42.140625 
Q 24.359375 44 26.890625 45.015625 
Q 29.4375 46.046875 31.9375 46.046875 
Q 36.140625 46.046875 39.15625 43.59375 
Q 42.1875 41.15625 43.21875 36.53125 
Q 48.25 42.390625 51.703125 44.21875 
Q 55.171875 46.046875 58.84375 46.046875 
Q 62.40625 46.046875 65.15625 44.21875 
Q 67.921875 42.390625 69.53125 38.234375 
Q 70.609375 35.40625 70.609375 29.34375 
L 70.609375 10.109375 
Q 70.609375 5.90625 71.234375 4.34375 
Q 71.734375 3.265625 73.046875 2.515625 
Q 74.359375 1.765625 77.34375 1.765625 
L 77.34375 0 
L 55.28125 0 
L 55.28125 1.765625 
L 56.203125 1.765625 
Q 59.078125 1.765625 60.6875 2.875 
Q 61.8125 3.65625 62.3125 5.375 
Q 62.5 6.203125 62.5 10.109375 
L 62.5 29.34375 
Q 62.5 34.8125 61.1875 37.0625 
Q 59.28125 40.1875 55.078125 40.1875 
Q 52.484375 40.1875 49.875 38.890625 
Q 47.265625 37.59375 43.5625 34.078125 
L 43.453125 33.546875 
L 43.5625 31.453125 
L 43.5625 10.109375 
Q 43.5625 5.515625 44.0625 4.390625 
Q 44.578125 3.265625 45.984375 2.515625 
Q 47.40625 1.765625 50.828125 1.765625 
L 50.828125 0 
L 28.21875 0 
L 28.21875 1.765625 
Q 31.9375 1.765625 33.328125 2.640625 
Q 34.71875 3.515625 35.25 5.28125 
Q 35.5 6.109375 35.5 10.109375 
L 35.5 29.34375 
Q 35.5 34.8125 33.890625 37.203125 
Q 31.734375 40.328125 27.875 40.328125 
Q 25.25 40.328125 22.65625 38.921875 
Q 18.609375 36.765625 16.40625 34.078125 
L 16.40625 10.109375 
Q 16.40625 5.71875 17.015625 4.390625 
Q 17.625 3.078125 18.8125 2.421875 
Q 20.015625 1.765625 23.6875 1.765625 
L 23.6875 0 
L 1.5625 0 
L 1.5625 1.765625 
Q 4.640625 1.765625 5.859375 2.421875 
Q 7.078125 3.078125 7.703125 4.515625 
Q 8.34375 5.953125 8.34375 10.109375 
L 8.34375 27.203125 
Q 8.34375 34.578125 7.90625 36.71875 
Q 7.5625 38.328125 6.828125 38.9375 
Q 6.109375 39.546875 4.828125 39.546875 
Q 3.46875 39.546875 1.5625 38.8125 
L 0.828125 40.578125 
L 14.3125 46.046875 
L 16.40625 46.046875 
z
" id="TimesNewRomanPSMT-109"/>
      <path d="M -0.09375 40.28125 
L 13.671875 45.84375 
L 15.53125 45.84375 
L 15.53125 35.40625 
Q 19 41.3125 22.484375 43.671875 
Q 25.984375 46.046875 29.828125 46.046875 
Q 36.578125 46.046875 41.0625 40.765625 
Q 46.578125 34.328125 46.578125 23.96875 
Q 46.578125 12.40625 39.9375 4.828125 
Q 34.46875 -1.375 26.171875 -1.375 
Q 22.5625 -1.375 19.921875 -0.34375 
Q 17.96875 0.390625 15.53125 2.59375 
L 15.53125 -11.03125 
Q 15.53125 -15.625 16.09375 -16.859375 
Q 16.65625 -18.109375 18.046875 -18.84375 
Q 19.4375 -19.578125 23.09375 -19.578125 
L 23.09375 -21.390625 
L -0.34375 -21.390625 
L -0.34375 -19.578125 
L 0.875 -19.578125 
Q 3.5625 -19.625 5.46875 -18.5625 
Q 6.390625 -18.015625 6.90625 -16.8125 
Q 7.421875 -15.625 7.421875 -10.75 
L 7.421875 31.546875 
Q 7.421875 35.890625 7.03125 37.0625 
Q 6.640625 38.234375 5.78125 38.8125 
Q 4.9375 39.40625 3.46875 39.40625 
Q 2.296875 39.40625 0.484375 38.71875 
z
M 15.53125 32.515625 
L 15.53125 15.828125 
Q 15.53125 10.40625 15.96875 8.6875 
Q 16.65625 5.859375 19.3125 3.703125 
Q 21.96875 1.5625 26.03125 1.5625 
Q 30.90625 1.5625 33.9375 5.375 
Q 37.890625 10.359375 37.890625 19.390625 
Q 37.890625 29.640625 33.40625 35.15625 
Q 30.28125 38.96875 25.984375 38.96875 
Q 23.640625 38.96875 21.34375 37.796875 
Q 19.578125 36.921875 15.53125 32.515625 
z
" id="TimesNewRomanPSMT-112"/>
      <path d="M 18.5 69.4375 
L 18.5 10.109375 
Q 18.5 5.90625 19.109375 4.53125 
Q 19.734375 3.171875 21 2.46875 
Q 22.265625 1.765625 25.734375 1.765625 
L 25.734375 0 
L 3.8125 0 
L 3.8125 1.765625 
Q 6.890625 1.765625 8 2.390625 
Q 9.125 3.03125 9.765625 4.484375 
Q 10.40625 5.953125 10.40625 10.109375 
L 10.40625 50.734375 
Q 10.40625 58.296875 10.0625 60.03125 
Q 9.71875 61.765625 8.953125 62.390625 
Q 8.203125 63.03125 7.03125 63.03125 
Q 5.765625 63.03125 3.8125 62.25 
L 2.984375 63.96875 
L 16.3125 69.4375 
z
" id="TimesNewRomanPSMT-108"/>
      <path d="M 14.5 69.4375 
Q 16.546875 69.4375 17.984375 67.984375 
Q 19.4375 66.546875 19.4375 64.5 
Q 19.4375 62.453125 17.984375 60.984375 
Q 16.546875 59.515625 14.5 59.515625 
Q 12.453125 59.515625 10.984375 60.984375 
Q 9.515625 62.453125 9.515625 64.5 
Q 9.515625 66.546875 10.953125 67.984375 
Q 12.40625 69.4375 14.5 69.4375 
z
M 18.5625 46.046875 
L 18.5625 10.109375 
Q 18.5625 5.90625 19.171875 4.515625 
Q 19.78125 3.125 20.96875 2.4375 
Q 22.171875 1.765625 25.34375 1.765625 
L 25.34375 0 
L 3.609375 0 
L 3.609375 1.765625 
Q 6.890625 1.765625 8 2.390625 
Q 9.125 3.03125 9.78125 4.484375 
Q 10.453125 5.953125 10.453125 10.109375 
L 10.453125 27.34375 
Q 10.453125 34.625 10.015625 36.765625 
Q 9.671875 38.328125 8.9375 38.9375 
Q 8.203125 39.546875 6.9375 39.546875 
Q 5.5625 39.546875 3.609375 38.8125 
L 2.9375 40.578125 
L 16.40625 46.046875 
z
" id="TimesNewRomanPSMT-105"/>
      <path d="M 16.109375 59.421875 
L 16.109375 44.734375 
L 26.5625 44.734375 
L 26.5625 41.3125 
L 16.109375 41.3125 
L 16.109375 12.3125 
Q 16.109375 7.953125 17.359375 6.4375 
Q 18.609375 4.9375 20.5625 4.9375 
Q 22.171875 4.9375 23.6875 5.9375 
Q 25.203125 6.9375 26.03125 8.890625 
L 27.9375 8.890625 
Q 26.21875 4.109375 23.09375 1.6875 
Q 19.96875 -0.734375 16.65625 -0.734375 
Q 14.40625 -0.734375 12.25 0.515625 
Q 10.109375 1.765625 9.078125 4.078125 
Q 8.0625 6.390625 8.0625 11.234375 
L 8.0625 41.3125 
L 0.984375 41.3125 
L 0.984375 42.921875 
Q 3.65625 44 6.46875 46.5625 
Q 9.28125 49.125 11.46875 52.640625 
Q 12.59375 54.5 14.59375 59.421875 
z
" id="TimesNewRomanPSMT-116"/>
      <path d="M 42.328125 44.734375 
L 42.328125 17.625 
Q 42.328125 9.859375 42.6875 8.125 
Q 43.0625 6.390625 43.859375 5.703125 
Q 44.671875 5.03125 45.75 5.03125 
Q 47.265625 5.03125 49.171875 5.859375 
L 49.859375 4.15625 
L 36.46875 -1.375 
L 34.28125 -1.375 
L 34.28125 8.109375 
Q 28.515625 1.859375 25.484375 0.234375 
Q 22.46875 -1.375 19.09375 -1.375 
Q 15.328125 -1.375 12.5625 0.796875 
Q 9.8125 2.984375 8.734375 6.390625 
Q 7.671875 9.8125 7.671875 16.0625 
L 7.671875 36.03125 
Q 7.671875 39.203125 6.984375 40.421875 
Q 6.296875 41.65625 4.953125 42.3125 
Q 3.609375 42.96875 0.09375 42.921875 
L 0.09375 44.734375 
L 15.765625 44.734375 
L 15.765625 14.796875 
Q 15.765625 8.546875 17.9375 6.59375 
Q 20.125 4.640625 23.1875 4.640625 
Q 25.296875 4.640625 27.953125 5.953125 
Q 30.609375 7.28125 34.28125 10.984375 
L 34.28125 36.328125 
Q 34.28125 40.140625 32.890625 41.484375 
Q 31.5 42.828125 27.09375 42.921875 
L 27.09375 44.734375 
z
" id="TimesNewRomanPSMT-117"/>
     </defs>
     <g transform="translate(21.0875 107.573437)rotate(-90)scale(0.2 -0.2)">
      <use xlink:href="#TimesNewRomanPSMT-65"/>
      <use x="72.216797" xlink:href="#TimesNewRomanPSMT-109"/>
      <use x="150" xlink:href="#TimesNewRomanPSMT-112"/>
      <use x="200" xlink:href="#TimesNewRomanPSMT-108"/>
      <use x="227.783203" xlink:href="#TimesNewRomanPSMT-105"/>
      <use x="255.566406" xlink:href="#TimesNewRomanPSMT-116"/>
      <use x="283.349609" xlink:href="#TimesNewRomanPSMT-117"/>
      <use x="333.349609" xlink:href="#TimesNewRomanPSMT-100"/>
      <use x="383.349609" xlink:href="#TimesNewRomanPSMT-101"/>
     </g>
    </g>
   </g>
   <g id="line2d_12">
    <path clip-path="url(#p9757716e6b)" d="M 77.483665 94.386265 
L 77.893156 107.841936 
L 78.302646 115.137178 
L 78.507392 116.271996 
L 79.121628 106.058654 
L 79.735864 78.498846 
L 80.554846 34.808442 
L 80.964337 20.055838 
L 81.169082 14.949165 
L 81.373827 14.057524 
L 81.578573 15.273402 
L 81.988064 23.136053 
L 82.6023 50.939036 
L 83.830772 107.598764 
L 84.240263 114.975062 
L 84.649754 113.678134 
L 85.059245 103.95114 
L 85.468735 85.550914 
L 86.697208 28.080606 
L 87.106699 18.434673 
L 87.311444 14.219645 
L 87.516189 14.543877 
L 87.720935 16.408215 
L 87.92568 19.650546 
L 88.335171 33.349392 
L 89.973134 103.302674 
L 90.382625 113.353897 
L 90.792116 116.109879 
L 90.996861 114.407653 
L 91.611097 98.520237 
L 92.225334 73.554291 
L 93.044315 35.862199 
L 93.863297 16.732452 
L 94.068042 15.111286 
L 94.272788 14.462817 
L 94.477533 15.354458 
L 95.091769 28.891188 
L 96.320242 77.850379 
L 96.934478 101.033044 
L 97.343969 111.894852 
L 97.548714 113.272841 
L 97.753459 116.353056 
L 98.16295 114.65083 
L 98.367696 113.597073 
L 98.981932 99.168702 
L 99.596168 78.174612 
L 100.824641 32.863044 
L 101.234131 22.568645 
L 101.848368 13.652237 
L 102.053113 13.571176 
L 102.257858 14.381761 
L 103.07684 28.161664 
L 103.895822 53.370784 
L 104.919549 87.658429 
L 105.533785 103.545848 
L 105.943276 112.3812 
L 106.148021 113.434957 
L 106.557512 117.00152 
L 106.762257 116.434112 
L 107.171748 113.434957 
L 107.581239 107.274527 
L 108.195475 92.684042 
L 109.628693 49.074696 
L 110.447674 29.701771 
L 110.65242 26.297324 
L 111.061911 18.353612 
L 111.266656 17.624092 
L 111.471401 15.192342 
L 111.880892 15.111286 
L 112.085638 14.705993 
L 112.290383 15.516574 
L 112.699874 19.650546 
L 112.904619 21.352772 
L 113.928346 41.374162 
L 114.542582 56.856289 
L 114.747328 60.503911 
L 115.156819 73.878524 
L 115.361564 76.958738 
L 115.9758 92.35981 
L 116.385291 97.952829 
L 116.794782 105.734422 
L 117.613763 113.921305 
L 118.432745 116.19094 
L 118.63749 115.056123 
L 118.842236 115.461415 
L 119.865963 105.653364 
L 120.480199 96.412721 
L 120.684944 94.143091 
L 122.322908 65.043174 
L 123.141889 50.614803 
L 123.55138 43.886966 
L 124.370362 31.160821 
L 124.575107 30.593412 
L 124.984598 25.000393 
L 125.189343 24.270868 
L 125.598834 19.812662 
L 126.008325 16.894568 
L 126.21307 17.543032 
L 126.417816 16.732452 
L 126.622561 15.192342 
L 126.827306 14.86811 
L 127.032052 13.976469 
L 127.236797 14.624933 
L 127.646288 14.219645 
L 127.851033 15.921866 
L 128.055779 15.030226 
L 128.260524 15.030226 
L 129.079506 19.731606 
L 129.284251 19.893722 
L 129.488997 21.677004 
L 129.693742 22.082297 
L 130.103233 27.188965 
L 130.307978 27.513197 
L 130.512724 28.648014 
L 131.331705 35.213732 
L 131.536451 36.672782 
L 131.945941 40.158287 
L 132.150687 41.536278 
L 132.355432 42.022627 
L 133.379159 51.506443 
L 133.583905 51.344327 
L 133.78865 54.424541 
L 133.993396 55.559357 
L 134.402886 59.288037 
L 134.607632 59.61227 
L 134.812377 61.800843 
L 135.017123 62.611426 
L 135.221868 62.611426 
L 135.631359 66.015873 
L 136.45034 71.122544 
L 136.655086 71.28466 
L 136.859831 72.986883 
L 137.269322 73.797466 
L 137.678813 77.120855 
L 137.883558 77.201913 
L 138.088304 77.120855 
L 138.293049 79.390486 
L 138.497794 79.633662 
L 139.316776 82.227526 
L 139.521521 83.767632 
L 139.726267 83.362341 
L 140.135758 82.065409 
L 140.749994 84.253982 
L 140.954739 83.605516 
L 141.36423 83.200225 
L 141.568975 84.416099 
L 141.978466 82.875992 
L 142.183212 83.119167 
L 142.387957 83.038108 
L 142.592702 83.362341 
L 142.797448 83.200225 
L 143.002193 81.741175 
L 143.206939 82.875992 
L 143.411684 82.632816 
L 143.616429 82.146467 
L 143.821175 82.146467 
L 144.02592 81.498001 
L 144.230666 81.903293 
L 144.435411 81.011652 
L 144.640156 80.930594 
L 144.844902 80.201069 
L 145.049647 78.579904 
L 145.254393 78.498846 
L 145.663883 75.823923 
L 145.868629 75.175456 
L 146.073374 75.904981 
L 146.27812 74.202758 
L 146.482865 74.040641 
L 146.892356 71.203602 
L 147.097101 71.203602 
L 147.506592 70.311961 
L 147.916083 67.637038 
L 148.120828 67.06963 
L 148.325574 65.772698 
L 148.530319 62.449309 
L 148.93981 61.719785 
L 149.554046 56.775231 
L 150.168282 51.101153 
L 150.373028 50.695862 
L 150.577773 48.183055 
L 150.782518 47.210357 
L 151.396755 41.779452 
L 151.6015 41.130986 
L 152.010991 37.888655 
L 152.215736 36.510666 
L 152.420482 33.835743 
L 152.625227 32.781986 
L 152.829972 30.67447 
L 153.444209 28.161664 
L 153.648954 26.378382 
L 153.853699 23.541341 
L 154.058445 23.136053 
L 154.26319 21.352772 
L 154.467936 20.785363 
L 154.877426 17.543032 
L 155.082172 17.786209 
L 155.286917 16.002927 
L 155.696408 15.597634 
L 155.901153 13.733292 
L 156.105899 15.111286 
L 156.51539 14.300701 
L 156.720135 15.273402 
L 156.92488 14.949165 
L 157.334371 17.2188 
L 157.539117 16.651391 
L 158.972334 27.999548 
L 159.381825 32.944102 
L 160.200807 44.616492 
L 161.224534 61.233436 
L 162.862497 91.30605 
L 163.886224 106.463947 
L 164.090969 110.678974 
L 164.295715 110.760035 
L 164.50046 113.19178 
L 164.705206 114.245537 
L 164.909951 115.947763 
L 165.114696 115.461415 
L 165.319442 115.947763 
L 165.524187 116.758344 
L 166.138424 114.164482 
L 166.343169 114.164482 
L 166.957405 105.41019 
L 167.776387 90.738644 
L 167.981132 87.415255 
L 168.390623 77.282971 
L 168.595368 73.473233 
L 169.823841 40.96887 
L 171.257059 17.2188 
L 171.666549 15.435518 
L 172.07604 14.787049 
L 172.485531 17.380916 
L 172.690276 19.002081 
L 173.304513 31.647169 
L 173.714003 40.077229 
L 176.170948 107.031355 
L 176.785184 115.542471 
L 176.98993 117.163636 
L 177.194675 116.515172 
L 177.399421 116.677288 
L 178.218402 104.032198 
L 180.675347 28.32378 
L 181.084838 18.839965 
L 181.289583 15.516574 
L 181.494329 15.516574 
L 181.699074 14.705993 
L 181.903819 14.949165 
L 182.722801 27.999548 
L 183.746528 63.34095 
L 184.56551 94.305207 
L 184.975 105.977596 
L 185.384491 114.083421 
L 185.589237 115.947763 
L 185.793982 115.218239 
L 185.998727 115.218239 
L 186.408218 109.057809 
L 186.612964 105.491248 
L 187.022454 92.035575 
L 188.250927 41.45522 
L 189.069908 18.434673 
L 189.479399 13.571176 
L 189.684145 15.840811 
L 189.88889 16.813507 
L 190.093635 20.785363 
L 190.912617 47.777764 
L 192.141089 100.546693 
L 192.55058 112.056968 
L 192.755326 113.353897 
L 192.960071 115.623531 
L 193.164816 115.461415 
L 193.574307 108.247228 
L 194.188543 86.604672 
L 195.21227 39.428762 
L 195.621761 22.811821 
L 196.235997 13.733292 
L 196.440743 14.219645 
L 196.645488 17.461971 
L 197.46447 46.886123 
L 198.488197 97.709655 
L 198.897688 111.408499 
L 199.307179 116.028819 
L 199.511924 115.785647 
L 199.921415 106.058654 
L 200.535651 79.066253 
L 201.559378 27.026849 
L 202.173614 12.436364 
L 202.583105 16.732452 
L 202.992596 31.403995 
L 203.606832 63.259892 
L 204.425814 104.194314 
L 204.630559 111.084267 
L 205.04005 115.380355 
L 205.244795 113.353897 
L 205.449541 109.544162 
L 205.859031 93.008274 
L 206.473268 59.125921 
L 207.087504 26.945791 
L 207.292249 19.002081 
L 207.70174 13.814353 
L 207.906485 15.840811 
L 208.315976 27.91849 
L 208.930212 63.989416 
L 209.749194 106.382889 
L 209.953939 113.921305 
L 210.158685 116.515172 
L 210.36343 115.623531 
L 210.772921 104.680665 
L 211.182412 84.902449 
L 212.206139 25.486741 
L 212.61563 14.705993 
L 212.820375 15.435518 
L 213.229866 26.05415 
L 213.844102 61.719785 
L 214.458338 100.1414 
L 214.867829 113.84025 
L 215.072574 115.299299 
L 215.27732 114.245537 
L 215.686811 100.303519 
L 216.096301 76.310273 
L 216.915283 26.135208 
L 217.120028 18.596789 
L 217.324774 15.921866 
L 217.529519 16.083982 
L 217.734265 20.542187 
L 218.143755 39.834055 
L 219.167482 105.572306 
L 219.576973 115.785647 
L 219.781719 115.785647 
L 219.986464 109.949449 
L 220.395955 88.793244 
L 221.419682 21.92018 
L 221.829173 15.111286 
L 222.033918 17.543032 
L 222.443409 34.8895 
L 223.671881 114.245537 
L 223.876627 116.19094 
L 224.081372 114.65083 
L 224.286117 108.166168 
L 224.900354 71.933127 
L 225.51459 28.891188 
L 225.924081 14.624933 
L 226.128826 15.597634 
L 226.333571 20.704303 
L 226.743062 45.751307 
L 227.562044 102.897383 
L 227.766789 113.516013 
L 227.971535 114.326598 
L 228.17628 114.488714 
L 228.381025 108.976753 
L 228.995262 66.664339 
L 229.609498 23.946634 
L 229.814243 16.408215 
L 230.018989 15.030226 
L 230.223734 18.191496 
L 230.633225 41.536278 
L 231.656952 112.948609 
L 231.861697 115.866703 
L 232.066443 114.65083 
L 232.475934 96.331663 
L 233.499661 20.461131 
L 233.704406 14.462817 
L 233.909151 15.435518 
L 234.113897 21.758059 
L 234.523388 48.669405 
L 235.342369 109.706278 
L 235.547115 114.65083 
L 235.75186 115.218239 
L 235.956605 110.11157 
L 236.570842 65.69164 
L 236.980332 31.160821 
L 237.389823 15.273402 
L 237.594569 16.489275 
L 237.799314 23.379225 
L 238.41355 70.149844 
L 239.027786 113.110725 
L 239.232532 115.542471 
L 239.437277 113.678134 
L 239.846768 88.955362 
L 240.66575 23.054993 
L 240.870495 16.732452 
L 241.07524 15.111286 
L 241.279986 20.38007 
L 241.894222 69.015029 
L 242.303713 102.978441 
L 242.508458 111.975908 
L 242.713204 115.461415 
L 242.917949 112.867548 
L 243.32744 86.847846 
L 244.146421 19.812662 
L 244.351167 15.597634 
L 244.555912 16.570331 
L 244.760658 25.324625 
L 245.784385 91.873459 
L 245.98913 95.845315 
L 246.193875 94.467323 
L 246.398621 91.792401 
L 246.603366 87.172081 
L 247.217602 57.910047 
L 247.831839 24.108752 
L 248.241329 13.328004 
L 248.446075 17.380916 
L 248.65082 24.432984 
L 249.060311 53.613958 
L 249.879293 112.543316 
L 250.084038 116.758344 
L 250.288783 113.759189 
L 250.493529 105.085955 
L 251.107765 55.721473 
L 251.517256 23.784518 
L 251.722001 16.651391 
L 251.926747 13.490121 
L 252.131492 18.677849 
L 252.540983 45.913424 
L 253.155219 98.196003 
L 253.359964 109.138869 
L 253.56471 113.921305 
L 253.769455 114.164482 
L 253.974201 108.814637 
L 254.588437 59.288037 
L 254.997928 26.378382 
L 255.202673 16.489275 
L 255.407418 13.246944 
L 255.612164 16.894568 
L 255.816909 24.757216 
L 257.045382 112.786493 
L 257.250127 115.785647 
L 257.454872 111.570615 
L 257.864363 88.387954 
L 258.683345 22.892877 
L 258.88809 15.273402 
L 259.092836 14.219645 
L 259.297581 17.705148 
L 259.502326 26.45944 
L 260.730799 113.272841 
L 260.935544 115.947763 
L 261.14029 113.353897 
L 261.345035 105.491248 
L 261.754526 75.823923 
L 262.368762 27.999548 
L 262.778253 12.922712 
L 262.982998 14.300701 
L 263.187744 21.109595 
L 263.597234 47.372473 
L 264.416216 106.869239 
L 264.620961 113.353897 
L 264.825707 115.866703 
L 265.030452 113.516013 
L 265.439943 93.089332 
L 266.46367 20.623247 
L 266.668416 14.057524 
L 266.873161 13.814353 
L 267.077906 17.948325 
L 267.487397 38.618179 
L 268.71587 114.894007 
L 268.920615 115.542471 
L 269.12536 112.705432 
L 269.534851 91.30605 
L 270.763324 14.543877 
L 270.968069 12.922712 
L 271.172814 15.192342 
L 271.582305 32.700926 
L 272.810778 110.03051 
L 273.015523 114.73189 
L 273.220268 116.271996 
L 273.425014 111.165327 
L 273.834505 92.278749 
L 275.062977 16.813507 
L 275.267722 13.733292 
L 275.472468 12.760596 
L 275.881959 27.999548 
L 276.496195 65.610582 
L 277.110431 104.680665 
L 277.519922 116.353056 
L 277.724667 116.515172 
L 277.929413 113.029664 
L 278.338903 94.953672 
L 279.567376 21.271711 
L 279.772121 15.597634 
L 279.976867 14.300701 
L 280.181612 16.408215 
L 280.386357 21.190656 
L 280.795848 39.915113 
L 282.024321 109.625217 
L 282.229066 114.894007 
L 282.433811 115.947763 
L 282.638557 115.704587 
L 283.048048 102.005743 
L 283.457538 79.876836 
L 284.481265 23.541341 
L 284.686011 18.839965 
L 284.890756 16.813507 
L 285.300247 15.111286 
L 285.504992 15.67869 
L 285.709738 14.787049 
L 285.914483 16.002927 
L 286.323974 21.190656 
L 286.733465 33.754685 
L 286.93821 42.184743 
L 286.93821 42.184743 
" style="fill:none;stroke:#000000;stroke-linecap:square;stroke-width:0.5;"/>
   </g>
   <g id="patch_3">
    <path d="M 67.010938 122.4 
L 67.010938 7.2 
" style="fill:none;stroke:#000000;stroke-linecap:square;stroke-linejoin:miter;stroke-width:0.8;"/>
   </g>
   <g id="patch_4">
    <path d="M 297.410937 122.4 
L 297.410937 7.2 
" style="fill:none;stroke:#000000;stroke-linecap:square;stroke-linejoin:miter;stroke-width:0.8;"/>
   </g>
   <g id="patch_5">
    <path d="M 67.010938 122.4 
L 297.410937 122.4 
" style="fill:none;stroke:#000000;stroke-linecap:square;stroke-linejoin:miter;stroke-width:0.8;"/>
   </g>
   <g id="patch_6">
    <path d="M 67.010938 7.2 
L 297.410937 7.2 
" style="fill:none;stroke:#000000;stroke-linecap:square;stroke-linejoin:miter;stroke-width:0.8;"/>
   </g>
  </g>
 </g>
 <defs>
  <clipPath id="p9757716e6b">
   <rect height="115.2" width="230.4" x="67.010938" y="7.2"/>
  </clipPath>
 </defs>
</svg>
