<?xml version="1.0" encoding="utf-8" standalone="no"?>
<!DOCTYPE svg PUBLIC "-//W3C//DTD SVG 1.1//EN"
  "http://www.w3.org/Graphics/SVG/1.1/DTD/svg11.dtd">
<!-- Created with matplotlib (https://matplotlib.org/) -->
<svg height="168.44375pt" version="1.1" viewBox="0 0 304.610937 168.44375" width="304.610937pt" xmlns="http://www.w3.org/2000/svg" xmlns:xlink="http://www.w3.org/1999/xlink">
 <defs>
  <style type="text/css">
*{stroke-linecap:butt;stroke-linejoin:round;}
  </style>
 </defs>
 <g id="figure_1">
  <g id="patch_1">
   <path d="M 0 168.44375 
L 304.610937 168.44375 
L 304.610937 0 
L 0 0 
z
" style="fill:#ffffff;"/>
  </g>
  <g id="axes_1">
   <g id="patch_2">
    <path d="M 67.010938 122.4 
L 297.410937 122.4 
L 297.410937 7.2 
L 67.010938 7.2 
z
" style="fill:#ffffff;"/>
   </g>
   <g id="matplotlib.axis_1">
    <g id="xtick_1">
     <g id="line2d_1">
      <defs>
       <path d="M 0 0 
L 0 3.5 
" id="m73b8464378" style="stroke:#000000;stroke-width:0.8;"/>
      </defs>
      <g>
       <use style="stroke:#000000;stroke-width:0.8;" x="77.483665" xlink:href="#m73b8464378" y="122.4"/>
      </g>
     </g>
     <g id="text_1">
      <!-- 0 -->
      <defs>
       <path d="M 31.78125 66.40625 
Q 24.171875 66.40625 20.328125 58.90625 
Q 16.5 51.421875 16.5 36.375 
Q 16.5 21.390625 20.328125 13.890625 
Q 24.171875 6.390625 31.78125 6.390625 
Q 39.453125 6.390625 43.28125 13.890625 
Q 47.125 21.390625 47.125 36.375 
Q 47.125 51.421875 43.28125 58.90625 
Q 39.453125 66.40625 31.78125 66.40625 
z
M 31.78125 74.21875 
Q 44.046875 74.21875 50.515625 64.515625 
Q 56.984375 54.828125 56.984375 36.375 
Q 56.984375 17.96875 50.515625 8.265625 
Q 44.046875 -1.421875 31.78125 -1.421875 
Q 19.53125 -1.421875 13.0625 8.265625 
Q 6.59375 17.96875 6.59375 36.375 
Q 6.59375 54.828125 13.0625 64.515625 
Q 19.53125 74.21875 31.78125 74.21875 
z
" id="DejaVuSans-48"/>
      </defs>
      <g transform="translate(74.302415 136.998437)scale(0.1 -0.1)">
       <use xlink:href="#DejaVuSans-48"/>
      </g>
     </g>
    </g>
    <g id="xtick_2">
     <g id="line2d_2">
      <g>
       <use style="stroke:#000000;stroke-width:0.8;" x="118.432745" xlink:href="#m73b8464378" y="122.4"/>
      </g>
     </g>
     <g id="text_2">
      <!-- 200 -->
      <defs>
       <path d="M 19.1875 8.296875 
L 53.609375 8.296875 
L 53.609375 0 
L 7.328125 0 
L 7.328125 8.296875 
Q 12.9375 14.109375 22.625 23.890625 
Q 32.328125 33.6875 34.8125 36.53125 
Q 39.546875 41.84375 41.421875 45.53125 
Q 43.3125 49.21875 43.3125 52.78125 
Q 43.3125 58.59375 39.234375 62.25 
Q 35.15625 65.921875 28.609375 65.921875 
Q 23.96875 65.921875 18.8125 64.3125 
Q 13.671875 62.703125 7.8125 59.421875 
L 7.8125 69.390625 
Q 13.765625 71.78125 18.9375 73 
Q 24.125 74.21875 28.421875 74.21875 
Q 39.75 74.21875 46.484375 68.546875 
Q 53.21875 62.890625 53.21875 53.421875 
Q 53.21875 48.921875 51.53125 44.890625 
Q 49.859375 40.875 45.40625 35.40625 
Q 44.1875 33.984375 37.640625 27.21875 
Q 31.109375 20.453125 19.1875 8.296875 
z
" id="DejaVuSans-50"/>
      </defs>
      <g transform="translate(108.888995 136.998437)scale(0.1 -0.1)">
       <use xlink:href="#DejaVuSans-50"/>
       <use x="63.623047" xlink:href="#DejaVuSans-48"/>
       <use x="127.246094" xlink:href="#DejaVuSans-48"/>
      </g>
     </g>
    </g>
    <g id="xtick_3">
     <g id="line2d_3">
      <g>
       <use style="stroke:#000000;stroke-width:0.8;" x="159.381825" xlink:href="#m73b8464378" y="122.4"/>
      </g>
     </g>
     <g id="text_3">
      <!-- 400 -->
      <defs>
       <path d="M 37.796875 64.3125 
L 12.890625 25.390625 
L 37.796875 25.390625 
z
M 35.203125 72.90625 
L 47.609375 72.90625 
L 47.609375 25.390625 
L 58.015625 25.390625 
L 58.015625 17.1875 
L 47.609375 17.1875 
L 47.609375 0 
L 37.796875 0 
L 37.796875 17.1875 
L 4.890625 17.1875 
L 4.890625 26.703125 
z
" id="DejaVuSans-52"/>
      </defs>
      <g transform="translate(149.838075 136.998437)scale(0.1 -0.1)">
       <use xlink:href="#DejaVuSans-52"/>
       <use x="63.623047" xlink:href="#DejaVuSans-48"/>
       <use x="127.246094" xlink:href="#DejaVuSans-48"/>
      </g>
     </g>
    </g>
    <g id="xtick_4">
     <g id="line2d_4">
      <g>
       <use style="stroke:#000000;stroke-width:0.8;" x="200.330906" xlink:href="#m73b8464378" y="122.4"/>
      </g>
     </g>
     <g id="text_4">
      <!-- 600 -->
      <defs>
       <path d="M 33.015625 40.375 
Q 26.375 40.375 22.484375 35.828125 
Q 18.609375 31.296875 18.609375 23.390625 
Q 18.609375 15.53125 22.484375 10.953125 
Q 26.375 6.390625 33.015625 6.390625 
Q 39.65625 6.390625 43.53125 10.953125 
Q 47.40625 15.53125 47.40625 23.390625 
Q 47.40625 31.296875 43.53125 35.828125 
Q 39.65625 40.375 33.015625 40.375 
z
M 52.59375 71.296875 
L 52.59375 62.3125 
Q 48.875 64.0625 45.09375 64.984375 
Q 41.3125 65.921875 37.59375 65.921875 
Q 27.828125 65.921875 22.671875 59.328125 
Q 17.53125 52.734375 16.796875 39.40625 
Q 19.671875 43.65625 24.015625 45.921875 
Q 28.375 48.1875 33.59375 48.1875 
Q 44.578125 48.1875 50.953125 41.515625 
Q 57.328125 34.859375 57.328125 23.390625 
Q 57.328125 12.15625 50.6875 5.359375 
Q 44.046875 -1.421875 33.015625 -1.421875 
Q 20.359375 -1.421875 13.671875 8.265625 
Q 6.984375 17.96875 6.984375 36.375 
Q 6.984375 53.65625 15.1875 63.9375 
Q 23.390625 74.21875 37.203125 74.21875 
Q 40.921875 74.21875 44.703125 73.484375 
Q 48.484375 72.75 52.59375 71.296875 
z
" id="DejaVuSans-54"/>
      </defs>
      <g transform="translate(190.787156 136.998437)scale(0.1 -0.1)">
       <use xlink:href="#DejaVuSans-54"/>
       <use x="63.623047" xlink:href="#DejaVuSans-48"/>
       <use x="127.246094" xlink:href="#DejaVuSans-48"/>
      </g>
     </g>
    </g>
    <g id="xtick_5">
     <g id="line2d_5">
      <g>
       <use style="stroke:#000000;stroke-width:0.8;" x="241.279986" xlink:href="#m73b8464378" y="122.4"/>
      </g>
     </g>
     <g id="text_5">
      <!-- 800 -->
      <defs>
       <path d="M 31.78125 34.625 
Q 24.75 34.625 20.71875 30.859375 
Q 16.703125 27.09375 16.703125 20.515625 
Q 16.703125 13.921875 20.71875 10.15625 
Q 24.75 6.390625 31.78125 6.390625 
Q 38.8125 6.390625 42.859375 10.171875 
Q 46.921875 13.96875 46.921875 20.515625 
Q 46.921875 27.09375 42.890625 30.859375 
Q 38.875 34.625 31.78125 34.625 
z
M 21.921875 38.8125 
Q 15.578125 40.375 12.03125 44.71875 
Q 8.5 49.078125 8.5 55.328125 
Q 8.5 64.0625 14.71875 69.140625 
Q 20.953125 74.21875 31.78125 74.21875 
Q 42.671875 74.21875 48.875 69.140625 
Q 55.078125 64.0625 55.078125 55.328125 
Q 55.078125 49.078125 51.53125 44.71875 
Q 48 40.375 41.703125 38.8125 
Q 48.828125 37.15625 52.796875 32.3125 
Q 56.78125 27.484375 56.78125 20.515625 
Q 56.78125 9.90625 50.3125 4.234375 
Q 43.84375 -1.421875 31.78125 -1.421875 
Q 19.734375 -1.421875 13.25 4.234375 
Q 6.78125 9.90625 6.78125 20.515625 
Q 6.78125 27.484375 10.78125 32.3125 
Q 14.796875 37.15625 21.921875 38.8125 
z
M 18.3125 54.390625 
Q 18.3125 48.734375 21.84375 45.5625 
Q 25.390625 42.390625 31.78125 42.390625 
Q 38.140625 42.390625 41.71875 45.5625 
Q 45.3125 48.734375 45.3125 54.390625 
Q 45.3125 60.0625 41.71875 63.234375 
Q 38.140625 66.40625 31.78125 66.40625 
Q 25.390625 66.40625 21.84375 63.234375 
Q 18.3125 60.0625 18.3125 54.390625 
z
" id="DejaVuSans-56"/>
      </defs>
      <g transform="translate(231.736236 136.998437)scale(0.1 -0.1)">
       <use xlink:href="#DejaVuSans-56"/>
       <use x="63.623047" xlink:href="#DejaVuSans-48"/>
       <use x="127.246094" xlink:href="#DejaVuSans-48"/>
      </g>
     </g>
    </g>
    <g id="xtick_6">
     <g id="line2d_6">
      <g>
       <use style="stroke:#000000;stroke-width:0.8;" x="282.229066" xlink:href="#m73b8464378" y="122.4"/>
      </g>
     </g>
     <g id="text_6">
      <!-- 1000 -->
      <defs>
       <path d="M 12.40625 8.296875 
L 28.515625 8.296875 
L 28.515625 63.921875 
L 10.984375 60.40625 
L 10.984375 69.390625 
L 28.421875 72.90625 
L 38.28125 72.90625 
L 38.28125 8.296875 
L 54.390625 8.296875 
L 54.390625 0 
L 12.40625 0 
z
" id="DejaVuSans-49"/>
      </defs>
      <g transform="translate(269.504066 136.998437)scale(0.1 -0.1)">
       <use xlink:href="#DejaVuSans-49"/>
       <use x="63.623047" xlink:href="#DejaVuSans-48"/>
       <use x="127.246094" xlink:href="#DejaVuSans-48"/>
       <use x="190.869141" xlink:href="#DejaVuSans-48"/>
      </g>
     </g>
    </g>
    <g id="text_7">
     <!-- Index -->
     <defs>
      <path d="M 30.859375 1.8125 
L 30.859375 0 
L 2.484375 0 
L 2.484375 1.8125 
L 4.828125 1.8125 
Q 8.9375 1.8125 10.796875 4.203125 
Q 11.96875 5.765625 11.96875 11.71875 
L 11.96875 54.5 
Q 11.96875 59.515625 11.328125 61.140625 
Q 10.84375 62.359375 9.328125 63.234375 
Q 7.171875 64.40625 4.828125 64.40625 
L 2.484375 64.40625 
L 2.484375 66.21875 
L 30.859375 66.21875 
L 30.859375 64.40625 
L 28.46875 64.40625 
Q 24.421875 64.40625 22.5625 62.015625 
Q 21.34375 60.453125 21.34375 54.5 
L 21.34375 11.71875 
Q 21.34375 6.6875 21.96875 5.078125 
Q 22.46875 3.859375 24.03125 2.984375 
Q 26.125 1.8125 28.46875 1.8125 
z
" id="TimesNewRomanPSMT-73"/>
      <path d="M 16.15625 36.578125 
Q 24.03125 46.046875 31.15625 46.046875 
Q 34.8125 46.046875 37.453125 44.21875 
Q 40.09375 42.390625 41.65625 38.1875 
Q 42.71875 35.25 42.71875 29.203125 
L 42.71875 10.109375 
Q 42.71875 5.859375 43.40625 4.34375 
Q 43.953125 3.125 45.140625 2.4375 
Q 46.34375 1.765625 49.5625 1.765625 
L 49.5625 0 
L 27.4375 0 
L 27.4375 1.765625 
L 28.375 1.765625 
Q 31.5 1.765625 32.734375 2.703125 
Q 33.984375 3.65625 34.46875 5.515625 
Q 34.671875 6.25 34.671875 10.109375 
L 34.671875 28.421875 
Q 34.671875 34.515625 33.078125 37.28125 
Q 31.5 40.046875 27.734375 40.046875 
Q 21.921875 40.046875 16.15625 33.6875 
L 16.15625 10.109375 
Q 16.15625 5.5625 16.703125 4.5 
Q 17.390625 3.078125 18.578125 2.421875 
Q 19.78125 1.765625 23.4375 1.765625 
L 23.4375 0 
L 1.3125 0 
L 1.3125 1.765625 
L 2.296875 1.765625 
Q 5.71875 1.765625 6.90625 3.484375 
Q 8.109375 5.21875 8.109375 10.109375 
L 8.109375 26.703125 
Q 8.109375 34.765625 7.734375 36.515625 
Q 7.375 38.28125 6.609375 38.90625 
Q 5.859375 39.546875 4.59375 39.546875 
Q 3.21875 39.546875 1.3125 38.8125 
L 0.59375 40.578125 
L 14.0625 46.046875 
L 16.15625 46.046875 
z
" id="TimesNewRomanPSMT-110"/>
      <path d="M 34.71875 5.03125 
Q 31.453125 1.609375 28.328125 0.109375 
Q 25.203125 -1.375 21.578125 -1.375 
Q 14.265625 -1.375 8.796875 4.75 
Q 3.328125 10.890625 3.328125 20.515625 
Q 3.328125 30.125 9.375 38.109375 
Q 15.4375 46.09375 24.953125 46.09375 
Q 30.859375 46.09375 34.71875 42.328125 
L 34.71875 50.59375 
Q 34.71875 58.25 34.34375 60 
Q 33.984375 61.765625 33.203125 62.390625 
Q 32.421875 63.03125 31.25 63.03125 
Q 29.984375 63.03125 27.875 62.25 
L 27.25 63.96875 
L 40.578125 69.4375 
L 42.78125 69.4375 
L 42.78125 17.71875 
Q 42.78125 9.859375 43.140625 8.125 
Q 43.5 6.390625 44.3125 5.703125 
Q 45.125 5.03125 46.1875 5.03125 
Q 47.515625 5.03125 49.703125 5.859375 
L 50.25 4.15625 
L 36.96875 -1.375 
L 34.71875 -1.375 
z
M 34.71875 8.453125 
L 34.71875 31.5 
Q 34.421875 34.8125 32.953125 37.546875 
Q 31.5 40.28125 29.078125 41.671875 
Q 26.65625 43.0625 24.359375 43.0625 
Q 20.0625 43.0625 16.703125 39.203125 
Q 12.25 34.125 12.25 24.359375 
Q 12.25 14.5 16.546875 9.25 
Q 20.84375 4 26.125 4 
Q 30.5625 4 34.71875 8.453125 
z
" id="TimesNewRomanPSMT-100"/>
      <path d="M 10.640625 27.875 
Q 10.59375 17.921875 15.484375 12.25 
Q 20.359375 6.59375 26.953125 6.59375 
Q 31.34375 6.59375 34.59375 9 
Q 37.84375 11.421875 40.046875 17.28125 
L 41.546875 16.3125 
Q 40.53125 9.625 35.59375 4.125 
Q 30.671875 -1.375 23.25 -1.375 
Q 15.1875 -1.375 9.453125 4.90625 
Q 3.71875 11.1875 3.71875 21.78125 
Q 3.71875 33.25 9.59375 39.671875 
Q 15.484375 46.09375 24.359375 46.09375 
Q 31.890625 46.09375 36.71875 41.140625 
Q 41.546875 36.1875 41.546875 27.875 
z
M 10.640625 30.71875 
L 31.34375 30.71875 
Q 31.109375 35.015625 30.328125 36.765625 
Q 29.109375 39.5 26.6875 41.0625 
Q 24.265625 42.625 21.625 42.625 
Q 17.578125 42.625 14.375 39.46875 
Q 11.1875 36.328125 10.640625 30.71875 
z
" id="TimesNewRomanPSMT-101"/>
      <path d="M 1.3125 44.734375 
L 22.359375 44.734375 
L 22.359375 42.921875 
Q 20.359375 42.921875 19.546875 42.234375 
Q 18.75 41.546875 18.75 40.4375 
Q 18.75 39.265625 20.453125 36.8125 
Q 21 36.03125 22.078125 34.375 
L 25.25 29.296875 
L 28.90625 34.375 
Q 32.421875 39.203125 32.421875 40.484375 
Q 32.421875 41.5 31.59375 42.203125 
Q 30.765625 42.921875 28.90625 42.921875 
L 28.90625 44.734375 
L 44.046875 44.734375 
L 44.046875 42.921875 
Q 41.65625 42.78125 39.890625 41.609375 
Q 37.5 39.9375 33.34375 34.375 
L 27.25 26.21875 
L 38.375 10.203125 
Q 42.484375 4.296875 44.234375 3.09375 
Q 46 1.90625 48.78125 1.765625 
L 48.78125 0 
L 27.6875 0 
L 27.6875 1.765625 
Q 29.890625 1.765625 31.109375 2.734375 
Q 32.03125 3.421875 32.03125 4.546875 
Q 32.03125 5.671875 28.90625 10.203125 
L 22.359375 19.78125 
L 15.1875 10.203125 
Q 11.859375 5.765625 11.859375 4.9375 
Q 11.859375 3.765625 12.953125 2.8125 
Q 14.0625 1.859375 16.265625 1.765625 
L 16.265625 0 
L 1.65625 0 
L 1.65625 1.765625 
Q 3.421875 2 4.734375 2.984375 
Q 6.59375 4.390625 10.984375 10.203125 
L 20.359375 22.65625 
L 11.859375 34.96875 
Q 8.25 40.234375 6.265625 41.578125 
Q 4.296875 42.921875 1.3125 42.921875 
z
" id="TimesNewRomanPSMT-120"/>
     </defs>
     <g transform="translate(159.442187 156.965625)scale(0.2 -0.2)">
      <use xlink:href="#TimesNewRomanPSMT-73"/>
      <use x="33.300781" xlink:href="#TimesNewRomanPSMT-110"/>
      <use x="83.300781" xlink:href="#TimesNewRomanPSMT-100"/>
      <use x="133.300781" xlink:href="#TimesNewRomanPSMT-101"/>
      <use x="177.685547" xlink:href="#TimesNewRomanPSMT-120"/>
     </g>
    </g>
   </g>
   <g id="matplotlib.axis_2">
    <g id="ytick_1">
     <g id="line2d_7">
      <defs>
       <path d="M 0 0 
L -3.5 0 
" id="m372d67c831" style="stroke:#000000;stroke-width:0.8;"/>
      </defs>
      <g>
       <use style="stroke:#000000;stroke-width:0.8;" x="67.010938" xlink:href="#m372d67c831" y="117.59467"/>
      </g>
     </g>
     <g id="text_8">
      <!-- −0.02 -->
      <defs>
       <path d="M 10.59375 35.5 
L 73.1875 35.5 
L 73.1875 27.203125 
L 10.59375 27.203125 
z
" id="DejaVuSans-8722"/>
       <path d="M 10.6875 12.40625 
L 21 12.40625 
L 21 0 
L 10.6875 0 
z
" id="DejaVuSans-46"/>
      </defs>
      <g transform="translate(29.365625 121.393889)scale(0.1 -0.1)">
       <use xlink:href="#DejaVuSans-8722"/>
       <use x="83.789062" xlink:href="#DejaVuSans-48"/>
       <use x="147.412109" xlink:href="#DejaVuSans-46"/>
       <use x="179.199219" xlink:href="#DejaVuSans-48"/>
       <use x="242.822266" xlink:href="#DejaVuSans-50"/>
      </g>
     </g>
    </g>
    <g id="ytick_2">
     <g id="line2d_8">
      <g>
       <use style="stroke:#000000;stroke-width:0.8;" x="67.010938" xlink:href="#m372d67c831" y="91.136776"/>
      </g>
     </g>
     <g id="text_9">
      <!-- −0.01 -->
      <g transform="translate(29.365625 94.935995)scale(0.1 -0.1)">
       <use xlink:href="#DejaVuSans-8722"/>
       <use x="83.789062" xlink:href="#DejaVuSans-48"/>
       <use x="147.412109" xlink:href="#DejaVuSans-46"/>
       <use x="179.199219" xlink:href="#DejaVuSans-48"/>
       <use x="242.822266" xlink:href="#DejaVuSans-49"/>
      </g>
     </g>
    </g>
    <g id="ytick_3">
     <g id="line2d_9">
      <g>
       <use style="stroke:#000000;stroke-width:0.8;" x="67.010938" xlink:href="#m372d67c831" y="64.678883"/>
      </g>
     </g>
     <g id="text_10">
      <!-- 0.00 -->
      <g transform="translate(37.745313 68.478102)scale(0.1 -0.1)">
       <use xlink:href="#DejaVuSans-48"/>
       <use x="63.623047" xlink:href="#DejaVuSans-46"/>
       <use x="95.410156" xlink:href="#DejaVuSans-48"/>
       <use x="159.033203" xlink:href="#DejaVuSans-48"/>
      </g>
     </g>
    </g>
    <g id="ytick_4">
     <g id="line2d_10">
      <g>
       <use style="stroke:#000000;stroke-width:0.8;" x="67.010938" xlink:href="#m372d67c831" y="38.220989"/>
      </g>
     </g>
     <g id="text_11">
      <!-- 0.01 -->
      <g transform="translate(37.745313 42.020208)scale(0.1 -0.1)">
       <use xlink:href="#DejaVuSans-48"/>
       <use x="63.623047" xlink:href="#DejaVuSans-46"/>
       <use x="95.410156" xlink:href="#DejaVuSans-48"/>
       <use x="159.033203" xlink:href="#DejaVuSans-49"/>
      </g>
     </g>
    </g>
    <g id="ytick_5">
     <g id="line2d_11">
      <g>
       <use style="stroke:#000000;stroke-width:0.8;" x="67.010938" xlink:href="#m372d67c831" y="11.763096"/>
      </g>
     </g>
     <g id="text_12">
      <!-- 0.02 -->
      <g transform="translate(37.745313 15.562315)scale(0.1 -0.1)">
       <use xlink:href="#DejaVuSans-48"/>
       <use x="63.623047" xlink:href="#DejaVuSans-46"/>
       <use x="95.410156" xlink:href="#DejaVuSans-48"/>
       <use x="159.033203" xlink:href="#DejaVuSans-50"/>
      </g>
     </g>
    </g>
    <g id="text_13">
     <!-- Amplitude -->
     <defs>
      <path d="M 45.75 22.171875 
L 20.125 22.171875 
L 15.625 11.71875 
Q 13.96875 7.859375 13.96875 5.953125 
Q 13.96875 4.4375 15.40625 3.296875 
Q 16.84375 2.15625 21.625 1.8125 
L 21.625 0 
L 0.78125 0 
L 0.78125 1.8125 
Q 4.9375 2.546875 6.15625 3.71875 
Q 8.640625 6.0625 11.671875 13.234375 
L 34.96875 67.71875 
L 36.671875 67.71875 
L 59.71875 12.640625 
Q 62.5 6 64.765625 4.015625 
Q 67.046875 2.046875 71.09375 1.8125 
L 71.09375 0 
L 44.96875 0 
L 44.96875 1.8125 
Q 48.921875 2 50.3125 3.125 
Q 51.703125 4.25 51.703125 5.859375 
Q 51.703125 8.015625 49.75 12.640625 
z
M 44.390625 25.78125 
L 33.15625 52.546875 
L 21.625 25.78125 
z
" id="TimesNewRomanPSMT-65"/>
      <path d="M 16.40625 36.53125 
Q 21.296875 41.40625 22.171875 42.140625 
Q 24.359375 44 26.890625 45.015625 
Q 29.4375 46.046875 31.9375 46.046875 
Q 36.140625 46.046875 39.15625 43.59375 
Q 42.1875 41.15625 43.21875 36.53125 
Q 48.25 42.390625 51.703125 44.21875 
Q 55.171875 46.046875 58.84375 46.046875 
Q 62.40625 46.046875 65.15625 44.21875 
Q 67.921875 42.390625 69.53125 38.234375 
Q 70.609375 35.40625 70.609375 29.34375 
L 70.609375 10.109375 
Q 70.609375 5.90625 71.234375 4.34375 
Q 71.734375 3.265625 73.046875 2.515625 
Q 74.359375 1.765625 77.34375 1.765625 
L 77.34375 0 
L 55.28125 0 
L 55.28125 1.765625 
L 56.203125 1.765625 
Q 59.078125 1.765625 60.6875 2.875 
Q 61.8125 3.65625 62.3125 5.375 
Q 62.5 6.203125 62.5 10.109375 
L 62.5 29.34375 
Q 62.5 34.8125 61.1875 37.0625 
Q 59.28125 40.1875 55.078125 40.1875 
Q 52.484375 40.1875 49.875 38.890625 
Q 47.265625 37.59375 43.5625 34.078125 
L 43.453125 33.546875 
L 43.5625 31.453125 
L 43.5625 10.109375 
Q 43.5625 5.515625 44.0625 4.390625 
Q 44.578125 3.265625 45.984375 2.515625 
Q 47.40625 1.765625 50.828125 1.765625 
L 50.828125 0 
L 28.21875 0 
L 28.21875 1.765625 
Q 31.9375 1.765625 33.328125 2.640625 
Q 34.71875 3.515625 35.25 5.28125 
Q 35.5 6.109375 35.5 10.109375 
L 35.5 29.34375 
Q 35.5 34.8125 33.890625 37.203125 
Q 31.734375 40.328125 27.875 40.328125 
Q 25.25 40.328125 22.65625 38.921875 
Q 18.609375 36.765625 16.40625 34.078125 
L 16.40625 10.109375 
Q 16.40625 5.71875 17.015625 4.390625 
Q 17.625 3.078125 18.8125 2.421875 
Q 20.015625 1.765625 23.6875 1.765625 
L 23.6875 0 
L 1.5625 0 
L 1.5625 1.765625 
Q 4.640625 1.765625 5.859375 2.421875 
Q 7.078125 3.078125 7.703125 4.515625 
Q 8.34375 5.953125 8.34375 10.109375 
L 8.34375 27.203125 
Q 8.34375 34.578125 7.90625 36.71875 
Q 7.5625 38.328125 6.828125 38.9375 
Q 6.109375 39.546875 4.828125 39.546875 
Q 3.46875 39.546875 1.5625 38.8125 
L 0.828125 40.578125 
L 14.3125 46.046875 
L 16.40625 46.046875 
z
" id="TimesNewRomanPSMT-109"/>
      <path d="M -0.09375 40.28125 
L 13.671875 45.84375 
L 15.53125 45.84375 
L 15.53125 35.40625 
Q 19 41.3125 22.484375 43.671875 
Q 25.984375 46.046875 29.828125 46.046875 
Q 36.578125 46.046875 41.0625 40.765625 
Q 46.578125 34.328125 46.578125 23.96875 
Q 46.578125 12.40625 39.9375 4.828125 
Q 34.46875 -1.375 26.171875 -1.375 
Q 22.5625 -1.375 19.921875 -0.34375 
Q 17.96875 0.390625 15.53125 2.59375 
L 15.53125 -11.03125 
Q 15.53125 -15.625 16.09375 -16.859375 
Q 16.65625 -18.109375 18.046875 -18.84375 
Q 19.4375 -19.578125 23.09375 -19.578125 
L 23.09375 -21.390625 
L -0.34375 -21.390625 
L -0.34375 -19.578125 
L 0.875 -19.578125 
Q 3.5625 -19.625 5.46875 -18.5625 
Q 6.390625 -18.015625 6.90625 -16.8125 
Q 7.421875 -15.625 7.421875 -10.75 
L 7.421875 31.546875 
Q 7.421875 35.890625 7.03125 37.0625 
Q 6.640625 38.234375 5.78125 38.8125 
Q 4.9375 39.40625 3.46875 39.40625 
Q 2.296875 39.40625 0.484375 38.71875 
z
M 15.53125 32.515625 
L 15.53125 15.828125 
Q 15.53125 10.40625 15.96875 8.6875 
Q 16.65625 5.859375 19.3125 3.703125 
Q 21.96875 1.5625 26.03125 1.5625 
Q 30.90625 1.5625 33.9375 5.375 
Q 37.890625 10.359375 37.890625 19.390625 
Q 37.890625 29.640625 33.40625 35.15625 
Q 30.28125 38.96875 25.984375 38.96875 
Q 23.640625 38.96875 21.34375 37.796875 
Q 19.578125 36.921875 15.53125 32.515625 
z
" id="TimesNewRomanPSMT-112"/>
      <path d="M 18.5 69.4375 
L 18.5 10.109375 
Q 18.5 5.90625 19.109375 4.53125 
Q 19.734375 3.171875 21 2.46875 
Q 22.265625 1.765625 25.734375 1.765625 
L 25.734375 0 
L 3.8125 0 
L 3.8125 1.765625 
Q 6.890625 1.765625 8 2.390625 
Q 9.125 3.03125 9.765625 4.484375 
Q 10.40625 5.953125 10.40625 10.109375 
L 10.40625 50.734375 
Q 10.40625 58.296875 10.0625 60.03125 
Q 9.71875 61.765625 8.953125 62.390625 
Q 8.203125 63.03125 7.03125 63.03125 
Q 5.765625 63.03125 3.8125 62.25 
L 2.984375 63.96875 
L 16.3125 69.4375 
z
" id="TimesNewRomanPSMT-108"/>
      <path d="M 14.5 69.4375 
Q 16.546875 69.4375 17.984375 67.984375 
Q 19.4375 66.546875 19.4375 64.5 
Q 19.4375 62.453125 17.984375 60.984375 
Q 16.546875 59.515625 14.5 59.515625 
Q 12.453125 59.515625 10.984375 60.984375 
Q 9.515625 62.453125 9.515625 64.5 
Q 9.515625 66.546875 10.953125 67.984375 
Q 12.40625 69.4375 14.5 69.4375 
z
M 18.5625 46.046875 
L 18.5625 10.109375 
Q 18.5625 5.90625 19.171875 4.515625 
Q 19.78125 3.125 20.96875 2.4375 
Q 22.171875 1.765625 25.34375 1.765625 
L 25.34375 0 
L 3.609375 0 
L 3.609375 1.765625 
Q 6.890625 1.765625 8 2.390625 
Q 9.125 3.03125 9.78125 4.484375 
Q 10.453125 5.953125 10.453125 10.109375 
L 10.453125 27.34375 
Q 10.453125 34.625 10.015625 36.765625 
Q 9.671875 38.328125 8.9375 38.9375 
Q 8.203125 39.546875 6.9375 39.546875 
Q 5.5625 39.546875 3.609375 38.8125 
L 2.9375 40.578125 
L 16.40625 46.046875 
z
" id="TimesNewRomanPSMT-105"/>
      <path d="M 16.109375 59.421875 
L 16.109375 44.734375 
L 26.5625 44.734375 
L 26.5625 41.3125 
L 16.109375 41.3125 
L 16.109375 12.3125 
Q 16.109375 7.953125 17.359375 6.4375 
Q 18.609375 4.9375 20.5625 4.9375 
Q 22.171875 4.9375 23.6875 5.9375 
Q 25.203125 6.9375 26.03125 8.890625 
L 27.9375 8.890625 
Q 26.21875 4.109375 23.09375 1.6875 
Q 19.96875 -0.734375 16.65625 -0.734375 
Q 14.40625 -0.734375 12.25 0.515625 
Q 10.109375 1.765625 9.078125 4.078125 
Q 8.0625 6.390625 8.0625 11.234375 
L 8.0625 41.3125 
L 0.984375 41.3125 
L 0.984375 42.921875 
Q 3.65625 44 6.46875 46.5625 
Q 9.28125 49.125 11.46875 52.640625 
Q 12.59375 54.5 14.59375 59.421875 
z
" id="TimesNewRomanPSMT-116"/>
      <path d="M 42.328125 44.734375 
L 42.328125 17.625 
Q 42.328125 9.859375 42.6875 8.125 
Q 43.0625 6.390625 43.859375 5.703125 
Q 44.671875 5.03125 45.75 5.03125 
Q 47.265625 5.03125 49.171875 5.859375 
L 49.859375 4.15625 
L 36.46875 -1.375 
L 34.28125 -1.375 
L 34.28125 8.109375 
Q 28.515625 1.859375 25.484375 0.234375 
Q 22.46875 -1.375 19.09375 -1.375 
Q 15.328125 -1.375 12.5625 0.796875 
Q 9.8125 2.984375 8.734375 6.390625 
Q 7.671875 9.8125 7.671875 16.0625 
L 7.671875 36.03125 
Q 7.671875 39.203125 6.984375 40.421875 
Q 6.296875 41.65625 4.953125 42.3125 
Q 3.609375 42.96875 0.09375 42.921875 
L 0.09375 44.734375 
L 15.765625 44.734375 
L 15.765625 14.796875 
Q 15.765625 8.546875 17.9375 6.59375 
Q 20.125 4.640625 23.1875 4.640625 
Q 25.296875 4.640625 27.953125 5.953125 
Q 30.609375 7.28125 34.28125 10.984375 
L 34.28125 36.328125 
Q 34.28125 40.140625 32.890625 41.484375 
Q 31.5 42.828125 27.09375 42.921875 
L 27.09375 44.734375 
z
" id="TimesNewRomanPSMT-117"/>
     </defs>
     <g transform="translate(21.0875 107.573437)rotate(-90)scale(0.2 -0.2)">
      <use xlink:href="#TimesNewRomanPSMT-65"/>
      <use x="72.216797" xlink:href="#TimesNewRomanPSMT-109"/>
      <use x="150" xlink:href="#TimesNewRomanPSMT-112"/>
      <use x="200" xlink:href="#TimesNewRomanPSMT-108"/>
      <use x="227.783203" xlink:href="#TimesNewRomanPSMT-105"/>
      <use x="255.566406" xlink:href="#TimesNewRomanPSMT-116"/>
      <use x="283.349609" xlink:href="#TimesNewRomanPSMT-117"/>
      <use x="333.349609" xlink:href="#TimesNewRomanPSMT-100"/>
      <use x="383.349609" xlink:href="#TimesNewRomanPSMT-101"/>
     </g>
    </g>
   </g>
   <g id="line2d_12">
    <path clip-path="url(#pfb3a8e6ebb)" d="M 77.483665 16.958129 
L 77.68841 13.001585 
L 77.893156 18.169315 
L 78.302646 43.927218 
L 79.121628 107.877876 
L 79.326373 112.399637 
L 79.531119 111.753672 
L 79.735864 105.213263 
L 80.145355 73.237936 
L 80.759591 24.225248 
L 80.964337 15.423956 
L 81.169082 14.45501 
L 81.373827 18.815279 
L 81.783318 37.306064 
L 81.988064 43.927218 
L 82.192809 46.672574 
L 82.6023 42.070066 
L 83.011791 28.666265 
L 83.421281 16.71589 
L 83.626027 14.374262 
L 83.830772 13.970536 
L 84.035518 17.765585 
L 84.240263 25.597927 
L 85.059245 85.349802 
L 85.468735 109.815774 
L 85.673481 114.337535 
L 85.878226 113.045606 
L 86.082972 103.921332 
L 86.697208 55.958339 
L 87.106699 23.983011 
L 87.516189 12.436364 
L 87.720935 17.52335 
L 88.130426 43.361997 
L 88.949407 106.747434 
L 89.154153 114.337535 
L 89.358898 112.480385 
L 89.563643 106.747434 
L 89.973134 78.32492 
L 90.58737 28.101047 
L 90.792116 16.635147 
L 90.996861 13.647549 
L 91.201607 15.827686 
L 91.611097 39.809183 
L 92.634824 111.511433 
L 92.83957 113.28784 
L 93.044315 110.138757 
L 93.249061 101.418213 
L 94.477533 15.343213 
L 94.682278 13.647549 
L 94.887024 17.281111 
L 95.296515 42.150811 
L 96.115496 104.809536 
L 96.524987 114.902756 
L 96.729732 111.02696 
L 97.139223 88.902616 
L 98.16295 17.846333 
L 98.367696 13.647549 
L 98.572441 15.504704 
L 98.777187 22.368093 
L 99.391423 65.567086 
L 99.800914 96.250483 
L 100.210404 113.610822 
L 100.41515 114.176044 
L 100.619895 110.300248 
L 101.029386 87.126209 
L 101.848368 27.858807 
L 102.053113 18.250063 
L 102.257858 14.85874 
L 102.462604 15.343213 
L 102.667349 19.945722 
L 103.07684 44.169455 
L 103.895822 102.225671 
L 104.100567 110.380996 
L 104.305312 114.095301 
L 104.510058 113.368588 
L 104.714803 108.523841 
L 105.124294 85.349802 
L 106.148021 19.3805 
L 106.352766 15.585452 
L 106.557512 15.262465 
L 106.762257 19.219009 
L 107.171748 39.728437 
L 108.195475 105.939976 
L 108.604966 115.871708 
L 108.809711 112.722619 
L 109.014457 106.505195 
L 109.423947 82.927428 
L 110.447674 20.672434 
L 110.65242 16.554399 
L 110.857165 15.343213 
L 111.061911 17.846333 
L 111.471401 36.014132 
L 111.880892 61.368306 
L 112.495128 99.399567 
L 112.904619 116.19469 
L 113.109365 116.033199 
L 113.31411 113.126349 
L 113.518855 107.231907 
L 113.928346 84.461599 
L 114.952073 26.486131 
L 115.156819 17.52335 
L 115.361564 14.697244 
L 115.566309 16.31216 
L 115.771055 19.864974 
L 116.180546 37.95203 
L 116.794782 76.710004 
L 117.204273 100.6915 
L 117.613763 113.449331 
L 117.818509 115.306486 
L 118.023254 114.337535 
L 118.228 110.380996 
L 119.046981 67.98946 
L 119.865963 22.610332 
L 120.070708 17.200363 
L 120.275454 15.666195 
L 120.480199 17.200363 
L 120.88969 25.355688 
L 121.503926 58.542204 
L 122.527653 111.107703 
L 122.732398 115.467977 
L 122.937144 115.871708 
L 123.141889 113.93381 
L 123.346635 110.461739 
L 123.756125 94.312582 
L 124.370362 59.349661 
L 124.984598 27.858807 
L 125.394089 15.585452 
L 125.598834 15.504704 
L 125.803579 15.666195 
L 126.008325 19.219009 
L 126.417816 33.268776 
L 127.236797 75.8218 
L 127.851033 104.971027 
L 128.260524 114.418283 
L 128.46527 116.436929 
L 128.670015 115.467977 
L 129.079506 107.71638 
L 130.103233 56.765797 
L 130.717469 27.778062 
L 131.12696 18.007824 
L 131.331705 14.374262 
L 131.536451 14.616501 
L 131.741196 16.796638 
L 131.945941 20.349452 
L 132.355432 35.045183 
L 133.78865 100.207025 
L 134.198141 113.69157 
L 134.402886 115.064247 
L 134.812377 114.095301 
L 135.017123 112.561128 
L 135.426613 98.995839 
L 136.04085 73.560918 
L 137.269322 21.641386 
L 137.474067 19.3805 
L 137.678813 15.343213 
L 137.883558 14.212771 
L 138.293049 17.684841 
L 138.497794 20.833925 
L 139.112031 41.020371 
L 140.749994 105.697739 
L 141.159485 112.238146 
L 141.36423 114.176044 
L 141.568975 114.660522 
L 141.773721 113.69157 
L 142.387957 102.548653 
L 143.206939 72.430478 
L 144.435411 26.486131 
L 144.844902 17.200363 
L 145.254393 14.777992 
L 145.459138 13.647549 
L 145.663883 15.020231 
L 146.27812 24.063757 
L 146.68761 35.28742 
L 148.735064 104.32506 
L 148.93981 106.908925 
L 149.144555 111.753672 
L 149.349301 113.93381 
L 149.554046 113.853062 
L 149.758791 115.306486 
L 149.963537 114.256792 
L 151.192009 90.19455 
L 152.010991 63.38695 
L 152.420482 50.144643 
L 152.829972 37.709794 
L 153.239463 27.616571 
L 153.444209 24.871215 
L 154.058445 12.920837 
L 154.26319 13.80904 
L 154.467936 13.970536 
L 154.672681 13.486058 
L 155.082172 16.231417 
L 156.310644 39.970674 
L 156.92488 55.716101 
L 157.539117 73.964647 
L 157.948607 83.573395 
L 158.767589 102.79089 
L 158.972334 106.101469 
L 159.17708 107.151164 
L 159.586571 113.126349 
L 159.791316 113.449331 
L 159.996061 115.144995 
L 160.200807 113.207097 
L 160.610298 113.449331 
L 161.83877 97.946144 
L 163.271988 68.635426 
L 163.681479 58.703695 
L 165.114696 31.007894 
L 165.524187 24.871215 
L 166.75266 14.45501 
L 166.957405 14.293519 
L 167.162151 13.566806 
L 167.366896 13.889788 
L 167.571641 13.80904 
L 167.776387 14.45501 
L 168.185878 14.85874 
L 168.595368 19.461248 
L 169.209605 24.871215 
L 169.619095 30.846403 
L 170.233332 37.709794 
L 170.847568 47.399287 
L 171.257059 52.728507 
L 171.666549 59.591899 
L 173.099767 79.374614 
L 173.304513 83.088921 
L 173.509258 84.300108 
L 174.73773 96.977195 
L 174.942476 97.703905 
L 175.351967 102.710144 
L 175.761457 105.85923 
L 176.170948 107.312655 
L 176.375694 108.76608 
L 176.580439 111.02696 
L 176.785184 110.461739 
L 177.194675 112.561128 
L 177.399421 113.28784 
L 177.604166 113.368588 
L 177.808911 113.69157 
L 178.013657 115.064247 
L 178.218402 114.418283 
L 178.423148 115.467977 
L 178.627893 115.064247 
L 178.832638 115.467977 
L 179.037384 114.499026 
L 179.242129 115.548725 
L 179.446875 115.064247 
L 179.65162 116.19469 
L 180.265856 114.176044 
L 180.470602 116.113942 
L 180.880092 114.014553 
L 181.084838 113.93381 
L 181.289583 115.629469 
L 181.699074 111.915163 
L 181.903819 112.318894 
L 182.108565 112.157403 
L 182.31331 112.318894 
L 182.518056 111.915163 
L 182.722801 110.542487 
L 182.927546 111.107703 
L 183.337037 108.443093 
L 183.541783 109.331296 
L 183.746528 109.654283 
L 183.951273 110.380996 
L 184.156019 108.443093 
L 184.360764 108.685332 
L 184.56551 109.331296 
L 184.975 106.828177 
L 185.179746 107.151164 
L 185.384491 107.71638 
L 185.589237 106.747434 
L 185.793982 106.343703 
L 186.203473 106.101469 
L 186.408218 106.908925 
L 186.817709 105.697739 
L 187.022454 105.85923 
L 187.2272 105.132518 
L 187.636691 105.939976 
L 188.046181 105.374754 
L 188.250927 106.26296 
L 188.455672 104.728788 
L 189.069908 106.101469 
L 189.274654 107.474146 
L 189.479399 106.020721 
L 189.684145 106.182212 
L 189.88889 107.958619 
L 190.093635 107.71638 
L 190.298381 106.343703 
L 190.503126 106.747434 
L 190.912617 109.412044 
L 191.117362 108.281602 
L 191.322108 110.461739 
L 191.526853 110.946212 
L 191.731599 109.735026 
L 192.141089 110.62323 
L 192.345835 109.492792 
L 192.55058 111.753672 
L 192.755326 112.480385 
L 192.960071 111.107703 
L 193.164816 112.399637 
L 193.574307 113.207097 
L 193.779053 114.014553 
L 193.983798 114.014553 
L 194.188543 115.467977 
L 194.393289 115.952451 
L 194.80278 115.064247 
L 195.21227 116.356181 
L 195.417016 115.225738 
L 195.621761 115.629469 
L 195.826507 117.002145 
L 196.031252 116.113942 
L 196.235997 116.59842 
L 196.440743 115.952451 
L 196.645488 117.163636 
L 197.259724 115.548725 
L 197.46447 115.467977 
L 197.669215 115.79096 
L 198.078706 113.28784 
L 198.283451 112.803367 
L 198.488197 113.126349 
L 198.897688 111.753672 
L 199.102433 109.169805 
L 199.511924 107.635637 
L 199.716669 106.101469 
L 199.921415 103.517602 
L 200.12616 102.710144 
L 200.330906 102.548653 
L 201.354633 91.244244 
L 201.764123 86.480242 
L 203.606832 61.045323 
L 204.016323 55.635356 
L 204.425814 49.175694 
L 204.630559 45.299896 
L 204.835304 43.765727 
L 205.244795 37.144573 
L 205.449541 35.529657 
L 205.859031 29.554469 
L 207.087504 16.635147 
L 207.292249 16.150669 
L 207.496995 16.635147 
L 207.70174 14.777992 
L 207.906485 15.100974 
L 208.111231 14.05128 
L 208.315976 13.647549 
L 208.520722 15.423956 
L 208.725467 15.908434 
L 208.930212 15.504704 
L 209.339703 19.057518 
L 209.544449 22.448841 
L 209.749194 23.175553 
L 209.953939 25.032706 
L 210.36343 32.38057 
L 210.772921 39.163216 
L 213.229866 92.293939 
L 213.639357 99.238076 
L 213.844102 104.244314 
L 214.048847 105.294009 
L 214.458338 110.62323 
L 214.663084 111.43069 
L 214.867829 113.93381 
L 215.072574 114.660522 
L 215.27732 115.952451 
L 215.482065 113.610822 
L 215.686811 113.368588 
L 216.096301 110.703978 
L 217.324774 88.579634 
L 218.143755 66.213053 
L 219.576973 28.424029 
L 220.6007 14.132028 
L 220.805446 12.678603 
L 221.010191 13.082333 
L 221.214936 14.939483 
L 221.419682 15.100974 
L 221.624427 17.281111 
L 222.238663 28.747011 
L 224.695608 103.275365 
L 224.900354 105.85923 
L 225.309844 113.69157 
L 225.719335 115.144995 
L 225.924081 113.368588 
L 226.128826 113.126349 
L 226.947808 98.511363 
L 227.562044 77.275224 
L 229.200007 23.337045 
L 229.814243 13.80904 
L 230.018989 12.759346 
L 230.223734 13.80904 
L 230.428479 16.150669 
L 231.042716 28.747011 
L 232.271188 76.387021 
L 233.09017 104.244314 
L 233.499661 112.157403 
L 233.704406 113.93381 
L 233.909151 113.69157 
L 234.113897 115.225738 
L 234.318642 112.480385 
L 234.932878 96.49272 
L 235.342369 81.474005 
L 236.366096 38.275013 
L 236.980332 18.492297 
L 237.185078 14.697244 
L 237.594569 13.486058 
L 238.208805 25.436434 
L 238.618296 40.05142 
L 240.256259 109.492792 
L 240.461004 111.672924 
L 240.66575 115.629469 
L 240.870495 116.19469 
L 241.07524 114.014553 
L 241.484731 103.921332 
L 242.098967 79.374614 
L 242.713204 49.740914 
L 243.32744 24.063757 
L 243.532185 18.653788 
L 243.941676 14.697244 
L 244.146421 16.231417 
L 244.555912 23.660027 
L 244.965403 40.535895 
L 246.603366 113.368588 
L 246.808112 114.499026 
L 247.012857 114.741265 
L 247.217602 112.399637 
L 247.627093 101.498958 
L 248.241329 71.380782 
L 249.265056 22.28735 
L 249.674547 14.535753 
L 249.879293 15.585452 
L 250.084038 18.330806 
L 250.493529 31.411621 
L 250.90302 53.616711 
L 251.722001 97.865399 
L 252.131492 111.672924 
L 252.336237 115.225738 
L 252.540983 115.064247 
L 252.745728 112.722619 
L 252.950474 108.039367 
L 253.56471 78.082682 
L 254.383691 30.846403 
L 254.793182 16.31216 
L 254.997928 14.132028 
L 255.202673 15.585452 
L 255.612164 24.871215 
L 256.431145 72.268986 
L 257.045382 105.213263 
L 257.454872 116.356181 
L 257.659618 116.033199 
L 257.864363 112.157403 
L 258.478599 84.300108 
L 259.502326 22.368093 
L 259.707072 15.746943 
L 259.911817 14.132028 
L 260.116563 16.069926 
L 260.321308 19.703483 
L 260.730799 37.467555 
L 261.959271 110.2195 
L 262.164017 116.033199 
L 262.368762 116.679163 
L 262.573507 113.93381 
L 262.982998 96.411974 
L 263.597234 55.55461 
L 264.211471 19.945722 
L 264.620961 14.05128 
L 264.825707 16.958129 
L 265.030452 23.175553 
L 265.439943 47.157049 
L 266.46367 111.269199 
L 266.668416 116.19469 
L 266.873161 115.952451 
L 267.282652 104.648042 
L 268.71587 17.200363 
L 268.920615 13.001585 
L 269.12536 15.100974 
L 269.534851 33.349522 
L 270.763324 110.865469 
L 270.968069 115.548725 
L 271.172814 114.337535 
L 271.582305 97.138686 
L 272.810778 17.846333 
L 273.015523 14.697244 
L 273.220268 15.181722 
L 273.425014 22.125859 
L 273.834505 47.480032 
L 274.653486 105.697739 
L 274.858232 112.238146 
L 275.062977 114.660522 
L 275.267722 111.672924 
L 275.472468 103.759839 
L 275.881959 74.772105 
L 276.496195 28.827757 
L 276.905686 14.535753 
L 277.110431 14.777992 
L 277.315176 20.510943 
L 277.724667 47.237795 
L 278.543649 106.747434 
L 278.748394 113.853062 
L 278.95314 114.418283 
L 279.157885 110.138757 
L 279.567376 85.75353 
L 280.386357 22.771823 
L 280.591103 16.069926 
L 280.795848 13.80904 
L 281.000594 17.52335 
L 281.410084 42.958269 
L 282.229066 106.424451 
L 282.433811 112.803367 
L 282.638557 114.418283 
L 282.843302 109.089062 
L 283.252793 83.49265 
L 284.071775 19.864974 
L 284.27652 14.132028 
L 284.481265 13.405315 
L 285.914483 67.42424 
L 286.528719 79.213123 
L 286.733465 80.666547 
L 286.93821 83.654141 
L 286.93821 83.654141 
" style="fill:none;stroke:#000000;stroke-linecap:square;stroke-width:0.5;"/>
   </g>
   <g id="patch_3">
    <path d="M 67.010938 122.4 
L 67.010938 7.2 
" style="fill:none;stroke:#000000;stroke-linecap:square;stroke-linejoin:miter;stroke-width:0.8;"/>
   </g>
   <g id="patch_4">
    <path d="M 297.410937 122.4 
L 297.410937 7.2 
" style="fill:none;stroke:#000000;stroke-linecap:square;stroke-linejoin:miter;stroke-width:0.8;"/>
   </g>
   <g id="patch_5">
    <path d="M 67.010938 122.4 
L 297.410937 122.4 
" style="fill:none;stroke:#000000;stroke-linecap:square;stroke-linejoin:miter;stroke-width:0.8;"/>
   </g>
   <g id="patch_6">
    <path d="M 67.010938 7.2 
L 297.410937 7.2 
" style="fill:none;stroke:#000000;stroke-linecap:square;stroke-linejoin:miter;stroke-width:0.8;"/>
   </g>
  </g>
 </g>
 <defs>
  <clipPath id="pfb3a8e6ebb">
   <rect height="115.2" width="230.4" x="67.010938" y="7.2"/>
  </clipPath>
 </defs>
</svg>
