<?xml version="1.0" encoding="utf-8" standalone="no"?>
<!DOCTYPE svg PUBLIC "-//W3C//DTD SVG 1.1//EN"
  "http://www.w3.org/Graphics/SVG/1.1/DTD/svg11.dtd">
<!-- Created with matplotlib (https://matplotlib.org/) -->
<svg height="178.577485pt" version="1.1" viewBox="0 0 304.424959 178.577485" width="304.424959pt" xmlns="http://www.w3.org/2000/svg" xmlns:xlink="http://www.w3.org/1999/xlink">
 <defs>
  <style type="text/css">
*{stroke-linecap:butt;stroke-linejoin:round;}
  </style>
 </defs>
 <g id="figure_1">
  <g id="patch_1">
   <path d="M 0 178.577485 
L 304.424959 178.577485 
L 304.424959 0 
L 0 0 
z
" style="fill:#ffffff;"/>
  </g>
  <g id="axes_1">
   <g id="patch_2">
    <path d="M 60.648438 124.046235 
L 291.048437 124.046235 
L 291.048437 8.846235 
L 60.648438 8.846235 
z
" style="fill:#ffffff;"/>
   </g>
   <g id="matplotlib.axis_1">
    <g id="xtick_1">
     <g id="line2d_1">
      <defs>
       <path d="M 0 0 
L 0 3.5 
" id="m4a59d6c87c" style="stroke:#000000;stroke-width:0.8;"/>
      </defs>
      <g>
       <use style="stroke:#000000;stroke-width:0.8;" x="71.121165" xlink:href="#m4a59d6c87c" y="124.046235"/>
      </g>
     </g>
     <g id="text_1">
      <!-- 0 -->
      <defs>
       <path d="M 3.609375 32.71875 
Q 3.609375 44.046875 7.03125 52.21875 
Q 10.453125 60.40625 16.109375 64.40625 
Q 20.515625 67.578125 25.203125 67.578125 
Q 32.8125 67.578125 38.875 59.8125 
Q 46.4375 50.203125 46.4375 33.734375 
Q 46.4375 22.21875 43.109375 14.15625 
Q 39.796875 6.109375 34.640625 2.46875 
Q 29.5 -1.171875 24.703125 -1.171875 
Q 15.234375 -1.171875 8.9375 10.015625 
Q 3.609375 19.4375 3.609375 32.71875 
z
M 13.1875 31.5 
Q 13.1875 17.828125 16.546875 9.1875 
Q 19.34375 1.90625 24.859375 1.90625 
Q 27.484375 1.90625 30.3125 4.265625 
Q 33.15625 6.640625 34.625 12.203125 
Q 36.859375 20.609375 36.859375 35.890625 
Q 36.859375 47.21875 34.515625 54.78125 
Q 32.765625 60.40625 29.984375 62.75 
Q 27.984375 64.359375 25.140625 64.359375 
Q 21.828125 64.359375 19.234375 61.375 
Q 15.71875 57.328125 14.453125 48.625 
Q 13.1875 39.9375 13.1875 31.5 
z
" id="TimesNewRomanPSMT-48"/>
      </defs>
      <g transform="translate(66.121165 144.933735)scale(0.2 -0.2)">
       <use xlink:href="#TimesNewRomanPSMT-48"/>
      </g>
     </g>
    </g>
    <g id="xtick_2">
     <g id="line2d_2">
      <g>
       <use style="stroke:#000000;stroke-width:0.8;" x="123.897113" xlink:href="#m4a59d6c87c" y="124.046235"/>
      </g>
     </g>
     <g id="text_2">
      <!-- 32 -->
      <defs>
       <path d="M 5.078125 53.609375 
Q 7.90625 60.296875 12.21875 63.9375 
Q 16.546875 67.578125 23 67.578125 
Q 30.953125 67.578125 35.203125 62.40625 
Q 38.421875 58.546875 38.421875 54.15625 
Q 38.421875 46.921875 29.34375 39.203125 
Q 35.453125 36.8125 38.578125 32.375 
Q 41.703125 27.9375 41.703125 21.921875 
Q 41.703125 13.328125 36.234375 7.03125 
Q 29.109375 -1.171875 15.578125 -1.171875 
Q 8.890625 -1.171875 6.46875 0.484375 
Q 4.046875 2.15625 4.046875 4.046875 
Q 4.046875 5.46875 5.1875 6.546875 
Q 6.34375 7.625 7.953125 7.625 
Q 9.1875 7.625 10.453125 7.234375 
Q 11.28125 6.984375 14.203125 5.4375 
Q 17.140625 3.90625 18.265625 3.609375 
Q 20.0625 3.078125 22.125 3.078125 
Q 27.09375 3.078125 30.78125 6.9375 
Q 34.46875 10.796875 34.46875 16.0625 
Q 34.46875 19.921875 32.765625 23.578125 
Q 31.5 26.3125 29.984375 27.734375 
Q 27.875 29.6875 24.21875 31.265625 
Q 20.5625 32.859375 16.75 32.859375 
L 15.1875 32.859375 
L 15.1875 34.328125 
Q 19.046875 34.8125 22.921875 37.109375 
Q 26.8125 39.40625 28.5625 42.625 
Q 30.328125 45.84375 30.328125 49.703125 
Q 30.328125 54.734375 27.171875 57.828125 
Q 24.03125 60.9375 19.34375 60.9375 
Q 11.765625 60.9375 6.6875 52.828125 
z
" id="TimesNewRomanPSMT-51"/>
       <path d="M 45.84375 12.75 
L 41.21875 0 
L 2.15625 0 
L 2.15625 1.8125 
Q 19.390625 17.53125 26.421875 27.484375 
Q 33.453125 37.453125 33.453125 45.703125 
Q 33.453125 52 29.59375 56.046875 
Q 25.734375 60.109375 20.359375 60.109375 
Q 15.484375 60.109375 11.59375 57.25 
Q 7.71875 54.390625 5.859375 48.875 
L 4.046875 48.875 
Q 5.28125 57.90625 10.328125 62.734375 
Q 15.375 67.578125 22.953125 67.578125 
Q 31 67.578125 36.390625 62.40625 
Q 41.796875 57.234375 41.796875 50.203125 
Q 41.796875 45.171875 39.453125 40.140625 
Q 35.84375 32.234375 27.734375 23.390625 
Q 15.578125 10.109375 12.546875 7.375 
L 29.828125 7.375 
Q 35.109375 7.375 37.234375 7.765625 
Q 39.359375 8.15625 41.0625 9.34375 
Q 42.78125 10.546875 44.046875 12.75 
z
" id="TimesNewRomanPSMT-50"/>
      </defs>
      <g transform="translate(113.897113 144.933735)scale(0.2 -0.2)">
       <use xlink:href="#TimesNewRomanPSMT-51"/>
       <use x="50" xlink:href="#TimesNewRomanPSMT-50"/>
      </g>
     </g>
    </g>
    <g id="xtick_3">
     <g id="line2d_3">
      <g>
       <use style="stroke:#000000;stroke-width:0.8;" x="176.673062" xlink:href="#m4a59d6c87c" y="124.046235"/>
      </g>
     </g>
     <g id="text_3">
      <!-- 64 -->
      <defs>
       <path d="M 44.828125 67.578125 
L 44.828125 65.765625 
Q 38.375 65.140625 34.296875 63.203125 
Q 30.21875 61.28125 26.234375 57.328125 
Q 22.265625 53.375 19.65625 48.515625 
Q 17.046875 43.65625 15.28125 36.96875 
Q 22.3125 41.796875 29.390625 41.796875 
Q 36.1875 41.796875 41.15625 36.328125 
Q 46.140625 30.859375 46.140625 22.265625 
Q 46.140625 13.96875 41.109375 7.125 
Q 35.0625 -1.171875 25.09375 -1.171875 
Q 18.3125 -1.171875 13.578125 3.328125 
Q 4.296875 12.0625 4.296875 25.984375 
Q 4.296875 34.859375 7.859375 42.859375 
Q 11.421875 50.875 18.03125 57.078125 
Q 24.65625 63.28125 30.703125 65.421875 
Q 36.765625 67.578125 42 67.578125 
z
M 14.453125 33.40625 
Q 13.578125 26.8125 13.578125 22.75 
Q 13.578125 18.0625 15.3125 12.5625 
Q 17.046875 7.078125 20.453125 3.859375 
Q 22.953125 1.5625 26.515625 1.5625 
Q 30.765625 1.5625 34.109375 5.5625 
Q 37.453125 9.578125 37.453125 17 
Q 37.453125 25.34375 34.125 31.4375 
Q 30.8125 37.546875 24.703125 37.546875 
Q 22.859375 37.546875 20.734375 36.765625 
Q 18.609375 35.984375 14.453125 33.40625 
z
" id="TimesNewRomanPSMT-54"/>
       <path d="M 46.53125 24.421875 
L 46.53125 17.484375 
L 37.640625 17.484375 
L 37.640625 0 
L 29.59375 0 
L 29.59375 17.484375 
L 1.5625 17.484375 
L 1.5625 23.734375 
L 32.28125 67.578125 
L 37.640625 67.578125 
L 37.640625 24.421875 
z
M 29.59375 24.421875 
L 29.59375 57.28125 
L 6.34375 24.421875 
z
" id="TimesNewRomanPSMT-52"/>
      </defs>
      <g transform="translate(166.673062 144.933735)scale(0.2 -0.2)">
       <use xlink:href="#TimesNewRomanPSMT-54"/>
       <use x="50" xlink:href="#TimesNewRomanPSMT-52"/>
      </g>
     </g>
    </g>
    <g id="xtick_4">
     <g id="line2d_4">
      <g>
       <use style="stroke:#000000;stroke-width:0.8;" x="229.44901" xlink:href="#m4a59d6c87c" y="124.046235"/>
      </g>
     </g>
     <g id="text_4">
      <!-- 96 -->
      <defs>
       <path d="M 5.28125 -1.375 
L 5.28125 0.4375 
Q 11.625 0.53125 17.09375 3.390625 
Q 22.5625 6.25 27.65625 13.375 
Q 32.765625 20.515625 34.765625 29.046875 
Q 27.09375 24.125 20.90625 24.125 
Q 13.921875 24.125 8.9375 29.515625 
Q 3.953125 34.90625 3.953125 43.84375 
Q 3.953125 52.546875 8.9375 59.328125 
Q 14.9375 67.578125 24.609375 67.578125 
Q 32.765625 67.578125 38.578125 60.84375 
Q 45.703125 52.484375 45.703125 40.234375 
Q 45.703125 29.203125 40.28125 19.65625 
Q 34.859375 10.109375 25.203125 3.8125 
Q 17.328125 -1.375 8.0625 -1.375 
z
M 35.546875 32.671875 
Q 36.421875 39.015625 36.421875 42.828125 
Q 36.421875 47.5625 34.8125 53.046875 
Q 33.203125 58.546875 30.25 61.46875 
Q 27.296875 64.40625 23.53125 64.40625 
Q 19.1875 64.40625 15.90625 60.5 
Q 12.640625 56.59375 12.640625 48.875 
Q 12.640625 38.578125 17 32.765625 
Q 20.171875 28.5625 24.8125 28.5625 
Q 27.046875 28.5625 30.125 29.640625 
Q 33.203125 30.71875 35.546875 32.671875 
z
" id="TimesNewRomanPSMT-57"/>
      </defs>
      <g transform="translate(219.44901 144.933735)scale(0.2 -0.2)">
       <use xlink:href="#TimesNewRomanPSMT-57"/>
       <use x="50" xlink:href="#TimesNewRomanPSMT-54"/>
      </g>
     </g>
    </g>
    <g id="xtick_5">
     <g id="line2d_5">
      <g>
       <use style="stroke:#000000;stroke-width:0.8;" x="282.224959" xlink:href="#m4a59d6c87c" y="124.046235"/>
      </g>
     </g>
     <g id="text_5">
      <!-- 128 -->
      <defs>
       <path d="M 11.71875 59.71875 
L 27.828125 67.578125 
L 29.4375 67.578125 
L 29.4375 11.671875 
Q 29.4375 6.109375 29.90625 4.734375 
Q 30.375 3.375 31.828125 2.640625 
Q 33.296875 1.90625 37.796875 1.8125 
L 37.796875 0 
L 12.890625 0 
L 12.890625 1.8125 
Q 17.578125 1.90625 18.9375 2.609375 
Q 20.3125 3.328125 20.84375 4.515625 
Q 21.390625 5.71875 21.390625 11.671875 
L 21.390625 47.40625 
Q 21.390625 54.640625 20.90625 56.6875 
Q 20.5625 58.25 19.65625 58.984375 
Q 18.75 59.71875 17.484375 59.71875 
Q 15.671875 59.71875 12.453125 58.203125 
z
" id="TimesNewRomanPSMT-49"/>
       <path d="M 19.1875 33.34375 
Q 11.328125 39.796875 9.046875 43.703125 
Q 6.78125 47.609375 6.78125 51.8125 
Q 6.78125 58.25 11.765625 62.90625 
Q 16.75 67.578125 25 67.578125 
Q 33.015625 67.578125 37.890625 63.234375 
Q 42.78125 58.890625 42.78125 53.328125 
Q 42.78125 49.609375 40.140625 45.75 
Q 37.5 41.890625 29.15625 36.671875 
Q 37.75 30.03125 40.53125 26.21875 
Q 44.234375 21.234375 44.234375 15.71875 
Q 44.234375 8.734375 38.90625 3.78125 
Q 33.59375 -1.171875 24.953125 -1.171875 
Q 15.53125 -1.171875 10.25 4.734375 
Q 6.0625 9.46875 6.0625 15.09375 
Q 6.0625 19.484375 9.015625 23.796875 
Q 11.96875 28.125 19.1875 33.34375 
z
M 26.859375 38.578125 
Q 32.71875 43.84375 34.28125 46.890625 
Q 35.84375 49.953125 35.84375 53.8125 
Q 35.84375 58.9375 32.953125 61.84375 
Q 30.078125 64.75 25.09375 64.75 
Q 20.125 64.75 17 61.859375 
Q 13.875 58.984375 13.875 55.125 
Q 13.875 52.59375 15.15625 50.046875 
Q 16.453125 47.515625 18.84375 45.21875 
z
M 21.484375 31.5 
Q 17.4375 28.078125 15.484375 24.046875 
Q 13.53125 20.015625 13.53125 15.328125 
Q 13.53125 9.03125 16.96875 5.25 
Q 20.40625 1.46875 25.734375 1.46875 
Q 31 1.46875 34.171875 4.4375 
Q 37.359375 7.421875 37.359375 11.671875 
Q 37.359375 15.1875 35.5 17.96875 
Q 32.03125 23.140625 21.484375 31.5 
z
" id="TimesNewRomanPSMT-56"/>
      </defs>
      <g transform="translate(267.224959 144.933735)scale(0.2 -0.2)">
       <use xlink:href="#TimesNewRomanPSMT-49"/>
       <use x="50" xlink:href="#TimesNewRomanPSMT-50"/>
       <use x="100" xlink:href="#TimesNewRomanPSMT-56"/>
      </g>
     </g>
    </g>
    <g id="text_6">
     <!-- Index -->
     <defs>
      <path d="M 30.859375 1.8125 
L 30.859375 0 
L 2.484375 0 
L 2.484375 1.8125 
L 4.828125 1.8125 
Q 8.9375 1.8125 10.796875 4.203125 
Q 11.96875 5.765625 11.96875 11.71875 
L 11.96875 54.5 
Q 11.96875 59.515625 11.328125 61.140625 
Q 10.84375 62.359375 9.328125 63.234375 
Q 7.171875 64.40625 4.828125 64.40625 
L 2.484375 64.40625 
L 2.484375 66.21875 
L 30.859375 66.21875 
L 30.859375 64.40625 
L 28.46875 64.40625 
Q 24.421875 64.40625 22.5625 62.015625 
Q 21.34375 60.453125 21.34375 54.5 
L 21.34375 11.71875 
Q 21.34375 6.6875 21.96875 5.078125 
Q 22.46875 3.859375 24.03125 2.984375 
Q 26.125 1.8125 28.46875 1.8125 
z
" id="TimesNewRomanPSMT-73"/>
      <path d="M 16.15625 36.578125 
Q 24.03125 46.046875 31.15625 46.046875 
Q 34.8125 46.046875 37.453125 44.21875 
Q 40.09375 42.390625 41.65625 38.1875 
Q 42.71875 35.25 42.71875 29.203125 
L 42.71875 10.109375 
Q 42.71875 5.859375 43.40625 4.34375 
Q 43.953125 3.125 45.140625 2.4375 
Q 46.34375 1.765625 49.5625 1.765625 
L 49.5625 0 
L 27.4375 0 
L 27.4375 1.765625 
L 28.375 1.765625 
Q 31.5 1.765625 32.734375 2.703125 
Q 33.984375 3.65625 34.46875 5.515625 
Q 34.671875 6.25 34.671875 10.109375 
L 34.671875 28.421875 
Q 34.671875 34.515625 33.078125 37.28125 
Q 31.5 40.046875 27.734375 40.046875 
Q 21.921875 40.046875 16.15625 33.6875 
L 16.15625 10.109375 
Q 16.15625 5.5625 16.703125 4.5 
Q 17.390625 3.078125 18.578125 2.421875 
Q 19.78125 1.765625 23.4375 1.765625 
L 23.4375 0 
L 1.3125 0 
L 1.3125 1.765625 
L 2.296875 1.765625 
Q 5.71875 1.765625 6.90625 3.484375 
Q 8.109375 5.21875 8.109375 10.109375 
L 8.109375 26.703125 
Q 8.109375 34.765625 7.734375 36.515625 
Q 7.375 38.28125 6.609375 38.90625 
Q 5.859375 39.546875 4.59375 39.546875 
Q 3.21875 39.546875 1.3125 38.8125 
L 0.59375 40.578125 
L 14.0625 46.046875 
L 16.15625 46.046875 
z
" id="TimesNewRomanPSMT-110"/>
      <path d="M 34.71875 5.03125 
Q 31.453125 1.609375 28.328125 0.109375 
Q 25.203125 -1.375 21.578125 -1.375 
Q 14.265625 -1.375 8.796875 4.75 
Q 3.328125 10.890625 3.328125 20.515625 
Q 3.328125 30.125 9.375 38.109375 
Q 15.4375 46.09375 24.953125 46.09375 
Q 30.859375 46.09375 34.71875 42.328125 
L 34.71875 50.59375 
Q 34.71875 58.25 34.34375 60 
Q 33.984375 61.765625 33.203125 62.390625 
Q 32.421875 63.03125 31.25 63.03125 
Q 29.984375 63.03125 27.875 62.25 
L 27.25 63.96875 
L 40.578125 69.4375 
L 42.78125 69.4375 
L 42.78125 17.71875 
Q 42.78125 9.859375 43.140625 8.125 
Q 43.5 6.390625 44.3125 5.703125 
Q 45.125 5.03125 46.1875 5.03125 
Q 47.515625 5.03125 49.703125 5.859375 
L 50.25 4.15625 
L 36.96875 -1.375 
L 34.71875 -1.375 
z
M 34.71875 8.453125 
L 34.71875 31.5 
Q 34.421875 34.8125 32.953125 37.546875 
Q 31.5 40.28125 29.078125 41.671875 
Q 26.65625 43.0625 24.359375 43.0625 
Q 20.0625 43.0625 16.703125 39.203125 
Q 12.25 34.125 12.25 24.359375 
Q 12.25 14.5 16.546875 9.25 
Q 20.84375 4 26.125 4 
Q 30.5625 4 34.71875 8.453125 
z
" id="TimesNewRomanPSMT-100"/>
      <path d="M 10.640625 27.875 
Q 10.59375 17.921875 15.484375 12.25 
Q 20.359375 6.59375 26.953125 6.59375 
Q 31.34375 6.59375 34.59375 9 
Q 37.84375 11.421875 40.046875 17.28125 
L 41.546875 16.3125 
Q 40.53125 9.625 35.59375 4.125 
Q 30.671875 -1.375 23.25 -1.375 
Q 15.1875 -1.375 9.453125 4.90625 
Q 3.71875 11.1875 3.71875 21.78125 
Q 3.71875 33.25 9.59375 39.671875 
Q 15.484375 46.09375 24.359375 46.09375 
Q 31.890625 46.09375 36.71875 41.140625 
Q 41.546875 36.1875 41.546875 27.875 
z
M 10.640625 30.71875 
L 31.34375 30.71875 
Q 31.109375 35.015625 30.328125 36.765625 
Q 29.109375 39.5 26.6875 41.0625 
Q 24.265625 42.625 21.625 42.625 
Q 17.578125 42.625 14.375 39.46875 
Q 11.1875 36.328125 10.640625 30.71875 
z
" id="TimesNewRomanPSMT-101"/>
      <path d="M 1.3125 44.734375 
L 22.359375 44.734375 
L 22.359375 42.921875 
Q 20.359375 42.921875 19.546875 42.234375 
Q 18.75 41.546875 18.75 40.4375 
Q 18.75 39.265625 20.453125 36.8125 
Q 21 36.03125 22.078125 34.375 
L 25.25 29.296875 
L 28.90625 34.375 
Q 32.421875 39.203125 32.421875 40.484375 
Q 32.421875 41.5 31.59375 42.203125 
Q 30.765625 42.921875 28.90625 42.921875 
L 28.90625 44.734375 
L 44.046875 44.734375 
L 44.046875 42.921875 
Q 41.65625 42.78125 39.890625 41.609375 
Q 37.5 39.9375 33.34375 34.375 
L 27.25 26.21875 
L 38.375 10.203125 
Q 42.484375 4.296875 44.234375 3.09375 
Q 46 1.90625 48.78125 1.765625 
L 48.78125 0 
L 27.6875 0 
L 27.6875 1.765625 
Q 29.890625 1.765625 31.109375 2.734375 
Q 32.03125 3.421875 32.03125 4.546875 
Q 32.03125 5.671875 28.90625 10.203125 
L 22.359375 19.78125 
L 15.1875 10.203125 
Q 11.859375 5.765625 11.859375 4.9375 
Q 11.859375 3.765625 12.953125 2.8125 
Q 14.0625 1.859375 16.265625 1.765625 
L 16.265625 0 
L 1.65625 0 
L 1.65625 1.765625 
Q 3.421875 2 4.734375 2.984375 
Q 6.59375 4.390625 10.984375 10.203125 
L 20.359375 22.65625 
L 11.859375 34.96875 
Q 8.25 40.234375 6.265625 41.578125 
Q 4.296875 42.921875 1.3125 42.921875 
z
" id="TimesNewRomanPSMT-120"/>
     </defs>
     <g transform="translate(153.079687 167.09936)scale(0.2 -0.2)">
      <use xlink:href="#TimesNewRomanPSMT-73"/>
      <use x="33.300781" xlink:href="#TimesNewRomanPSMT-110"/>
      <use x="83.300781" xlink:href="#TimesNewRomanPSMT-100"/>
      <use x="133.300781" xlink:href="#TimesNewRomanPSMT-101"/>
      <use x="177.685547" xlink:href="#TimesNewRomanPSMT-120"/>
     </g>
    </g>
   </g>
   <g id="matplotlib.axis_2">
    <g id="ytick_1">
     <g id="line2d_6">
      <defs>
       <path d="M 0 0 
L -3.5 0 
" id="m0ec4689707" style="stroke:#000000;stroke-width:0.8;"/>
      </defs>
      <g>
       <use style="stroke:#000000;stroke-width:0.8;" x="60.648438" xlink:href="#m0ec4689707" y="123.704224"/>
      </g>
     </g>
     <g id="text_7">
      <!-- −0.4 -->
      <defs>
       <path d="M 10.59375 35.5 
L 73.1875 35.5 
L 73.1875 27.203125 
L 10.59375 27.203125 
z
" id="DejaVuSans-8722"/>
       <path d="M 31.78125 66.40625 
Q 24.171875 66.40625 20.328125 58.90625 
Q 16.5 51.421875 16.5 36.375 
Q 16.5 21.390625 20.328125 13.890625 
Q 24.171875 6.390625 31.78125 6.390625 
Q 39.453125 6.390625 43.28125 13.890625 
Q 47.125 21.390625 47.125 36.375 
Q 47.125 51.421875 43.28125 58.90625 
Q 39.453125 66.40625 31.78125 66.40625 
z
M 31.78125 74.21875 
Q 44.046875 74.21875 50.515625 64.515625 
Q 56.984375 54.828125 56.984375 36.375 
Q 56.984375 17.96875 50.515625 8.265625 
Q 44.046875 -1.421875 31.78125 -1.421875 
Q 19.53125 -1.421875 13.0625 8.265625 
Q 6.59375 17.96875 6.59375 36.375 
Q 6.59375 54.828125 13.0625 64.515625 
Q 19.53125 74.21875 31.78125 74.21875 
z
" id="DejaVuSans-48"/>
       <path d="M 10.6875 12.40625 
L 21 12.40625 
L 21 0 
L 10.6875 0 
z
" id="DejaVuSans-46"/>
       <path d="M 37.796875 64.3125 
L 12.890625 25.390625 
L 37.796875 25.390625 
z
M 35.203125 72.90625 
L 47.609375 72.90625 
L 47.609375 25.390625 
L 58.015625 25.390625 
L 58.015625 17.1875 
L 47.609375 17.1875 
L 47.609375 0 
L 37.796875 0 
L 37.796875 17.1875 
L 4.890625 17.1875 
L 4.890625 26.703125 
z
" id="DejaVuSans-52"/>
      </defs>
      <g transform="translate(29.365625 127.503443)scale(0.1 -0.1)">
       <use xlink:href="#DejaVuSans-8722"/>
       <use x="83.789062" xlink:href="#DejaVuSans-48"/>
       <use x="147.412109" xlink:href="#DejaVuSans-46"/>
       <use x="179.199219" xlink:href="#DejaVuSans-52"/>
      </g>
     </g>
    </g>
    <g id="ytick_2">
     <g id="line2d_7">
      <g>
       <use style="stroke:#000000;stroke-width:0.8;" x="60.648438" xlink:href="#m0ec4689707" y="95.527973"/>
      </g>
     </g>
     <g id="text_8">
      <!-- −0.2 -->
      <defs>
       <path d="M 19.1875 8.296875 
L 53.609375 8.296875 
L 53.609375 0 
L 7.328125 0 
L 7.328125 8.296875 
Q 12.9375 14.109375 22.625 23.890625 
Q 32.328125 33.6875 34.8125 36.53125 
Q 39.546875 41.84375 41.421875 45.53125 
Q 43.3125 49.21875 43.3125 52.78125 
Q 43.3125 58.59375 39.234375 62.25 
Q 35.15625 65.921875 28.609375 65.921875 
Q 23.96875 65.921875 18.8125 64.3125 
Q 13.671875 62.703125 7.8125 59.421875 
L 7.8125 69.390625 
Q 13.765625 71.78125 18.9375 73 
Q 24.125 74.21875 28.421875 74.21875 
Q 39.75 74.21875 46.484375 68.546875 
Q 53.21875 62.890625 53.21875 53.421875 
Q 53.21875 48.921875 51.53125 44.890625 
Q 49.859375 40.875 45.40625 35.40625 
Q 44.1875 33.984375 37.640625 27.21875 
Q 31.109375 20.453125 19.1875 8.296875 
z
" id="DejaVuSans-50"/>
      </defs>
      <g transform="translate(29.365625 99.327191)scale(0.1 -0.1)">
       <use xlink:href="#DejaVuSans-8722"/>
       <use x="83.789062" xlink:href="#DejaVuSans-48"/>
       <use x="147.412109" xlink:href="#DejaVuSans-46"/>
       <use x="179.199219" xlink:href="#DejaVuSans-50"/>
      </g>
     </g>
    </g>
    <g id="ytick_3">
     <g id="line2d_8">
      <g>
       <use style="stroke:#000000;stroke-width:0.8;" x="60.648438" xlink:href="#m0ec4689707" y="67.351721"/>
      </g>
     </g>
     <g id="text_9">
      <!-- 0.0 -->
      <g transform="translate(37.745313 71.15094)scale(0.1 -0.1)">
       <use xlink:href="#DejaVuSans-48"/>
       <use x="63.623047" xlink:href="#DejaVuSans-46"/>
       <use x="95.410156" xlink:href="#DejaVuSans-48"/>
      </g>
     </g>
    </g>
    <g id="ytick_4">
     <g id="line2d_9">
      <g>
       <use style="stroke:#000000;stroke-width:0.8;" x="60.648438" xlink:href="#m0ec4689707" y="39.17547"/>
      </g>
     </g>
     <g id="text_10">
      <!-- 0.2 -->
      <g transform="translate(37.745313 42.974689)scale(0.1 -0.1)">
       <use xlink:href="#DejaVuSans-48"/>
       <use x="63.623047" xlink:href="#DejaVuSans-46"/>
       <use x="95.410156" xlink:href="#DejaVuSans-50"/>
      </g>
     </g>
    </g>
    <g id="ytick_5">
     <g id="line2d_10">
      <g>
       <use style="stroke:#000000;stroke-width:0.8;" x="60.648438" xlink:href="#m0ec4689707" y="10.999219"/>
      </g>
     </g>
     <g id="text_11">
      <!-- 0.4 -->
      <g transform="translate(37.745313 14.798437)scale(0.1 -0.1)">
       <use xlink:href="#DejaVuSans-48"/>
       <use x="63.623047" xlink:href="#DejaVuSans-46"/>
       <use x="95.410156" xlink:href="#DejaVuSans-52"/>
      </g>
     </g>
    </g>
    <g id="text_12">
     <!-- Phase shift -->
     <defs>
      <path d="M 20.515625 31 
L 20.515625 11.71875 
Q 20.515625 5.46875 21.875 3.953125 
Q 23.734375 1.8125 27.484375 1.8125 
L 30.03125 1.8125 
L 30.03125 0 
L 1.65625 0 
L 1.65625 1.8125 
L 4.15625 1.8125 
Q 8.34375 1.8125 10.15625 4.546875 
Q 11.140625 6.0625 11.140625 11.71875 
L 11.140625 54.5 
Q 11.140625 60.75 9.8125 62.25 
Q 7.90625 64.40625 4.15625 64.40625 
L 1.65625 64.40625 
L 1.65625 66.21875 
L 25.921875 66.21875 
Q 34.8125 66.21875 39.9375 64.375 
Q 45.0625 62.546875 48.578125 58.203125 
Q 52.09375 53.859375 52.09375 47.90625 
Q 52.09375 39.796875 46.75 34.71875 
Q 41.40625 29.640625 31.640625 29.640625 
Q 29.25 29.640625 26.46875 29.984375 
Q 23.6875 30.328125 20.515625 31 
z
M 20.515625 33.796875 
Q 23.09375 33.296875 25.09375 33.046875 
Q 27.09375 32.8125 28.515625 32.8125 
Q 33.59375 32.8125 37.28125 36.734375 
Q 40.96875 40.671875 40.96875 46.921875 
Q 40.96875 51.21875 39.203125 54.90625 
Q 37.453125 58.59375 34.21875 60.421875 
Q 31 62.25 26.90625 62.25 
Q 24.421875 62.25 20.515625 61.328125 
z
" id="TimesNewRomanPSMT-80"/>
      <path d="M 16.265625 69.4375 
L 16.265625 36.71875 
Q 21.6875 42.671875 24.859375 44.359375 
Q 28.03125 46.046875 31.203125 46.046875 
Q 35.015625 46.046875 37.75 43.9375 
Q 40.484375 41.84375 41.796875 37.359375 
Q 42.71875 34.234375 42.71875 25.921875 
L 42.71875 10.109375 
Q 42.71875 5.859375 43.40625 4.296875 
Q 43.890625 3.125 45.0625 2.4375 
Q 46.234375 1.765625 49.359375 1.765625 
L 49.359375 0 
L 27.390625 0 
L 27.390625 1.765625 
L 28.421875 1.765625 
Q 31.546875 1.765625 32.765625 2.703125 
Q 33.984375 3.65625 34.46875 5.515625 
Q 34.625 6.296875 34.625 10.109375 
L 34.625 25.921875 
Q 34.625 33.25 33.859375 35.546875 
Q 33.109375 37.84375 31.4375 38.984375 
Q 29.78125 40.140625 27.4375 40.140625 
Q 25.046875 40.140625 22.453125 38.859375 
Q 19.875 37.59375 16.265625 33.734375 
L 16.265625 10.109375 
Q 16.265625 5.515625 16.765625 4.390625 
Q 17.28125 3.265625 18.671875 2.515625 
Q 20.0625 1.765625 23.484375 1.765625 
L 23.484375 0 
L 1.3125 0 
L 1.3125 1.765625 
Q 4.296875 1.765625 6 2.6875 
Q 6.984375 3.171875 7.5625 4.53125 
Q 8.15625 5.90625 8.15625 10.109375 
L 8.15625 50.59375 
Q 8.15625 58.25 7.78125 60 
Q 7.421875 61.765625 6.65625 62.390625 
Q 5.90625 63.03125 4.640625 63.03125 
Q 3.609375 63.03125 1.3125 62.25 
L 0.640625 63.96875 
L 14.015625 69.4375 
z
" id="TimesNewRomanPSMT-104"/>
      <path d="M 28.46875 6.453125 
Q 21.578125 1.125 19.828125 0.296875 
Q 17.1875 -0.921875 14.203125 -0.921875 
Q 9.578125 -0.921875 6.5625 2.25 
Q 3.5625 5.421875 3.5625 10.59375 
Q 3.5625 13.875 5.03125 16.265625 
Q 7.03125 19.578125 11.984375 22.5 
Q 16.9375 25.4375 28.46875 29.640625 
L 28.46875 31.390625 
Q 28.46875 38.09375 26.34375 40.578125 
Q 24.21875 43.0625 20.171875 43.0625 
Q 17.09375 43.0625 15.28125 41.40625 
Q 13.421875 39.75 13.421875 37.59375 
L 13.53125 34.765625 
Q 13.53125 32.515625 12.375 31.296875 
Q 11.234375 30.078125 9.375 30.078125 
Q 7.5625 30.078125 6.421875 31.34375 
Q 5.28125 32.625 5.28125 34.8125 
Q 5.28125 39.015625 9.578125 42.53125 
Q 13.875 46.046875 21.625 46.046875 
Q 27.59375 46.046875 31.390625 44.046875 
Q 34.28125 42.53125 35.640625 39.3125 
Q 36.53125 37.203125 36.53125 30.71875 
L 36.53125 15.53125 
Q 36.53125 9.125 36.765625 7.6875 
Q 37.015625 6.25 37.578125 5.765625 
Q 38.140625 5.28125 38.875 5.28125 
Q 39.65625 5.28125 40.234375 5.609375 
Q 41.265625 6.25 44.1875 9.1875 
L 44.1875 6.453125 
Q 38.71875 -0.875 33.734375 -0.875 
Q 31.34375 -0.875 29.921875 0.78125 
Q 28.515625 2.4375 28.46875 6.453125 
z
M 28.46875 9.625 
L 28.46875 26.65625 
Q 21.09375 23.734375 18.953125 22.515625 
Q 15.09375 20.359375 13.421875 18.015625 
Q 11.765625 15.671875 11.765625 12.890625 
Q 11.765625 9.375 13.859375 7.046875 
Q 15.96875 4.734375 18.703125 4.734375 
Q 22.40625 4.734375 28.46875 9.625 
z
" id="TimesNewRomanPSMT-97"/>
      <path d="M 32.03125 46.046875 
L 32.03125 30.8125 
L 30.421875 30.8125 
Q 28.5625 37.984375 25.65625 40.578125 
Q 22.75 43.171875 18.265625 43.171875 
Q 14.84375 43.171875 12.734375 41.359375 
Q 10.640625 39.546875 10.640625 37.359375 
Q 10.640625 34.625 12.203125 32.671875 
Q 13.71875 30.671875 18.359375 28.421875 
L 25.484375 24.953125 
Q 35.40625 20.125 35.40625 12.203125 
Q 35.40625 6.109375 30.78125 2.359375 
Q 26.171875 -1.375 20.453125 -1.375 
Q 16.359375 -1.375 11.078125 0.09375 
Q 9.46875 0.59375 8.453125 0.59375 
Q 7.328125 0.59375 6.6875 -0.6875 
L 5.078125 -0.6875 
L 5.078125 15.28125 
L 6.6875 15.28125 
Q 8.0625 8.453125 11.90625 4.984375 
Q 15.765625 1.515625 20.5625 1.515625 
Q 23.921875 1.515625 26.046875 3.484375 
Q 28.171875 5.46875 28.171875 8.25 
Q 28.171875 11.625 25.796875 13.921875 
Q 23.4375 16.21875 16.359375 19.734375 
Q 9.28125 23.25 7.078125 26.078125 
Q 4.890625 28.859375 4.890625 33.109375 
Q 4.890625 38.625 8.671875 42.328125 
Q 12.453125 46.046875 18.453125 46.046875 
Q 21.09375 46.046875 24.859375 44.921875 
Q 27.34375 44.1875 28.171875 44.1875 
Q 28.953125 44.1875 29.390625 44.53125 
Q 29.828125 44.875 30.421875 46.046875 
z
" id="TimesNewRomanPSMT-115"/>
      <path id="TimesNewRomanPSMT-32"/>
      <path d="M 14.5 69.4375 
Q 16.546875 69.4375 17.984375 67.984375 
Q 19.4375 66.546875 19.4375 64.5 
Q 19.4375 62.453125 17.984375 60.984375 
Q 16.546875 59.515625 14.5 59.515625 
Q 12.453125 59.515625 10.984375 60.984375 
Q 9.515625 62.453125 9.515625 64.5 
Q 9.515625 66.546875 10.953125 67.984375 
Q 12.40625 69.4375 14.5 69.4375 
z
M 18.5625 46.046875 
L 18.5625 10.109375 
Q 18.5625 5.90625 19.171875 4.515625 
Q 19.78125 3.125 20.96875 2.4375 
Q 22.171875 1.765625 25.34375 1.765625 
L 25.34375 0 
L 3.609375 0 
L 3.609375 1.765625 
Q 6.890625 1.765625 8 2.390625 
Q 9.125 3.03125 9.78125 4.484375 
Q 10.453125 5.953125 10.453125 10.109375 
L 10.453125 27.34375 
Q 10.453125 34.625 10.015625 36.765625 
Q 9.671875 38.328125 8.9375 38.9375 
Q 8.203125 39.546875 6.9375 39.546875 
Q 5.5625 39.546875 3.609375 38.8125 
L 2.9375 40.578125 
L 16.40625 46.046875 
z
" id="TimesNewRomanPSMT-105"/>
      <path d="M 20.609375 41.21875 
L 20.609375 11.8125 
Q 20.609375 5.5625 21.96875 3.90625 
Q 23.78125 1.765625 26.8125 1.765625 
L 30.859375 1.765625 
L 30.859375 0 
L 4.15625 0 
L 4.15625 1.765625 
L 6.15625 1.765625 
Q 8.109375 1.765625 9.71875 2.734375 
Q 11.328125 3.71875 11.9375 5.375 
Q 12.546875 7.03125 12.546875 11.8125 
L 12.546875 41.21875 
L 3.859375 41.21875 
L 3.859375 44.734375 
L 12.546875 44.734375 
L 12.546875 47.65625 
Q 12.546875 54.34375 14.6875 58.984375 
Q 16.84375 63.625 21.265625 66.484375 
Q 25.6875 69.34375 31.203125 69.34375 
Q 36.328125 69.34375 40.625 66.015625 
Q 43.453125 63.8125 43.453125 61.078125 
Q 43.453125 59.625 42.1875 58.328125 
Q 40.921875 57.03125 39.453125 57.03125 
Q 38.328125 57.03125 37.078125 57.828125 
Q 35.84375 58.640625 34.03125 61.296875 
Q 32.234375 63.96875 30.71875 64.890625 
Q 29.203125 65.828125 27.34375 65.828125 
Q 25.09375 65.828125 23.53125 64.625 
Q 21.96875 63.421875 21.28125 60.90625 
Q 20.609375 58.40625 20.609375 47.953125 
L 20.609375 44.734375 
L 32.125 44.734375 
L 32.125 41.21875 
z
" id="TimesNewRomanPSMT-102"/>
      <path d="M 16.109375 59.421875 
L 16.109375 44.734375 
L 26.5625 44.734375 
L 26.5625 41.3125 
L 16.109375 41.3125 
L 16.109375 12.3125 
Q 16.109375 7.953125 17.359375 6.4375 
Q 18.609375 4.9375 20.5625 4.9375 
Q 22.171875 4.9375 23.6875 5.9375 
Q 25.203125 6.9375 26.03125 8.890625 
L 27.9375 8.890625 
Q 26.21875 4.109375 23.09375 1.6875 
Q 19.96875 -0.734375 16.65625 -0.734375 
Q 14.40625 -0.734375 12.25 0.515625 
Q 10.109375 1.765625 9.078125 4.078125 
Q 8.0625 6.390625 8.0625 11.234375 
L 8.0625 41.3125 
L 0.984375 41.3125 
L 0.984375 42.921875 
Q 3.65625 44 6.46875 46.5625 
Q 9.28125 49.125 11.46875 52.640625 
Q 12.59375 54.5 14.59375 59.421875 
z
" id="TimesNewRomanPSMT-116"/>
     </defs>
     <g transform="translate(21.0875 110.05561)rotate(-90)scale(0.2 -0.2)">
      <use xlink:href="#TimesNewRomanPSMT-80"/>
      <use x="55.615234" xlink:href="#TimesNewRomanPSMT-104"/>
      <use x="105.615234" xlink:href="#TimesNewRomanPSMT-97"/>
      <use x="150" xlink:href="#TimesNewRomanPSMT-115"/>
      <use x="188.916016" xlink:href="#TimesNewRomanPSMT-101"/>
      <use x="233.300781" xlink:href="#TimesNewRomanPSMT-32"/>
      <use x="258.300781" xlink:href="#TimesNewRomanPSMT-115"/>
      <use x="297.216797" xlink:href="#TimesNewRomanPSMT-104"/>
      <use x="347.216797" xlink:href="#TimesNewRomanPSMT-105"/>
      <use x="375" xlink:href="#TimesNewRomanPSMT-102"/>
      <use x="408.300781" xlink:href="#TimesNewRomanPSMT-116"/>
     </g>
    </g>
   </g>
   <g id="line2d_11">
    <defs>
     <path d="M 0 1.5 
C 0.397805 1.5 0.77937 1.341951 1.06066 1.06066 
C 1.341951 0.77937 1.5 0.397805 1.5 0 
C 1.5 -0.397805 1.341951 -0.77937 1.06066 -1.06066 
C 0.77937 -1.341951 0.397805 -1.5 0 -1.5 
C -0.397805 -1.5 -0.77937 -1.341951 -1.06066 -1.06066 
C -1.341951 -0.77937 -1.5 -0.397805 -1.5 0 
C -1.5 0.397805 -1.341951 0.77937 -1.06066 1.06066 
C -0.77937 1.341951 -0.397805 1.5 0 1.5 
z
" id="m665817695f" style="stroke:#000000;"/>
    </defs>
    <g clip-path="url(#pd2b8e7ba34)">
     <use style="stroke:#000000;" x="71.121165" xlink:href="#m665817695f" y="15.566791"/>
     <use style="stroke:#000000;" x="72.770413" xlink:href="#m665817695f" y="14.082598"/>
     <use style="stroke:#000000;" x="74.419662" xlink:href="#m665817695f" y="35.615012"/>
     <use style="stroke:#000000;" x="76.06891" xlink:href="#m665817695f" y="96.037604"/>
     <use style="stroke:#000000;" x="77.718158" xlink:href="#m665817695f" y="112.976449"/>
     <use style="stroke:#000000;" x="79.367407" xlink:href="#m665817695f" y="118.660061"/>
     <use style="stroke:#000000;" x="81.016655" xlink:href="#m665817695f" y="118.809871"/>
     <use style="stroke:#000000;" x="82.665903" xlink:href="#m665817695f" y="118.473463"/>
     <use style="stroke:#000000;" x="84.315152" xlink:href="#m665817695f" y="118.045027"/>
     <use style="stroke:#000000;" x="85.9644" xlink:href="#m665817695f" y="117.871596"/>
     <use style="stroke:#000000;" x="87.613649" xlink:href="#m665817695f" y="115.869738"/>
     <use style="stroke:#000000;" x="89.262897" xlink:href="#m665817695f" y="116.115049"/>
     <use style="stroke:#000000;" x="90.912145" xlink:href="#m665817695f" y="114.107683"/>
     <use style="stroke:#000000;" x="92.561394" xlink:href="#m665817695f" y="114.801634"/>
     <use style="stroke:#000000;" x="94.210642" xlink:href="#m665817695f" y="112.49325"/>
     <use style="stroke:#000000;" x="95.859891" xlink:href="#m665817695f" y="112.179498"/>
     <use style="stroke:#000000;" x="97.509139" xlink:href="#m665817695f" y="111.021111"/>
     <use style="stroke:#000000;" x="99.158387" xlink:href="#m665817695f" y="110.209663"/>
     <use style="stroke:#000000;" x="100.807636" xlink:href="#m665817695f" y="109.946651"/>
     <use style="stroke:#000000;" x="102.456884" xlink:href="#m665817695f" y="108.130698"/>
     <use style="stroke:#000000;" x="104.106133" xlink:href="#m665817695f" y="108.158446"/>
     <use style="stroke:#000000;" x="105.755381" xlink:href="#m665817695f" y="106.948921"/>
     <use style="stroke:#000000;" x="107.404629" xlink:href="#m665817695f" y="105.574009"/>
     <use style="stroke:#000000;" x="109.053878" xlink:href="#m665817695f" y="105.577007"/>
     <use style="stroke:#000000;" x="110.703126" xlink:href="#m665817695f" y="104.387295"/>
     <use style="stroke:#000000;" x="112.352375" xlink:href="#m665817695f" y="103.824458"/>
     <use style="stroke:#000000;" x="114.001623" xlink:href="#m665817695f" y="102.249519"/>
     <use style="stroke:#000000;" x="115.650871" xlink:href="#m665817695f" y="101.411415"/>
     <use style="stroke:#000000;" x="117.30012" xlink:href="#m665817695f" y="101.130664"/>
     <use style="stroke:#000000;" x="118.949368" xlink:href="#m665817695f" y="100.357565"/>
     <use style="stroke:#000000;" x="120.598616" xlink:href="#m665817695f" y="99.095272"/>
     <use style="stroke:#000000;" x="122.247865" xlink:href="#m665817695f" y="98.170636"/>
     <use style="stroke:#000000;" x="123.897113" xlink:href="#m665817695f" y="97.80535"/>
     <use style="stroke:#000000;" x="125.546362" xlink:href="#m665817695f" y="95.849171"/>
     <use style="stroke:#000000;" x="127.19561" xlink:href="#m665817695f" y="95.79768"/>
     <use style="stroke:#000000;" x="128.844858" xlink:href="#m665817695f" y="94.85174"/>
     <use style="stroke:#000000;" x="130.494107" xlink:href="#m665817695f" y="93.977096"/>
     <use style="stroke:#000000;" x="132.143355" xlink:href="#m665817695f" y="93.287682"/>
     <use style="stroke:#000000;" x="133.792604" xlink:href="#m665817695f" y="91.660311"/>
     <use style="stroke:#000000;" x="135.441852" xlink:href="#m665817695f" y="92.023222"/>
     <use style="stroke:#000000;" x="137.0911" xlink:href="#m665817695f" y="90.689419"/>
     <use style="stroke:#000000;" x="138.740349" xlink:href="#m665817695f" y="89.269045"/>
     <use style="stroke:#000000;" x="140.389597" xlink:href="#m665817695f" y="87.895317"/>
     <use style="stroke:#000000;" x="142.038846" xlink:href="#m665817695f" y="88.570194"/>
     <use style="stroke:#000000;" x="143.688094" xlink:href="#m665817695f" y="87.046591"/>
     <use style="stroke:#000000;" x="145.337342" xlink:href="#m665817695f" y="86.590481"/>
     <use style="stroke:#000000;" x="146.986591" xlink:href="#m665817695f" y="85.296101"/>
     <use style="stroke:#000000;" x="148.635839" xlink:href="#m665817695f" y="84.081625"/>
     <use style="stroke:#000000;" x="150.285087" xlink:href="#m665817695f" y="82.981236"/>
     <use style="stroke:#000000;" x="151.934336" xlink:href="#m665817695f" y="83.241322"/>
     <use style="stroke:#000000;" x="153.583584" xlink:href="#m665817695f" y="82.684576"/>
     <use style="stroke:#000000;" x="155.232833" xlink:href="#m665817695f" y="81.352822"/>
     <use style="stroke:#000000;" x="156.882081" xlink:href="#m665817695f" y="79.335526"/>
     <use style="stroke:#000000;" x="158.531329" xlink:href="#m665817695f" y="78.761468"/>
     <use style="stroke:#000000;" x="160.180578" xlink:href="#m665817695f" y="78.444112"/>
     <use style="stroke:#000000;" x="161.829826" xlink:href="#m665817695f" y="77.264647"/>
     <use style="stroke:#000000;" x="163.479075" xlink:href="#m665817695f" y="77.111494"/>
     <use style="stroke:#000000;" x="165.128323" xlink:href="#m665817695f" y="76.133386"/>
     <use style="stroke:#000000;" x="166.777571" xlink:href="#m665817695f" y="74.549053"/>
     <use style="stroke:#000000;" x="168.42682" xlink:href="#m665817695f" y="74.592406"/>
     <use style="stroke:#000000;" x="170.076068" xlink:href="#m665817695f" y="73.538249"/>
     <use style="stroke:#000000;" x="171.725317" xlink:href="#m665817695f" y="72.121133"/>
     <use style="stroke:#000000;" x="173.374565" xlink:href="#m665817695f" y="71.379801"/>
     <use style="stroke:#000000;" x="175.023813" xlink:href="#m665817695f" y="70.696947"/>
     <use style="stroke:#000000;" x="176.673062" xlink:href="#m665817695f" y="69.487241"/>
     <use style="stroke:#000000;" x="178.32231" xlink:href="#m665817695f" y="68.765991"/>
     <use style="stroke:#000000;" x="179.971558" xlink:href="#m665817695f" y="68.056845"/>
     <use style="stroke:#000000;" x="181.620807" xlink:href="#m665817695f" y="67.16294"/>
     <use style="stroke:#000000;" x="183.270055" xlink:href="#m665817695f" y="66.336561"/>
     <use style="stroke:#000000;" x="184.919304" xlink:href="#m665817695f" y="64.944721"/>
     <use style="stroke:#000000;" x="186.568552" xlink:href="#m665817695f" y="65.130172"/>
     <use style="stroke:#000000;" x="188.2178" xlink:href="#m665817695f" y="63.764074"/>
     <use style="stroke:#000000;" x="189.867049" xlink:href="#m665817695f" y="62.597722"/>
     <use style="stroke:#000000;" x="191.516297" xlink:href="#m665817695f" y="61.983418"/>
     <use style="stroke:#000000;" x="193.165546" xlink:href="#m665817695f" y="61.500816"/>
     <use style="stroke:#000000;" x="194.814794" xlink:href="#m665817695f" y="59.998716"/>
     <use style="stroke:#000000;" x="196.464042" xlink:href="#m665817695f" y="59.474422"/>
     <use style="stroke:#000000;" x="198.113291" xlink:href="#m665817695f" y="58.606597"/>
     <use style="stroke:#000000;" x="199.762539" xlink:href="#m665817695f" y="57.970338"/>
     <use style="stroke:#000000;" x="201.411788" xlink:href="#m665817695f" y="56.258895"/>
     <use style="stroke:#000000;" x="203.061036" xlink:href="#m665817695f" y="56.026137"/>
     <use style="stroke:#000000;" x="204.710284" xlink:href="#m665817695f" y="55.256638"/>
     <use style="stroke:#000000;" x="206.359533" xlink:href="#m665817695f" y="54.226589"/>
     <use style="stroke:#000000;" x="208.008781" xlink:href="#m665817695f" y="53.164942"/>
     <use style="stroke:#000000;" x="209.658029" xlink:href="#m665817695f" y="52.130246"/>
     <use style="stroke:#000000;" x="211.307278" xlink:href="#m665817695f" y="51.654032"/>
     <use style="stroke:#000000;" x="212.956526" xlink:href="#m665817695f" y="50.942313"/>
     <use style="stroke:#000000;" x="214.605775" xlink:href="#m665817695f" y="50.127416"/>
     <use style="stroke:#000000;" x="216.255023" xlink:href="#m665817695f" y="48.75692"/>
     <use style="stroke:#000000;" x="217.904271" xlink:href="#m665817695f" y="48.491705"/>
     <use style="stroke:#000000;" x="219.55352" xlink:href="#m665817695f" y="46.61818"/>
     <use style="stroke:#000000;" x="221.202768" xlink:href="#m665817695f" y="46.956004"/>
     <use style="stroke:#000000;" x="222.852017" xlink:href="#m665817695f" y="45.311654"/>
     <use style="stroke:#000000;" x="224.501265" xlink:href="#m665817695f" y="44.687322"/>
     <use style="stroke:#000000;" x="226.150513" xlink:href="#m665817695f" y="43.79452"/>
     <use style="stroke:#000000;" x="227.799762" xlink:href="#m665817695f" y="43.168413"/>
     <use style="stroke:#000000;" x="229.44901" xlink:href="#m665817695f" y="42.572155"/>
     <use style="stroke:#000000;" x="231.098259" xlink:href="#m665817695f" y="40.315657"/>
     <use style="stroke:#000000;" x="232.747507" xlink:href="#m665817695f" y="40.713992"/>
     <use style="stroke:#000000;" x="234.396755" xlink:href="#m665817695f" y="39.353248"/>
     <use style="stroke:#000000;" x="236.046004" xlink:href="#m665817695f" y="38.88587"/>
     <use style="stroke:#000000;" x="237.695252" xlink:href="#m665817695f" y="37.487652"/>
     <use style="stroke:#000000;" x="239.3445" xlink:href="#m665817695f" y="36.723227"/>
     <use style="stroke:#000000;" x="240.993749" xlink:href="#m665817695f" y="36.753793"/>
     <use style="stroke:#000000;" x="242.642997" xlink:href="#m665817695f" y="35.03285"/>
     <use style="stroke:#000000;" x="244.292246" xlink:href="#m665817695f" y="33.649877"/>
     <use style="stroke:#000000;" x="245.941494" xlink:href="#m665817695f" y="33.856945"/>
     <use style="stroke:#000000;" x="247.590742" xlink:href="#m665817695f" y="32.873163"/>
     <use style="stroke:#000000;" x="249.239991" xlink:href="#m665817695f" y="31.71987"/>
     <use style="stroke:#000000;" x="250.889239" xlink:href="#m665817695f" y="30.936489"/>
     <use style="stroke:#000000;" x="252.538488" xlink:href="#m665817695f" y="29.738783"/>
     <use style="stroke:#000000;" x="254.187736" xlink:href="#m665817695f" y="28.988264"/>
     <use style="stroke:#000000;" x="255.836984" xlink:href="#m665817695f" y="28.568094"/>
     <use style="stroke:#000000;" x="257.486233" xlink:href="#m665817695f" y="27.10589"/>
     <use style="stroke:#000000;" x="259.135481" xlink:href="#m665817695f" y="26.946138"/>
     <use style="stroke:#000000;" x="260.78473" xlink:href="#m665817695f" y="25.488837"/>
     <use style="stroke:#000000;" x="262.433978" xlink:href="#m665817695f" y="25.048094"/>
     <use style="stroke:#000000;" x="264.083226" xlink:href="#m665817695f" y="23.516848"/>
     <use style="stroke:#000000;" x="265.732475" xlink:href="#m665817695f" y="23.031991"/>
     <use style="stroke:#000000;" x="267.381723" xlink:href="#m665817695f" y="22.340844"/>
     <use style="stroke:#000000;" x="269.030972" xlink:href="#m665817695f" y="21.231489"/>
     <use style="stroke:#000000;" x="270.68022" xlink:href="#m665817695f" y="20.864465"/>
     <use style="stroke:#000000;" x="272.329468" xlink:href="#m665817695f" y="19.118633"/>
     <use style="stroke:#000000;" x="273.978717" xlink:href="#m665817695f" y="19.366018"/>
     <use style="stroke:#000000;" x="275.627965" xlink:href="#m665817695f" y="17.092835"/>
     <use style="stroke:#000000;" x="277.277213" xlink:href="#m665817695f" y="17.616928"/>
     <use style="stroke:#000000;" x="278.926462" xlink:href="#m665817695f" y="27.659616"/>
     <use style="stroke:#000000;" x="280.57571" xlink:href="#m665817695f" y="55.523466"/>
    </g>
   </g>
   <g id="patch_3">
    <path d="M 60.648438 124.046235 
L 60.648438 8.846235 
" style="fill:none;stroke:#000000;stroke-linecap:square;stroke-linejoin:miter;stroke-width:0.8;"/>
   </g>
   <g id="patch_4">
    <path d="M 291.048437 124.046235 
L 291.048437 8.846235 
" style="fill:none;stroke:#000000;stroke-linecap:square;stroke-linejoin:miter;stroke-width:0.8;"/>
   </g>
   <g id="patch_5">
    <path d="M 60.648438 124.046235 
L 291.048438 124.046235 
" style="fill:none;stroke:#000000;stroke-linecap:square;stroke-linejoin:miter;stroke-width:0.8;"/>
   </g>
   <g id="patch_6">
    <path d="M 60.648438 8.846235 
L 291.048438 8.846235 
" style="fill:none;stroke:#000000;stroke-linecap:square;stroke-linejoin:miter;stroke-width:0.8;"/>
   </g>
  </g>
 </g>
 <defs>
  <clipPath id="pd2b8e7ba34">
   <rect height="115.2" width="230.4" x="60.648438" y="8.846235"/>
  </clipPath>
 </defs>
</svg>
